<?xml version="1.0" standalone="no"?>
<!DOCTYPE svg PUBLIC "-//W3C//DTD SVG 1.1//EN" "http://www.w3.org/Graphics/SVG/1.1/DTD/svg11.dtd" >
<svg xmlns="http://www.w3.org/2000/svg" xmlns:xlink="http://www.w3.org/1999/xlink" version="1.1">
<metadata>
Created by FontForge 20190801 at Tue Jan 27 13:59:19 2015
 By Jimmy Wärting
Copyright 2015 Indian Type Foundry. All rights reserved.
</metadata>
<defs>
<font id="Mute-Semibold" horiz-adv-x="276" >
  <font-face 
    font-family="Mute"
    font-weight="600"
    font-stretch="normal"
    units-per-em="1000"
    panose-1="0 0 7 0 0 0 0 0 0 0"
    ascent="750"
    descent="-250"
    x-height="508"
    cap-height="674"
    bbox="-145 -262 1563 968"
    underline-thickness="50"
    underline-position="-100"
    unicode-range="U+000D-FB02"
  />
<missing-glyph horiz-adv-x="754" 
d="M166 0v701h422v-701h-422zM239 633v-565h277v565h-277z" />
    <glyph glyph-name="fi" unicode="fi" horiz-adv-x="608" 
d="M531 508v-508h-121v417h-191v-417h-119v417h-68v91h68v1c0 131 81 206 223 206c70 0 124 -11 171 -33v-104c-51 23 -99 39 -156 39c-75 0 -119 -28 -119 -104v-5h312z" />
    <glyph glyph-name="fl" unicode="fl" horiz-adv-x="608" 
d="M100 508v1c0 131 81 206 239 206c69 0 148 -13 192 -32v-683h-121v610c-23 4 -46 7 -67 7c-80 0 -124 -28 -124 -104v-5h102v-91h-102v-417h-119v417h-68v91h68z" />
    <glyph glyph-name=".notdef" horiz-adv-x="754" 
d="M166 0v701h422v-701h-422zM239 633v-565h277v565h-277z" />
    <glyph glyph-name="NULL" horiz-adv-x="0" 
 />
    <glyph glyph-name="NULL" horiz-adv-x="0" 
 />
    <glyph glyph-name="CR" unicode="&#xd;" horiz-adv-x="0" 
 />
    <glyph glyph-name="space" unicode=" " horiz-adv-x="186" 
 />
    <glyph glyph-name="exclam" unicode="!" horiz-adv-x="315" 
d="M158 147c43 0 77 -34 77 -77s-34 -78 -77 -78s-78 35 -78 78s35 77 78 77zM104 224l-9 450h122l-8 -450h-105z" />
    <glyph glyph-name="quotedbl" unicode="&#x22;" horiz-adv-x="377" 
d="M60 424l-18 250h121l-18 -250h-85zM232 424l-18 250h121l-18 -250h-85z" />
    <glyph glyph-name="numbersign" unicode="#" horiz-adv-x="739" 
d="M428 253l34 162h-153l-34 -162h153zM691 415h-126l-34 -162h119v-93h-138l-34 -160h-104l34 160h-153l-34 -160h-103l34 160h-104v93h123l34 162h-115v96h136l34 163h104l-35 -163h153l35 163h103l-34 -163h105v-96z" />
    <glyph glyph-name="dollar" unicode="$" horiz-adv-x="510" 
d="M435 646v-117c-45 26 -98 45 -157 45c-68 0 -104 -30 -104 -75c0 -48 39 -72 127 -109c100 -42 171 -89 171 -202c0 -101 -68 -171 -172 -191v-112h-102v109c-59 5 -106 21 -146 44v119c54 -39 115 -59 183 -59c66 0 108 31 108 81c0 55 -42 82 -134 121
c-98 40 -164 91 -164 192c0 90 63 157 160 180v110h101v-103c50 -2 87 -12 129 -33z" />
    <glyph glyph-name="percent" unicode="%" horiz-adv-x="925" 
d="M219 -1l371 692h111l-372 -692h-110zM701 -8c-99 0 -178 80 -178 178s79 178 178 178c98 0 178 -80 178 -178s-80 -178 -178 -178zM225 347c-99 0 -178 80 -178 178c0 99 79 178 178 178c98 0 178 -79 178 -178c0 -98 -80 -178 -178 -178zM225 605c-44 0 -80 -36 -80 -80
c0 -43 36 -79 80 -79c43 0 79 36 79 79c0 44 -36 80 -79 80zM701 250c-44 0 -79 -36 -79 -80c0 -43 35 -79 79 -79c43 0 79 36 79 79c0 44 -36 80 -79 80z" />
    <glyph glyph-name="ampersand" unicode="&#x26;" horiz-adv-x="731" 
d="M283 274l-23 21c-56 -27 -76 -61 -76 -103c0 -59 47 -102 140 -102c43 0 83 12 116 33zM325 584c-43 0 -79 -22 -79 -73c0 -39 25 -73 60 -110c66 33 96 69 96 111s-26 72 -77 72zM721 0h-152l-56 53c-54 -38 -124 -61 -203 -61c-156 0 -250 76 -250 191
c0 76 46 135 134 177c-40 44 -71 92 -71 150c0 102 83 172 202 172c129 0 193 -74 193 -162c0 -82 -55 -134 -145 -184l138 -133c16 31 25 69 25 111h109c0 -70 -20 -134 -57 -186z" />
    <glyph glyph-name="quotesingle" unicode="'" horiz-adv-x="205" 
d="M60 424l-18 250h121l-18 -250h-85z" />
    <glyph glyph-name="parenleft" unicode="(" horiz-adv-x="369" 
d="M219 707h130c-98 -113 -156 -266 -156 -411c0 -148 58 -301 156 -412h-130c-96 110 -153 265 -153 416c0 148 57 299 153 407z" />
    <glyph glyph-name="parenright" unicode=")" horiz-adv-x="369" 
d="M150 -116h-130c98 111 155 264 155 412c0 145 -57 298 -155 411h130c96 -108 153 -259 153 -407c0 -151 -57 -306 -153 -416z" />
    <glyph glyph-name="asterisk" unicode="*" horiz-adv-x="484" 
d="M309 459h-3c11 -8 23 -18 33 -32l56 -77l-77 -54l-55 76c-10 14 -16 27 -20 39c-4 -12 -11 -25 -21 -39l-56 -76l-76 55l56 76c10 13 21 24 33 32h-3c-13 0 -27 2 -43 7l-90 30l29 89l90 -30c17 -5 31 -13 42 -22c-5 13 -8 29 -8 47v94h93v-94c0 -18 -3 -33 -7 -46
c10 8 23 16 40 21l91 29l28 -88l-88 -30c-17 -5 -31 -7 -44 -7z" />
    <glyph glyph-name="plus" unicode="+" horiz-adv-x="576" 
d="M526 393v-108h-184v-183h-111v183h-181v108h181v185h111v-185h184z" />
    <glyph glyph-name="comma" unicode="," horiz-adv-x="261" 
d="M-31 -116l98 247h129l-140 -247h-87z" />
    <glyph glyph-name="hyphen" unicode="-" horiz-adv-x="353" 
d="M50 214v101h254v-101h-254z" />
    <glyph glyph-name="period" unicode="." horiz-adv-x="261" 
d="M131 -8c-43 0 -78 35 -78 78s35 77 78 77s77 -34 77 -77s-34 -78 -77 -78z" />
    <glyph glyph-name="slash" unicode="/" horiz-adv-x="506" 
d="M10 -116l361 823h125l-362 -823h-124z" />
    <glyph glyph-name="zero" unicode="0" horiz-adv-x="572" 
d="M286 -8c-152 0 -241 139 -241 343c0 208 90 345 241 345c154 0 241 -137 241 -345c0 -202 -83 -343 -241 -343zM286 574c-66 0 -112 -83 -112 -239c0 -153 46 -238 112 -238c71 0 112 85 112 238c0 156 -44 239 -112 239z" />
    <glyph glyph-name="one" unicode="1" horiz-adv-x="358" 
d="M13 438v125l173 102h107v-665h-122v534z" />
    <glyph glyph-name="two" unicode="2" horiz-adv-x="498" 
d="M192 104h261v-104h-417v97c138 111 283 234 283 360c0 69 -37 113 -110 113c-58 0 -118 -27 -161 -62v109c43 32 114 56 183 56c123 0 215 -65 215 -202c0 -135 -94 -245 -254 -367z" />
    <glyph glyph-name="three" unicode="3" horiz-adv-x="476" 
d="M208 -7c-62 0 -120 11 -164 31v112c46 -25 88 -40 151 -40c75 0 109 42 109 96c0 56 -33 97 -133 97h-38v100h38c75 0 125 30 125 91s-41 91 -101 91c-50 0 -104 -21 -138 -43v109c33 18 88 37 155 37c133 0 212 -77 212 -179c0 -74 -39 -126 -111 -152
c74 -19 119 -79 119 -158c0 -109 -71 -192 -224 -192z" />
    <glyph glyph-name="four" unicode="4" horiz-adv-x="554" 
d="M154 250h172v324c-9 -18 -30 -65 -107 -205zM532 250v-103h-84v-147h-122v147h-291v103l227 415h186v-415h84z" />
    <glyph glyph-name="five" unicode="5" horiz-adv-x="504" 
d="M190 562v-145c19 3 38 5 57 5c139 0 219 -79 219 -207c0 -133 -88 -223 -249 -223c-53 0 -109 6 -159 30v109c38 -21 84 -35 139 -35c95 0 141 42 141 117c0 65 -46 106 -119 106c-59 0 -111 -16 -145 -30v376h353v-103h-237z" />
    <glyph glyph-name="six" unicode="6" horiz-adv-x="533" 
d="M282 97c62 0 97 47 97 116c0 65 -35 111 -96 111c-49 0 -89 -24 -120 -57c8 -119 57 -170 119 -170zM443 658v-111c-27 14 -58 24 -93 24c-119 0 -170 -93 -184 -204c36 36 87 60 146 60c116 0 194 -85 194 -213c0 -121 -81 -222 -225 -222c-162 0 -245 132 -245 308
c0 221 112 374 306 374c38 0 75 -7 101 -16z" />
    <glyph glyph-name="seven" unicode="7" horiz-adv-x="469" 
d="M23 665h429v-103l-260 -562h-131l262 562h-300v103z" />
    <glyph glyph-name="eight" unicode="8" horiz-adv-x="541" 
d="M269 94c70 0 110 42 110 96s-38 98 -111 97c-70 0 -107 -44 -107 -100c0 -52 40 -93 108 -93zM268 571c-60 0 -97 -39 -97 -90c0 -59 41 -90 98 -90s96 33 96 91c0 51 -36 89 -97 89zM396 339c67 -28 110 -83 110 -155c0 -116 -102 -193 -238 -193
c-132 0 -235 78 -235 191c0 72 43 127 110 157c-61 29 -99 80 -99 146c0 117 101 189 224 189c126 0 224 -71 224 -190c0 -64 -36 -116 -96 -145z" />
    <glyph glyph-name="nine" unicode="9" horiz-adv-x="522" 
d="M149 456c0 -68 36 -113 100 -113c47 0 84 16 112 45c-4 112 -35 181 -113 181c-61 0 -99 -44 -99 -113zM71 10v112c30 -15 69 -25 107 -25c123 0 168 82 179 194c-33 -33 -80 -51 -141 -51c-109 0 -196 77 -196 207c0 117 83 227 229 227c161 0 238 -134 238 -309
c0 -226 -99 -373 -301 -373c-40 0 -87 7 -115 18z" />
    <glyph glyph-name="colon" unicode=":" horiz-adv-x="261" 
d="M131 -8c-43 0 -78 35 -78 78s35 77 78 77s77 -34 77 -77s-34 -78 -77 -78zM131 334c-43 0 -78 35 -78 78s35 77 78 77s77 -34 77 -77s-34 -78 -77 -78z" />
    <glyph glyph-name="semicolon" unicode=";" horiz-adv-x="261" 
d="M131 334c-43 0 -78 35 -78 78s35 77 78 77s77 -34 77 -77s-34 -78 -77 -78zM-31 -116l98 247h129l-140 -247h-87z" />
    <glyph glyph-name="less" unicode="&#x3c;" horiz-adv-x="565" 
d="M50 283v115l469 182v-121l-348 -118l348 -120v-120z" />
    <glyph glyph-name="equal" unicode="=" horiz-adv-x="576" 
d="M50 399v100h476v-100h-476zM50 181v101h476v-101h-476z" />
    <glyph glyph-name="greater" unicode="&#x3e;" horiz-adv-x="565" 
d="M516 398v-115l-469 -182v120l347 120l-347 118v121z" />
    <glyph glyph-name="question" unicode="?" horiz-adv-x="482" 
d="M74 539v107c38 21 92 36 155 36c124 0 210 -71 210 -183c0 -114 -90 -169 -177 -189l-5 -86h-104l-6 151c102 9 166 41 166 115c0 56 -38 94 -105 94c-47 0 -88 -15 -134 -45zM204 -8c-43 0 -77 35 -77 78s34 77 77 77s78 -34 78 -77s-35 -78 -78 -78z" />
    <glyph glyph-name="at" unicode="@" horiz-adv-x="950" 
d="M461 107c50 0 104 39 110 127c6 82 -42 120 -93 120c-61 0 -110 -55 -110 -141c0 -66 43 -106 93 -106zM678 -57v-105c-49 -24 -111 -36 -184 -36c-271 0 -446 168 -446 427c0 256 181 429 431 429c253 0 424 -165 424 -384c0 -161 -84 -256 -184 -256
c-78 0 -117 43 -135 91c-32 -57 -89 -91 -155 -91c-107 0 -169 91 -169 200c0 135 93 225 197 225c54 0 97 -22 124 -63c1 19 3 39 4 60h97l-5 -53c-8 -101 -11 -146 -11 -178c0 -67 21 -96 57 -96c50 0 79 53 79 153c0 169 -127 292 -322 292c-188 0 -324 -133 -324 -332
c0 -197 132 -325 338 -325c66 0 133 16 184 42z" />
    <glyph glyph-name="A" unicode="A" horiz-adv-x="682" 
d="M241 254h193l-10 32c-71 227 -80 265 -86 288c-6 -23 -15 -60 -87 -288zM514 0l-48 152h-256l-47 -152h-130l227 674h163l226 -674h-135z" />
    <glyph glyph-name="B" unicode="B" horiz-adv-x="609" 
d="M207 106h106c78 0 125 35 125 93s-46 93 -125 93h-106v-186zM299 568h-92v-172h91c71 0 114 33 114 87c0 53 -43 85 -113 85zM83 674h212c155 0 247 -67 247 -181c0 -70 -43 -120 -108 -141c80 -16 134 -76 134 -159c0 -119 -93 -193 -260 -193h-225v674z" />
    <glyph glyph-name="C" unicode="C" horiz-adv-x="600" 
d="M388 -8c-206 0 -337 138 -337 346c0 207 138 344 348 344c75 0 129 -16 162 -39v-117c-48 34 -98 51 -164 51c-137 0 -217 -95 -217 -239c0 -149 84 -241 218 -241c62 0 124 19 164 48v-112c-44 -27 -105 -41 -174 -41z" />
    <glyph glyph-name="D" unicode="D" horiz-adv-x="697" 
d="M207 107h90c137 0 219 87 219 231c0 145 -82 229 -220 229h-89v-460zM83 674h212c229 0 351 -125 351 -336c0 -212 -137 -338 -352 -338h-211v674z" />
    <glyph glyph-name="E" unicode="E" horiz-adv-x="533" 
d="M207 107h284v-107h-408v674h404v-107h-280v-167h250v-107h-250v-186z" />
    <glyph glyph-name="F" unicode="F" horiz-adv-x="521" 
d="M487 567h-280v-178h250v-106h-250v-283h-124v674h404v-107z" />
    <glyph glyph-name="G" unicode="G" horiz-adv-x="687" 
d="M626 360v-302c-55 -35 -133 -66 -235 -66c-209 0 -340 138 -340 346c0 207 138 344 348 344c80 0 139 -19 172 -41v-117c-48 33 -105 53 -174 53c-137 0 -217 -95 -217 -239c0 -149 84 -241 218 -241c36 0 71 6 103 17v140h-123v106h248z" />
    <glyph glyph-name="H" unicode="H" horiz-adv-x="702" 
d="M495 674h124v-674h-124v295h-288v-295h-124v674h124v-272h288v272z" />
    <glyph glyph-name="I" unicode="I" horiz-adv-x="289" 
d="M83 0v674h124v-674h-124z" />
    <glyph glyph-name="J" unicode="J" horiz-adv-x="390" 
d="M30 12v107c21 -14 50 -22 79 -22c50 0 79 25 79 85v492h125v-487c0 -129 -70 -195 -188 -195c-35 0 -70 8 -95 20z" />
    <glyph glyph-name="K" unicode="K" horiz-adv-x="640" 
d="M83 0v674h124v-674h-124zM363 346l261 -346h-160l-245 334l236 340h139z" />
    <glyph glyph-name="L" unicode="L" horiz-adv-x="495" 
d="M207 107h265v-107h-389v674h124v-567z" />
    <glyph glyph-name="M" unicode="M" horiz-adv-x="873" 
d="M54 0l59 674h159l91 -252c50 -140 70 -220 78 -261c7 41 29 120 78 261l90 252h149l61 -674h-127l-19 263c-10 134 -18 205 -21 261c-7 -56 -33 -137 -79 -261l-86 -239h-104l-87 239c-42 116 -70 207 -79 261c0 -55 -4 -146 -13 -261l-24 -263h-126z" />
    <glyph glyph-name="N" unicode="N" horiz-adv-x="701" 
d="M83 0v674h150l152 -281c80 -145 105 -214 117 -245c-3 31 -8 105 -8 245v281h125v-674h-151l-155 280c-78 142 -107 219 -117 249c3 -30 11 -109 11 -248v-281h-124z" />
    <glyph glyph-name="O" unicode="O" horiz-adv-x="718" 
d="M667 338c0 -217 -115 -346 -308 -346c-194 0 -308 128 -308 346c0 216 115 344 308 344c194 0 308 -127 308 -344zM538 338c0 150 -67 239 -179 239s-179 -89 -179 -239c0 -151 67 -241 179 -241s179 90 179 241z" />
    <glyph glyph-name="P" unicode="P" horiz-adv-x="578" 
d="M207 336h73c83 0 134 44 134 119c0 71 -50 113 -134 113h-73v-232zM83 674h190c168 0 269 -81 269 -219c0 -140 -103 -226 -274 -226h-61v-229h-124v674z" />
    <glyph glyph-name="Q" unicode="Q" horiz-adv-x="718" 
d="M180 338c0 -151 67 -241 179 -241s179 90 179 241c0 150 -67 239 -179 239s-179 -89 -179 -239zM712 -92l-137 -55l-194 140c-8 -1 -15 -1 -22 -1c-194 0 -308 128 -308 346c0 216 115 344 308 344c194 0 309 -127 309 -344c0 -152 -57 -261 -158 -313z" />
    <glyph glyph-name="R" unicode="R" horiz-adv-x="601" 
d="M207 568v-212h73c82 0 131 40 131 109c0 65 -49 103 -131 103h-73zM576 0h-152l-155 249h-11h-51v-249h-124v674h190c167 0 266 -77 266 -209c0 -93 -49 -161 -140 -194z" />
    <glyph glyph-name="S" unicode="S" horiz-adv-x="510" 
d="M437 649v-117c-45 26 -101 45 -164 45c-66 0 -103 -28 -103 -73c0 -42 28 -70 120 -107c112 -44 184 -93 184 -207c0 -120 -97 -198 -236 -198c-80 0 -141 17 -190 45v120c54 -39 116 -60 182 -60c71 0 115 34 115 87c0 50 -36 79 -136 119c-110 43 -168 99 -168 193
c0 108 96 186 236 186c66 0 111 -9 160 -33z" />
    <glyph glyph-name="T" unicode="T" horiz-adv-x="535" 
d="M513 674v-107h-183v-567h-124v567h-184v107h491z" />
    <glyph glyph-name="U" unicode="U" horiz-adv-x="675" 
d="M474 256v418h124v-411c0 -172 -97 -271 -261 -271c-163 0 -259 97 -259 263v419h124v-420c0 -102 53 -157 135 -157c84 0 137 55 137 159z" />
    <glyph glyph-name="V" unicode="V" horiz-adv-x="682" 
d="M649 674l-227 -674h-164l-225 674h135l90 -286c71 -227 80 -265 86 -288c6 23 15 61 87 288l88 286h130z" />
    <glyph glyph-name="W" unicode="W" horiz-adv-x="1023" 
d="M443 659h142l65 -234c51 -181 72 -273 79 -311c6 38 23 131 65 312l57 248h129l-168 -674h-167l-57 216c-52 191 -75 290 -80 323c-6 -33 -29 -136 -80 -322l-59 -217h-156l-170 674h133l58 -249c38 -161 62 -274 68 -311c7 37 37 150 79 311z" />
    <glyph glyph-name="X" unicode="X" horiz-adv-x="640" 
d="M170 0h-141l215 346l-203 328h152l41 -65c30 -49 69 -114 92 -164c23 50 61 114 92 162l41 67h140l-203 -327l215 -347h-153l-44 71c-32 53 -74 122 -99 176c-27 -54 -69 -123 -102 -176z" />
    <glyph glyph-name="Y" unicode="Y" horiz-adv-x="630" 
d="M604 674l-226 -432v-242h-126v240l-226 434h144l50 -98c74 -142 92 -189 101 -217c8 28 27 77 96 217l47 98h140z" />
    <glyph glyph-name="Z" unicode="Z" horiz-adv-x="563" 
d="M515 674v-94l-325 -473h335v-107h-487v97l324 470h-312v107h465z" />
    <glyph glyph-name="bracketleft" unicode="[" horiz-adv-x="373" 
d="M345 616h-142v-641h142v-91h-262v823h262v-91z" />
    <glyph glyph-name="backslash" unicode="\" horiz-adv-x="506" 
d="M496 -116h-124l-362 823h125z" />
    <glyph glyph-name="bracketright" unicode="]" horiz-adv-x="373" 
d="M291 707v-823h-263v91h142v641h-142v91h263z" />
    <glyph glyph-name="asciicircum" unicode="^" horiz-adv-x="480" 
d="M442 332h-114l-88 169l-89 -169h-113l147 262h111z" />
    <glyph glyph-name="underscore" unicode="_" horiz-adv-x="552" 
d="M23 -131v91h506v-91h-506z" />
    <glyph glyph-name="grave" unicode="`" horiz-adv-x="470" 
d="M213 740l91 -169h-101l-116 169h126z" />
    <glyph glyph-name="a" unicode="a" horiz-adv-x="519" 
d="M330 218h-72c-59 0 -90 -28 -90 -67s25 -65 70 -65c55 0 92 40 92 101v31zM81 372v106c37 21 99 37 167 37c140 0 206 -62 206 -186v-329h-119v81c-17 -44 -60 -89 -138 -89c-96 0 -154 69 -154 148c0 99 76 157 218 157h69v20c0 65 -24 100 -100 100
c-54 0 -110 -20 -149 -45z" />
    <glyph glyph-name="b" unicode="b" horiz-adv-x="596" 
d="M311 94c69 0 114 58 114 158c0 103 -47 161 -116 161s-111 -57 -111 -159c0 -101 44 -160 113 -160zM198 707v-273c32 52 81 81 144 81c126 0 208 -97 208 -259c0 -157 -86 -264 -208 -264c-62 0 -112 25 -144 75v-67h-120v707h120z" />
    <glyph glyph-name="c" unicode="c" horiz-adv-x="475" 
d="M318 -8c-167 0 -272 97 -272 258c0 158 98 265 269 265c54 0 95 -11 122 -27v-108c-30 19 -70 33 -121 33c-89 0 -144 -57 -144 -159c0 -101 56 -160 148 -160c46 0 89 13 117 33v-106c-26 -19 -70 -29 -119 -29z" />
    <glyph glyph-name="d" unicode="d" horiz-adv-x="596" 
d="M288 94c68 0 110 57 110 159c0 101 -43 160 -113 160c-68 0 -113 -58 -113 -158c0 -103 46 -161 116 -161zM398 707h121v-707h-121v73c-32 -52 -81 -81 -144 -81c-125 0 -208 97 -208 259c0 158 87 264 209 264c62 0 111 -25 143 -75v267z" />
    <glyph glyph-name="e" unicode="e" horiz-adv-x="528" 
d="M174 299h197c1 5 2 10 2 19c0 54 -31 99 -91 99c-59 0 -98 -44 -108 -118zM459 128v-103c-30 -20 -84 -33 -147 -33c-171 0 -266 100 -266 259c0 157 97 264 234 264c135 0 207 -83 207 -214c0 -31 -3 -62 -8 -81h-304c12 -82 63 -129 148 -129c55 0 103 13 136 37z" />
    <glyph glyph-name="f" unicode="f" horiz-adv-x="350" 
d="M342 705v-97c-17 6 -33 9 -50 9c-45 0 -73 -21 -73 -78v-31h102v-91h-102v-417h-119v417h-68v91h68v27c0 114 65 180 176 180c27 0 48 -4 66 -10z" />
    <glyph glyph-name="g" unicode="g" horiz-adv-x="596" 
d="M288 114c68 0 110 53 110 149c0 95 -43 150 -113 150c-68 0 -113 -54 -113 -148c0 -97 46 -151 116 -151zM398 508h121v-476c0 -169 -112 -240 -255 -240c-70 0 -121 12 -173 34v109c48 -25 106 -45 171 -45c93 0 136 52 136 150v50c-32 -50 -81 -78 -144 -78
c-125 0 -208 94 -208 249c0 152 87 254 209 254c62 0 111 -24 143 -72v65z" />
    <glyph glyph-name="h" unicode="h" horiz-adv-x="593" 
d="M198 707v-286c34 62 90 94 158 94c100 0 165 -63 165 -178v-337h-121v309c0 73 -32 108 -88 108c-61 0 -114 -54 -114 -152v-265h-120v707h120z" />
    <glyph glyph-name="i" unicode="i" 
d="M78 0v508h120v-508h-120zM138 586c-40 0 -72 32 -72 73c0 40 32 72 72 72s72 -32 72 -72c0 -41 -32 -73 -72 -73z" />
    <glyph glyph-name="j" unicode="j" 
d="M78 -32v540h120v-547c0 -97 -55 -160 -158 -160c-24 0 -50 4 -76 13v101c20 -12 42 -16 61 -16c31 0 53 19 53 69zM138 731c40 0 72 -32 72 -72c0 -41 -32 -73 -72 -73s-72 32 -72 73c0 40 32 72 72 72z" />
    <glyph glyph-name="k" unicode="k" horiz-adv-x="534" 
d="M78 0v707h120v-707h-120zM343 276l178 -276h-141l-169 266h-1l170 242h129z" />
    <glyph glyph-name="l" unicode="l" 
d="M78 0v707h120v-707h-120z" />
    <glyph glyph-name="m" unicode="m" horiz-adv-x="876" 
d="M198 508v-84c32 60 85 91 148 91c71 0 123 -36 145 -103c33 68 90 103 158 103c94 0 155 -63 155 -178v-337h-121v309c0 73 -28 108 -78 108c-56 0 -104 -54 -104 -152v-265h-121v309c0 73 -28 108 -78 108c-56 0 -104 -54 -104 -152v-265h-120v508h120z" />
    <glyph glyph-name="n" unicode="n" horiz-adv-x="593" 
d="M198 508v-87c34 62 90 94 158 94c100 0 165 -63 165 -178v-337h-121v309c0 73 -32 108 -88 108c-61 0 -114 -54 -114 -152v-265h-120v508h120z" />
    <glyph glyph-name="o" unicode="o" horiz-adv-x="579" 
d="M46 250c0 158 97 265 245 265c150 0 242 -97 242 -259c0 -157 -96 -264 -243 -264c-152 0 -244 97 -244 258zM408 252c0 103 -46 165 -119 165c-72 0 -117 -61 -117 -163c0 -101 46 -164 120 -164c72 0 116 62 116 162z" />
    <glyph glyph-name="p" unicode="p" horiz-adv-x="596" 
d="M311 94c69 0 114 58 114 158c0 103 -47 161 -116 161s-111 -57 -111 -159c0 -101 44 -160 113 -160zM198 508v-74c32 52 81 81 144 81c126 0 208 -97 208 -259c0 -157 -86 -264 -208 -264c-62 0 -112 25 -144 75v-267h-120v708h120z" />
    <glyph glyph-name="q" unicode="q" horiz-adv-x="596" 
d="M288 94c68 0 110 57 110 159c0 101 -43 160 -113 160c-68 0 -113 -58 -113 -158c0 -103 46 -161 116 -161zM398 508h121v-708h-121v273c-32 -52 -81 -81 -144 -81c-125 0 -208 97 -208 259c0 158 87 264 209 264c62 0 111 -25 143 -75v68z" />
    <glyph glyph-name="r" unicode="r" horiz-adv-x="373" 
d="M198 508v-85c27 60 71 92 129 92c14 0 24 -2 33 -5v-117c-14 5 -28 7 -47 7c-70 0 -115 -55 -115 -145v-255h-120v508h120z" />
    <glyph glyph-name="s" unicode="s" horiz-adv-x="432" 
d="M360 494v-106c-30 17 -74 29 -122 29s-73 -15 -73 -44c0 -27 22 -42 80 -64c101 -36 146 -83 146 -162c0 -97 -78 -155 -199 -155c-54 0 -115 14 -149 31v110c35 -23 96 -43 146 -43c52 0 78 20 78 51c0 33 -27 52 -84 73c-94 34 -142 77 -142 151c0 96 86 150 191 150
c55 0 96 -8 128 -21z" />
    <glyph glyph-name="t" unicode="t" horiz-adv-x="375" 
d="M354 417h-134v-253c0 -48 24 -74 64 -74c26 0 50 7 70 22v-101c-22 -12 -53 -19 -91 -19c-111 0 -163 60 -163 166v259h-68v91h68v110h120v-110h134v-91z" />
    <glyph glyph-name="u" unicode="u" horiz-adv-x="583" 
d="M385 508h121v-508h-121v84c-33 -60 -87 -92 -153 -92c-96 0 -159 63 -159 178v338h120v-310c0 -73 31 -108 84 -108c58 0 108 54 108 152v266z" />
    <glyph glyph-name="v" unicode="v" horiz-adv-x="517" 
d="M185 0l-169 508h132l61 -216c39 -137 48 -183 53 -212c5 29 12 74 54 212l65 216h120l-165 -508h-151z" />
    <glyph glyph-name="w" unicode="w" horiz-adv-x="819" 
d="M170 0l-147 508h125l45 -168c43 -162 51 -222 55 -247c5 25 12 85 59 247l49 168h124l48 -168c48 -168 53 -222 58 -247c4 25 8 81 51 247l41 168h119l-147 -508h-141l-45 166c-40 145 -49 215 -53 240c-4 -25 -14 -95 -53 -240l-45 -166h-143z" />
    <glyph glyph-name="x" unicode="x" horiz-adv-x="517" 
d="M141 0h-121l170 260l-160 248h138l34 -52c29 -46 50 -84 64 -113c13 29 34 67 64 113l33 52h124l-160 -245l170 -263h-139l-40 60c-30 47 -53 89 -68 121c-16 -32 -39 -74 -70 -121z" />
    <glyph glyph-name="y" unicode="y" horiz-adv-x="528" 
d="M211 10l-195 498h132l58 -163c54 -148 63 -188 66 -195c2 7 14 46 63 195l54 163h125l-188 -506c-55 -148 -129 -210 -228 -210c-22 0 -37 2 -55 6v98c12 -3 25 -6 41 -6c54 0 90 32 117 94z" />
    <glyph glyph-name="z" unicode="z" horiz-adv-x="479" 
d="M429 508v-80l-251 -337h261v-91h-399v83l250 334h-238v91h377z" />
    <glyph glyph-name="braceleft" unicode="{" horiz-adv-x="370" 
d="M43 354h35c52 0 73 19 73 68c0 44 -19 94 -19 151c0 82 46 142 151 142c24 0 42 -3 59 -10v-97c-10 6 -22 9 -32 9c-35 0 -52 -25 -52 -58c0 -41 18 -98 18 -147c0 -73 -35 -108 -105 -117c70 -9 105 -43 105 -116c0 -49 -18 -106 -18 -147c0 -33 17 -58 52 -58
c10 0 22 3 32 9v-97c-17 -7 -35 -10 -59 -10c-105 0 -151 60 -151 142c0 57 19 107 19 151c0 50 -21 68 -73 68h-35v117z" />
    <glyph glyph-name="bar" unicode="|" horiz-adv-x="286" 
d="M83 -200v907h120v-907h-120z" />
    <glyph glyph-name="braceright" unicode="}" horiz-adv-x="370" 
d="M327 354v-117h-35c-52 0 -73 -18 -73 -68c0 -44 19 -94 19 -151c0 -82 -46 -142 -151 -142c-23 0 -41 3 -59 10v97c10 -6 22 -9 32 -9c35 0 53 25 53 58c0 41 -19 98 -19 147c0 73 35 107 106 116c-71 9 -106 44 -106 117c0 49 19 106 19 147c0 33 -18 58 -53 58
c-10 0 -22 -3 -32 -9v97c18 7 36 10 59 10c105 0 151 -60 151 -142c0 -57 -19 -107 -19 -151c0 -49 21 -68 73 -68h35z" />
    <glyph glyph-name="asciitilde" unicode="~" horiz-adv-x="633" 
d="M517 359l84 -66c-33 -50 -84 -102 -161 -102c-100 0 -148 58 -218 58c-47 0 -76 -21 -108 -62l-83 67c37 52 97 104 166 104c111 0 156 -58 221 -58c45 0 72 24 99 59z" />
    <glyph glyph-name="uni00A0" unicode="&#xa0;" horiz-adv-x="186" 
 />
    <glyph glyph-name="exclamdown" unicode="&#xa1;" horiz-adv-x="315" 
d="M158 334c-43 0 -78 35 -78 78s35 77 78 77s77 -34 77 -77s-34 -78 -77 -78zM212 257l8 -450h-122l9 450h105z" />
    <glyph glyph-name="cent" unicode="&#xa2;" horiz-adv-x="468" 
d="M434 488v-108c-30 19 -70 33 -121 33c-89 0 -144 -57 -144 -159c0 -101 56 -160 148 -160c46 0 89 13 117 33v-106c-20 -14 -50 -24 -85 -27v-105h-101v109c-128 23 -205 114 -205 252c0 137 74 236 205 260v108h101v-105c36 -4 65 -13 85 -25z" />
    <glyph glyph-name="sterling" unicode="&#xa3;" horiz-adv-x="533" 
d="M212 103h272v-103h-416v100c60 35 77 89 77 148c0 11 -1 21 -3 32h-78v90h55c-8 30 -15 63 -15 97c0 124 84 213 234 213c51 0 105 -12 136 -30v-115c-30 20 -75 31 -113 31c-75 0 -124 -41 -124 -120c0 -26 5 -51 12 -76h183v-90h-160c2 -12 3 -23 3 -35
c0 -58 -20 -107 -63 -142z" />
    <glyph glyph-name="currency" unicode="&#xa4;" horiz-adv-x="561" 
d="M89 193c-20 33 -32 74 -32 117s12 85 32 117l-59 59l72 69l59 -58c34 21 75 33 121 33c44 0 85 -12 118 -31l58 56l72 -69l-58 -58c20 -32 32 -72 32 -115c0 -44 -13 -86 -34 -119l60 -58l-72 -70l-60 58c-34 -20 -74 -31 -119 -31c-44 0 -84 11 -118 31l-59 -58l-72 70z
M281 435c-72 0 -123 -56 -123 -123c0 -68 51 -124 123 -124s122 56 122 123c0 68 -50 124 -122 124z" />
    <glyph glyph-name="yen" unicode="&#xa5;" horiz-adv-x="622" 
d="M595 671l-160 -310h111v-78h-152l-21 -41v-32h173v-78h-173v-132h-126v132h-179v78h179v30l-22 43h-157v78h117l-160 310h145l47 -95c71 -144 90 -189 99 -217c8 28 28 76 94 217l45 95h140z" />
    <glyph glyph-name="brokenbar" unicode="&#xa6;" horiz-adv-x="286" 
d="M83 363v344h120v-344h-120zM83 -200v344h120v-344h-120z" />
    <glyph glyph-name="section" unicode="&#xa7;" horiz-adv-x="566" 
d="M184 269c0 -42 23 -66 104 -97c23 -9 45 -18 64 -27c19 18 32 40 32 67c0 47 -31 67 -126 106c-13 6 -26 11 -38 17c-22 -17 -36 -41 -36 -66zM455 649v-121c-45 26 -98 45 -156 45c-62 0 -91 -26 -91 -62c0 -42 32 -69 123 -105c133 -53 176 -100 176 -189
c0 -52 -28 -99 -61 -131c33 -30 49 -65 49 -110c0 -112 -88 -184 -227 -184c-65 0 -127 12 -176 40v130c58 -43 113 -61 176 -61s98 27 98 68c0 42 -23 60 -140 107c-135 54 -165 113 -165 186c0 52 29 100 69 130c-36 31 -54 68 -54 116c0 106 82 174 221 174
c54 0 108 -10 158 -33z" />
    <glyph glyph-name="dieresis" unicode="&#xa8;" horiz-adv-x="470" 
d="M131 586c-41 0 -70 31 -70 69c0 39 29 69 70 69c39 0 69 -30 69 -69c0 -38 -30 -69 -69 -69zM339 586c-40 0 -70 31 -70 69c0 39 30 69 70 69s70 -30 70 -69c0 -38 -30 -69 -70 -69z" />
    <glyph glyph-name="copyright" unicode="&#xa9;" horiz-adv-x="767" 
d="M384 -8c-190 0 -345 155 -345 345c0 189 155 346 345 346c189 0 345 -157 345 -346c0 -190 -156 -345 -345 -345zM384 597c-148 0 -260 -114 -260 -261c0 -149 112 -259 260 -259c147 0 260 110 260 259c0 147 -113 261 -260 261zM410 431c-47 0 -92 -34 -92 -95
c0 -57 41 -93 92 -93c27 0 57 9 80 24v-84c-24 -13 -59 -21 -91 -21c-100 0 -177 72 -177 174c0 99 68 177 180 177c26 0 58 -4 88 -21v-83c-23 15 -53 22 -80 22z" />
    <glyph glyph-name="ordfeminine" unicode="&#xaa;" horiz-adv-x="284" 
d="M170 512h-21c-29 0 -44 -11 -44 -28c0 -18 11 -30 32 -30c19 0 33 12 33 32v26zM40 582v82c17 8 53 18 98 18c80 0 119 -31 119 -103v-181h-83v33c-7 -17 -27 -35 -69 -35c-56 0 -85 38 -85 82c0 50 36 81 116 81h34v12c0 23 -11 36 -45 36c-33 0 -63 -11 -85 -25z" />
    <glyph glyph-name="guillemotleft" unicode="&#xab;" horiz-adv-x="585" 
d="M300 429l-113 -176l113 -176h-116l-118 176l118 176h116zM519 429l-113 -176l113 -176h-116l-118 176l118 176h116z" />
    <glyph glyph-name="logicalnot" unicode="&#xac;" horiz-adv-x="583" 
d="M541 145h-103v172h-400v99h503v-271z" />
    <glyph glyph-name="uni00AD" unicode="&#xad;" horiz-adv-x="353" 
d="M50 214v101h254v-101h-254z" />
    <glyph glyph-name="registered" unicode="&#xae;" horiz-adv-x="476" 
d="M245 636h-24v-68h28c21 0 31 15 31 34c0 24 -12 34 -35 34zM172 677h70c62 0 90 -29 90 -75c0 -31 -13 -54 -39 -66l60 -96h-61l-51 87h-20v-87h-49v237zM247 369c110 0 181 73 181 182c0 110 -71 184 -181 184c-111 0 -182 -74 -182 -184c0 -109 71 -182 182 -182z
M246 786c136 0 236 -98 236 -235s-100 -234 -236 -234c-137 0 -236 97 -236 234s99 235 236 235z" />
    <glyph glyph-name="macron" unicode="&#xaf;" horiz-adv-x="470" 
d="M388 608h-306v84h306v-84z" />
    <glyph glyph-name="degree" unicode="&#xb0;" horiz-adv-x="408" 
d="M203 336c-97 0 -173 75 -173 172s77 174 174 174c98 0 174 -75 174 -173c0 -97 -78 -173 -175 -173zM203 596c-48 0 -86 -39 -86 -87s39 -88 87 -88s86 40 86 88s-39 87 -87 87z" />
    <glyph glyph-name="plusminus" unicode="&#xb1;" horiz-adv-x="576" 
d="M50 29v101h476v-101h-476zM342 429h184v-101h-184v-151h-111v151h-181v101h181v150h111v-150z" />
    <glyph glyph-name="twosuperior" unicode="&#xb2;" horiz-adv-x="365" 
d="M40 392v66c89 66 180 154 180 224c0 40 -25 61 -67 61c-32 0 -71 -16 -102 -39v91c29 18 71 33 114 33c84 0 149 -48 149 -135c0 -85 -69 -163 -158 -224h173v-77h-289z" />
    <glyph glyph-name="threesuperior" unicode="&#xb3;" horiz-adv-x="343" 
d="M107 647h18c45 0 80 17 80 52c0 34 -24 49 -60 49c-30 0 -67 -13 -95 -33v86c27 16 65 27 101 27c95 0 147 -52 147 -119c0 -53 -31 -88 -80 -99c48 -4 90 -40 90 -101c0 -71 -55 -121 -149 -121c-38 0 -92 9 -124 26v81c35 -18 72 -29 112 -29c43 0 68 22 68 53
c0 30 -23 52 -90 52h-18v76z" />
    <glyph glyph-name="acute" unicode="&#xb4;" horiz-adv-x="470" 
d="M167 571l91 169h126l-116 -169h-101z" />
    <glyph glyph-name="uni00B5" unicode="&#xb5;" horiz-adv-x="570" 
d="M385 507h120v-507h-120v67c-21 -45 -61 -72 -115 -72c-31 0 -60 8 -85 22v-197h-120v687h120v-315c0 -65 47 -98 101 -98c63 0 99 43 99 141v272z" />
    <glyph glyph-name="paragraph" unicode="&#xb6;" horiz-adv-x="589" 
d="M310 674v-822h-96v474c-133 0 -198 84 -198 174c0 86 61 174 211 174h83zM410 -148v822h96v-822h-96z" />
    <glyph glyph-name="periodcentered" unicode="&#xb7;" horiz-adv-x="254" 
d="M147 200c-43 0 -78 35 -78 78s35 77 78 77s77 -34 77 -77s-34 -78 -77 -78z" />
    <glyph glyph-name="cedilla" unicode="&#xb8;" horiz-adv-x="470" 
d="M301 -51c12 -18 18 -48 18 -73c0 -74 -53 -137 -169 -138v78c52 2 79 27 79 67c0 27 -13 48 -25 66h97z" />
    <glyph glyph-name="onesuperior" unicode="&#xb9;" horiz-adv-x="268" 
d="M10 666v85l128 73h72v-432h-88v335z" />
    <glyph glyph-name="ordmasculine" unicode="&#xba;" horiz-adv-x="315" 
d="M296 537c0 -89 -51 -144 -138 -144s-138 55 -138 144s52 145 138 145c88 0 138 -56 138 -145zM206 536c0 45 -15 75 -48 75c-32 0 -50 -30 -50 -74s19 -73 50 -73c32 0 48 28 48 72z" />
    <glyph glyph-name="guillemotright" unicode="&#xbb;" horiz-adv-x="585" 
d="M181 429l119 -176l-119 -176h-115l113 176l-113 176h115zM400 429l119 -176l-119 -176h-115l113 176l-113 176h115z" />
    <glyph glyph-name="questiondown" unicode="&#xbf;" horiz-adv-x="482" 
d="M408 -58v-107c-38 -21 -93 -36 -155 -36c-124 0 -210 71 -210 183c0 115 90 169 176 189l5 86h105l5 -150c-102 -9 -165 -42 -165 -115c0 -57 37 -95 104 -95c48 0 88 15 135 45zM278 489c43 0 77 -34 77 -77s-34 -78 -77 -78s-78 35 -78 78s35 77 78 77z" />
    <glyph glyph-name="Agrave" unicode="&#xc0;" horiz-adv-x="682" 
d="M410 738h-101l-116 169h126zM241 254h193l-10 32c-71 227 -80 265 -86 288c-6 -23 -15 -60 -87 -288zM514 0l-48 152h-256l-47 -152h-130l227 674h163l226 -674h-135z" />
    <glyph glyph-name="Aacute" unicode="&#xc1;" horiz-adv-x="682" 
d="M490 907l-116 -169h-101l91 169h126zM241 254h193l-10 32c-71 227 -80 265 -86 288c-6 -23 -15 -60 -87 -288zM514 0l-48 152h-256l-47 -152h-130l227 674h163l226 -674h-135z" />
    <glyph glyph-name="Acircumflex" unicode="&#xc2;" horiz-adv-x="682" 
d="M341 834l-61 -96h-109l117 169h106l117 -169h-109zM241 254h193l-10 32c-71 227 -80 265 -86 288c-6 -23 -15 -60 -87 -288zM514 0l-48 152h-256l-47 -152h-130l227 674h163l226 -674h-135z" />
    <glyph glyph-name="Atilde" unicode="&#xc3;" horiz-adv-x="682" 
d="M460 874l64 -51c-25 -50 -67 -79 -117 -79c-58 0 -84 37 -124 37c-27 0 -49 -14 -68 -44l-56 54c24 49 63 78 109 78c62 0 84 -38 131 -38c27 0 49 17 61 43zM241 254h193l-10 32c-71 227 -80 265 -86 288c-6 -23 -15 -60 -87 -288zM514 0l-48 152h-256l-47 -152h-130
l227 674h163l226 -674h-135z" />
    <glyph glyph-name="Adieresis" unicode="&#xc4;" horiz-adv-x="682" 
d="M445 753c-40 0 -70 31 -70 69c0 39 30 69 70 69s70 -30 70 -69c0 -38 -30 -69 -70 -69zM237 753c-41 0 -70 31 -70 69c0 39 29 69 70 69c39 0 69 -30 69 -69c0 -38 -30 -69 -69 -69zM241 254h193l-10 32c-71 227 -80 265 -86 288c-6 -23 -15 -60 -87 -288zM514 0l-48 152
h-256l-47 -152h-130l227 674h163l226 -674h-135z" />
    <glyph glyph-name="Aring" unicode="&#xc5;" horiz-adv-x="682" 
d="M341 901c-31 0 -53 -26 -53 -55s22 -55 53 -55s53 26 53 55s-22 55 -53 55zM341 719c-69 0 -125 56 -125 125s56 124 125 124s125 -55 125 -124s-56 -125 -125 -125zM241 254h193l-10 32c-71 227 -80 265 -86 288c-6 -23 -15 -60 -87 -288zM514 0l-48 152h-256l-47 -152
h-130l227 674h163l226 -674h-135z" />
    <glyph glyph-name="AE" unicode="&#xc6;" horiz-adv-x="893" 
d="M281 249h162v325c-6 -23 -31 -72 -141 -284zM567 107h285v-107h-409v147h-215l-76 -147h-130l354 674h471v-107h-280v-167h250v-107h-250v-186z" />
    <glyph glyph-name="Ccedilla" unicode="&#xc7;" horiz-adv-x="600" 
d="M388 -8c-206 0 -337 138 -337 346c0 207 138 344 348 344c75 0 129 -16 162 -39v-117c-48 34 -98 51 -164 51c-137 0 -217 -95 -217 -239c0 -149 84 -241 218 -241c62 0 124 19 164 48v-112c-44 -27 -105 -41 -174 -41zM425 -51c12 -18 18 -48 18 -73
c0 -74 -53 -137 -169 -138v78c52 2 79 27 79 67c0 27 -13 48 -25 66h97z" />
    <glyph glyph-name="Egrave" unicode="&#xc8;" horiz-adv-x="533" 
d="M358 738h-101l-116 169h126zM207 107h284v-107h-408v674h404v-107h-280v-167h250v-107h-250v-186z" />
    <glyph glyph-name="Eacute" unicode="&#xc9;" horiz-adv-x="533" 
d="M438 907l-116 -169h-101l91 169h126zM207 107h284v-107h-408v674h404v-107h-280v-167h250v-107h-250v-186z" />
    <glyph glyph-name="Ecircumflex" unicode="&#xca;" horiz-adv-x="533" 
d="M289 834l-61 -96h-109l117 169h106l117 -169h-109zM207 107h284v-107h-408v674h404v-107h-280v-167h250v-107h-250v-186z" />
    <glyph glyph-name="Edieresis" unicode="&#xcb;" horiz-adv-x="533" 
d="M393 753c-40 0 -70 31 -70 69c0 39 30 69 70 69s70 -30 70 -69c0 -38 -30 -69 -70 -69zM185 753c-41 0 -70 31 -70 69c0 39 29 69 70 69c39 0 69 -30 69 -69c0 -38 -30 -69 -69 -69zM207 107h284v-107h-408v674h404v-107h-280v-167h250v-107h-250v-186z" />
    <glyph glyph-name="Igrave" unicode="&#xcc;" horiz-adv-x="289" 
d="M83 0v674h124v-674h-124zM123 907l91 -169h-101l-116 169h126z" />
    <glyph glyph-name="Iacute" unicode="&#xcd;" horiz-adv-x="289" 
d="M83 0v674h124v-674h-124zM77 738l91 169h126l-116 -169h-101z" />
    <glyph glyph-name="Icircumflex" unicode="&#xce;" horiz-adv-x="289" 
d="M92 907h106l117 -169h-109l-61 96l-61 -96h-109zM83 0v674h124v-674h-124z" />
    <glyph glyph-name="Idieresis" unicode="&#xcf;" horiz-adv-x="289" 
d="M83 0v674h124v-674h-124zM41 753c-41 0 -70 31 -70 69c0 39 29 69 70 69c39 0 69 -30 69 -69c0 -38 -30 -69 -69 -69zM249 753c-40 0 -70 31 -70 69c0 39 30 69 70 69s70 -30 70 -69c0 -38 -30 -69 -70 -69z" />
    <glyph glyph-name="Eth" unicode="&#xd0;" horiz-adv-x="697" 
d="M207 107h90c137 0 219 87 219 231c0 145 -82 229 -220 229h-89v-165h160v-107h-160v-188zM83 674h212c229 0 351 -125 351 -336c0 -212 -137 -338 -352 -338h-211v295h-70v107h70v272z" />
    <glyph glyph-name="Ntilde" unicode="&#xd1;" horiz-adv-x="701" 
d="M83 0v674h150l152 -281c80 -145 105 -214 117 -245c-3 31 -8 105 -8 245v281h125v-674h-151l-155 280c-78 142 -107 219 -117 249c3 -30 11 -109 11 -248v-281h-124zM470 874l64 -51c-25 -50 -67 -79 -117 -79c-58 0 -84 37 -124 37c-27 0 -49 -14 -68 -44l-56 54
c24 49 63 78 109 78c62 0 84 -38 131 -38c27 0 49 17 61 43z" />
    <glyph glyph-name="Ograve" unicode="&#xd2;" horiz-adv-x="718" 
d="M667 338c0 -217 -115 -346 -308 -346c-194 0 -308 128 -308 346c0 216 115 344 308 344c194 0 308 -127 308 -344zM538 338c0 150 -67 239 -179 239s-179 -89 -179 -239c0 -151 67 -241 179 -241s179 90 179 241zM337 907l91 -169h-101l-116 169h126z" />
    <glyph glyph-name="Oacute" unicode="&#xd3;" horiz-adv-x="718" 
d="M291 738l91 169h126l-116 -169h-101zM667 338c0 -217 -115 -346 -308 -346c-194 0 -308 128 -308 346c0 216 115 344 308 344c194 0 308 -127 308 -344zM538 338c0 150 -67 239 -179 239s-179 -89 -179 -239c0 -151 67 -241 179 -241s179 90 179 241z" />
    <glyph glyph-name="Ocircumflex" unicode="&#xd4;" horiz-adv-x="718" 
d="M538 338c0 150 -67 239 -179 239s-179 -89 -179 -239c0 -151 67 -241 179 -241s179 90 179 241zM667 338c0 -217 -115 -346 -308 -346c-194 0 -308 128 -308 346c0 216 115 344 308 344c194 0 308 -127 308 -344zM306 907h106l117 -169h-109l-61 96l-61 -96h-109z" />
    <glyph glyph-name="Otilde" unicode="&#xd5;" horiz-adv-x="718" 
d="M667 338c0 -217 -115 -346 -308 -346c-194 0 -308 128 -308 346c0 216 115 344 308 344c194 0 308 -127 308 -344zM538 338c0 150 -67 239 -179 239s-179 -89 -179 -239c0 -151 67 -241 179 -241s179 90 179 241zM478 874l64 -51c-25 -50 -67 -79 -117 -79
c-58 0 -84 37 -124 37c-27 0 -49 -14 -68 -44l-56 54c24 49 63 78 109 78c62 0 84 -38 131 -38c27 0 49 17 61 43z" />
    <glyph glyph-name="Odieresis" unicode="&#xd6;" horiz-adv-x="718" 
d="M255 753c-41 0 -70 31 -70 69c0 39 29 69 70 69c39 0 69 -30 69 -69c0 -38 -30 -69 -69 -69zM463 753c-40 0 -70 31 -70 69c0 39 30 69 70 69s70 -30 70 -69c0 -38 -30 -69 -70 -69zM667 338c0 -217 -115 -346 -308 -346c-194 0 -308 128 -308 346c0 216 115 344 308 344
c194 0 308 -127 308 -344zM538 338c0 150 -67 239 -179 239s-179 -89 -179 -239c0 -151 67 -241 179 -241s179 90 179 241z" />
    <glyph glyph-name="multiply" unicode="&#xd7;" horiz-adv-x="515" 
d="M465 469l-130 -130l130 -130l-77 -76l-130 129l-129 -128l-78 78l128 128l-131 131l77 77l131 -131l130 130z" />
    <glyph glyph-name="Oslash" unicode="&#xd8;" horiz-adv-x="719" 
d="M518 462l-252 -338c26 -18 57 -27 93 -27c112 0 179 90 179 241c0 48 -7 90 -20 124zM204 203l255 343c-28 20 -61 31 -100 31c-112 0 -179 -89 -179 -239c0 -53 8 -98 24 -135zM682 682l-81 -109c44 -58 67 -137 67 -235c0 -217 -116 -346 -309 -346
c-63 0 -117 13 -162 39l-29 -39h-122l77 103c-47 58 -72 141 -72 243c0 216 115 344 308 344c66 0 123 -15 169 -43l32 43h122z" />
    <glyph glyph-name="Ugrave" unicode="&#xd9;" horiz-adv-x="675" 
d="M474 256v418h124v-411c0 -172 -97 -271 -261 -271c-163 0 -259 97 -259 263v419h124v-420c0 -102 53 -157 135 -157c84 0 137 55 137 159zM316 907l91 -169h-101l-116 169h126z" />
    <glyph glyph-name="Uacute" unicode="&#xda;" horiz-adv-x="675" 
d="M270 738l91 169h126l-116 -169h-101zM474 256v418h124v-411c0 -172 -97 -271 -261 -271c-163 0 -259 97 -259 263v419h124v-420c0 -102 53 -157 135 -157c84 0 137 55 137 159z" />
    <glyph glyph-name="Ucircumflex" unicode="&#xdb;" horiz-adv-x="675" 
d="M474 256v418h124v-411c0 -172 -97 -271 -261 -271c-163 0 -259 97 -259 263v419h124v-420c0 -102 53 -157 135 -157c84 0 137 55 137 159zM285 907h106l117 -169h-109l-61 96l-61 -96h-109z" />
    <glyph glyph-name="Udieresis" unicode="&#xdc;" horiz-adv-x="675" 
d="M234 753c-41 0 -70 31 -70 69c0 39 29 69 70 69c39 0 69 -30 69 -69c0 -38 -30 -69 -69 -69zM442 753c-40 0 -70 31 -70 69c0 39 30 69 70 69s70 -30 70 -69c0 -38 -30 -69 -70 -69zM474 256v418h124v-411c0 -172 -97 -271 -261 -271c-163 0 -259 97 -259 263v419h124
v-420c0 -102 53 -157 135 -157c84 0 137 55 137 159z" />
    <glyph glyph-name="Yacute" unicode="&#xdd;" horiz-adv-x="630" 
d="M464 907l-116 -169h-101l91 169h126zM604 674l-226 -432v-242h-126v240l-226 434h144l50 -98c74 -142 92 -189 101 -217c8 28 27 77 96 217l47 98h140z" />
    <glyph glyph-name="Thorn" unicode="&#xde;" horiz-adv-x="578" 
d="M207 226h73c83 0 134 45 134 120c0 71 -50 113 -134 113h-73v-233zM207 565h66c168 0 269 -82 269 -219c0 -140 -103 -226 -274 -226h-61v-120h-124v674h124v-109z" />
    <glyph glyph-name="germandbls" unicode="&#xdf;" horiz-adv-x="599" 
d="M270 17v101c36 -19 67 -28 102 -28c39 0 67 19 67 57c0 76 -130 119 -130 220c0 74 74 104 74 170c0 46 -34 80 -89 80c-64 0 -96 -39 -96 -111v-506h-120v499c0 141 79 216 224 216c130 0 207 -71 207 -162c0 -85 -74 -116 -74 -168c0 -60 129 -100 129 -234
c0 -94 -81 -159 -184 -159c-54 0 -88 12 -110 25z" />
    <glyph glyph-name="agrave" unicode="&#xe0;" horiz-adv-x="519" 
d="M330 571h-101l-116 169h126zM330 218h-72c-59 0 -90 -28 -90 -67s25 -65 70 -65c55 0 92 40 92 101v31zM81 372v106c37 21 99 37 167 37c140 0 206 -62 206 -186v-329h-119v81c-17 -44 -60 -89 -138 -89c-96 0 -154 69 -154 148c0 99 76 157 218 157h69v20
c0 65 -24 100 -100 100c-54 0 -110 -20 -149 -45z" />
    <glyph glyph-name="aacute" unicode="&#xe1;" horiz-adv-x="519" 
d="M410 740l-116 -169h-101l91 169h126zM330 218h-72c-59 0 -90 -28 -90 -67s25 -65 70 -65c55 0 92 40 92 101v31zM81 372v106c37 21 99 37 167 37c140 0 206 -62 206 -186v-329h-119v81c-17 -44 -60 -89 -138 -89c-96 0 -154 69 -154 148c0 99 76 157 218 157h69v20
c0 65 -24 100 -100 100c-54 0 -110 -20 -149 -45z" />
    <glyph glyph-name="acircumflex" unicode="&#xe2;" horiz-adv-x="519" 
d="M261 667l-61 -96h-109l117 169h106l117 -169h-109zM330 218h-72c-59 0 -90 -28 -90 -67s25 -65 70 -65c55 0 92 40 92 101v31zM81 372v106c37 21 99 37 167 37c140 0 206 -62 206 -186v-329h-119v81c-17 -44 -60 -89 -138 -89c-96 0 -154 69 -154 148
c0 99 76 157 218 157h69v20c0 65 -24 100 -100 100c-54 0 -110 -20 -149 -45z" />
    <glyph glyph-name="atilde" unicode="&#xe3;" horiz-adv-x="519" 
d="M380 707l64 -51c-25 -50 -67 -79 -117 -79c-58 0 -84 37 -124 37c-27 0 -49 -14 -68 -44l-56 54c24 49 63 78 109 78c62 0 84 -38 131 -38c27 0 49 17 61 43zM330 218h-72c-59 0 -90 -28 -90 -67s25 -65 70 -65c55 0 92 40 92 101v31zM81 372v106c37 21 99 37 167 37
c140 0 206 -62 206 -186v-329h-119v81c-17 -44 -60 -89 -138 -89c-96 0 -154 69 -154 148c0 99 76 157 218 157h69v20c0 65 -24 100 -100 100c-54 0 -110 -20 -149 -45z" />
    <glyph glyph-name="adieresis" unicode="&#xe4;" horiz-adv-x="519" 
d="M365 586c-40 0 -70 31 -70 69c0 39 30 69 70 69s70 -30 70 -69c0 -38 -30 -69 -70 -69zM157 586c-41 0 -70 31 -70 69c0 39 29 69 70 69c39 0 69 -30 69 -69c0 -38 -30 -69 -69 -69zM330 218h-72c-59 0 -90 -28 -90 -67s25 -65 70 -65c55 0 92 40 92 101v31zM81 372v106
c37 21 99 37 167 37c140 0 206 -62 206 -186v-329h-119v81c-17 -44 -60 -89 -138 -89c-96 0 -154 69 -154 148c0 99 76 157 218 157h69v20c0 65 -24 100 -100 100c-54 0 -110 -20 -149 -45z" />
    <glyph glyph-name="aring" unicode="&#xe5;" horiz-adv-x="519" 
d="M261 734c-31 0 -53 -26 -53 -55s22 -55 53 -55s53 26 53 55s-22 55 -53 55zM261 552c-69 0 -125 56 -125 125s56 124 125 124s125 -55 125 -124s-56 -125 -125 -125zM330 218h-72c-59 0 -90 -28 -90 -67s25 -65 70 -65c55 0 92 40 92 101v31zM81 372v106
c37 21 99 37 167 37c140 0 206 -62 206 -186v-329h-119v81c-17 -44 -60 -89 -138 -89c-96 0 -154 69 -154 148c0 99 76 157 218 157h69v20c0 65 -24 100 -100 100c-54 0 -110 -20 -149 -45z" />
    <glyph glyph-name="ae" unicode="&#xe6;" horiz-adv-x="810" 
d="M456 299h197c1 4 1 10 1 19c0 54 -30 99 -90 99c-59 0 -98 -44 -108 -118zM330 219h-72c-59 0 -90 -29 -90 -68s25 -65 70 -65c55 0 92 40 92 101v32zM81 372v106c37 21 99 37 167 37c78 0 133 -19 167 -58c38 37 89 58 147 58c135 0 207 -83 207 -214
c0 -31 -3 -63 -8 -82h-304c12 -81 63 -128 148 -128c54 0 103 13 136 37v-103c-30 -20 -84 -33 -147 -33c-101 0 -174 37 -216 103c-23 -62 -83 -103 -172 -103c-105 0 -163 69 -163 148c0 99 76 159 218 159h69v18c0 65 -24 100 -100 100c-54 0 -110 -20 -149 -45z" />
    <glyph glyph-name="ccedilla" unicode="&#xe7;" horiz-adv-x="475" 
d="M318 -8c-167 0 -272 97 -272 258c0 158 98 265 269 265c54 0 95 -11 122 -27v-108c-30 19 -70 33 -121 33c-89 0 -144 -57 -144 -159c0 -101 56 -160 148 -160c46 0 89 13 117 33v-106c-26 -19 -70 -29 -119 -29zM344 -51c12 -18 17 -48 17 -73c0 -74 -52 -137 -168 -138
v78c51 2 79 27 79 67c0 27 -13 48 -25 66h97z" />
    <glyph glyph-name="egrave" unicode="&#xe8;" horiz-adv-x="528" 
d="M353 571h-101l-116 169h126zM174 299h197c1 5 2 10 2 19c0 54 -31 99 -91 99c-59 0 -98 -44 -108 -118zM459 128v-103c-30 -20 -84 -33 -147 -33c-171 0 -266 100 -266 259c0 157 97 264 234 264c135 0 207 -83 207 -214c0 -31 -3 -62 -8 -81h-304
c12 -82 63 -129 148 -129c55 0 103 13 136 37z" />
    <glyph glyph-name="eacute" unicode="&#xe9;" horiz-adv-x="528" 
d="M433 740l-116 -169h-101l91 169h126zM174 299h197c1 5 2 10 2 19c0 54 -31 99 -91 99c-59 0 -98 -44 -108 -118zM459 128v-103c-30 -20 -84 -33 -147 -33c-171 0 -266 100 -266 259c0 157 97 264 234 264c135 0 207 -83 207 -214c0 -31 -3 -62 -8 -81h-304
c12 -82 63 -129 148 -129c55 0 103 13 136 37z" />
    <glyph glyph-name="ecircumflex" unicode="&#xea;" horiz-adv-x="528" 
d="M284 667l-61 -96h-109l117 169h106l117 -169h-109zM174 299h197c1 5 2 10 2 19c0 54 -31 99 -91 99c-59 0 -98 -44 -108 -118zM459 128v-103c-30 -20 -84 -33 -147 -33c-171 0 -266 100 -266 259c0 157 97 264 234 264c135 0 207 -83 207 -214c0 -31 -3 -62 -8 -81h-304
c12 -82 63 -129 148 -129c55 0 103 13 136 37z" />
    <glyph glyph-name="edieresis" unicode="&#xeb;" horiz-adv-x="528" 
d="M388 586c-40 0 -70 31 -70 69c0 39 30 69 70 69s70 -30 70 -69c0 -38 -30 -69 -70 -69zM180 586c-41 0 -70 31 -70 69c0 39 29 69 70 69c39 0 69 -30 69 -69c0 -38 -30 -69 -69 -69zM174 299h197c1 5 2 10 2 19c0 54 -31 99 -91 99c-59 0 -98 -44 -108 -118zM459 128
v-103c-30 -20 -84 -33 -147 -33c-171 0 -266 100 -266 259c0 157 97 264 234 264c135 0 207 -83 207 -214c0 -31 -3 -62 -8 -81h-304c12 -82 63 -129 148 -129c55 0 103 13 136 37z" />
    <glyph glyph-name="igrave" unicode="&#xec;" 
d="M78 0v508h120v-508h-120zM116 740l91 -169h-101l-116 169h126z" />
    <glyph glyph-name="iacute" unicode="&#xed;" 
d="M70 571l91 169h126l-116 -169h-101zM78 0v508h120v-508h-120z" />
    <glyph glyph-name="icircumflex" unicode="&#xee;" 
d="M78 0v508h120v-508h-120zM85 740h106l117 -169h-109l-61 96l-61 -96h-109z" />
    <glyph glyph-name="idieresis" unicode="&#xef;" 
d="M34 586c-41 0 -70 31 -70 69c0 39 29 69 70 69c39 0 69 -30 69 -69c0 -38 -30 -69 -69 -69zM242 586c-40 0 -70 31 -70 69c0 39 30 69 70 69s70 -30 70 -69c0 -38 -30 -69 -70 -69zM78 0v508h120v-508h-120z" />
    <glyph glyph-name="eth" unicode="&#xf0;" horiz-adv-x="553" 
d="M275 90c67 0 107 46 107 123s-40 123 -107 123c-65 0 -103 -46 -103 -123s38 -123 103 -123zM453 632l-69 -34c72 -85 123 -198 123 -333c0 -161 -84 -273 -242 -273c-131 0 -219 88 -219 221s83 221 211 221c52 0 99 -15 129 -48c-16 59 -49 116 -92 168l-119 -58v74
l72 35c-39 39 -83 73 -129 102h141c27 -17 53 -36 77 -59l117 57v-73z" />
    <glyph glyph-name="ntilde" unicode="&#xf1;" horiz-adv-x="593" 
d="M416 707l64 -51c-25 -50 -67 -79 -117 -79c-58 0 -84 37 -124 37c-27 0 -49 -14 -68 -44l-56 54c24 49 63 78 109 78c62 0 84 -38 131 -38c27 0 49 17 61 43zM198 508v-87c34 62 90 94 158 94c100 0 165 -63 165 -178v-337h-121v309c0 73 -32 108 -88 108
c-61 0 -114 -54 -114 -152v-265h-120v508h120z" />
    <glyph glyph-name="ograve" unicode="&#xf2;" horiz-adv-x="579" 
d="M46 250c0 158 97 265 245 265c150 0 242 -97 242 -259c0 -157 -96 -264 -243 -264c-152 0 -244 97 -244 258zM408 252c0 103 -46 165 -119 165c-72 0 -117 -61 -117 -163c0 -101 46 -164 120 -164c72 0 116 62 116 162zM268 740l91 -169h-101l-116 169h126z" />
    <glyph glyph-name="oacute" unicode="&#xf3;" horiz-adv-x="579" 
d="M222 571l91 169h126l-116 -169h-101zM46 250c0 158 97 265 245 265c150 0 242 -97 242 -259c0 -157 -96 -264 -243 -264c-152 0 -244 97 -244 258zM408 252c0 103 -46 165 -119 165c-72 0 -117 -61 -117 -163c0 -101 46 -164 120 -164c72 0 116 62 116 162z" />
    <glyph glyph-name="ocircumflex" unicode="&#xf4;" horiz-adv-x="579" 
d="M408 252c0 103 -46 165 -119 165c-72 0 -117 -61 -117 -163c0 -101 46 -164 120 -164c72 0 116 62 116 162zM46 250c0 158 97 265 245 265c150 0 242 -97 242 -259c0 -157 -96 -264 -243 -264c-152 0 -244 97 -244 258zM237 740h106l117 -169h-109l-61 96l-61 -96h-109z
" />
    <glyph glyph-name="otilde" unicode="&#xf5;" horiz-adv-x="579" 
d="M46 250c0 158 97 265 245 265c150 0 242 -97 242 -259c0 -157 -96 -264 -243 -264c-152 0 -244 97 -244 258zM408 252c0 103 -46 165 -119 165c-72 0 -117 -61 -117 -163c0 -101 46 -164 120 -164c72 0 116 62 116 162zM409 707l64 -51c-25 -50 -67 -79 -117 -79
c-58 0 -84 37 -124 37c-27 0 -49 -14 -68 -44l-56 54c24 49 63 78 109 78c62 0 84 -38 131 -38c27 0 49 17 61 43z" />
    <glyph glyph-name="odieresis" unicode="&#xf6;" horiz-adv-x="579" 
d="M186 586c-41 0 -70 31 -70 69c0 39 29 69 70 69c39 0 69 -30 69 -69c0 -38 -30 -69 -69 -69zM394 586c-40 0 -70 31 -70 69c0 39 30 69 70 69s70 -30 70 -69c0 -38 -30 -69 -70 -69zM46 250c0 158 97 265 245 265c150 0 242 -97 242 -259c0 -157 -96 -264 -243 -264
c-152 0 -244 97 -244 258zM408 252c0 103 -46 165 -119 165c-72 0 -117 -61 -117 -163c0 -101 46 -164 120 -164c72 0 116 62 116 162z" />
    <glyph glyph-name="divide" unicode="&#xf7;" horiz-adv-x="576" 
d="M285 450c-37 0 -67 31 -67 67s30 67 67 67c36 0 67 -31 67 -67s-31 -67 -67 -67zM50 286v108h476v-108h-476zM285 96c-37 0 -67 31 -67 67s30 67 67 67c36 0 67 -31 67 -67s-31 -67 -67 -67z" />
    <glyph glyph-name="oslash" unicode="&#xf8;" horiz-adv-x="596" 
d="M407 338l-170 -232c18 -10 39 -16 62 -16c76 0 123 62 123 162c0 33 -5 62 -15 86zM184 177l166 228c-16 8 -34 12 -54 12c-77 0 -124 -61 -124 -163c0 -29 4 -55 12 -77zM537 515l-53 -72c41 -45 63 -108 63 -187c0 -157 -99 -264 -250 -264c-48 0 -90 9 -125 26
l-19 -26h-104l56 77c-38 44 -59 105 -59 181c0 158 100 265 252 265c44 0 83 -8 116 -23l17 23h106z" />
    <glyph glyph-name="ugrave" unicode="&#xf9;" horiz-adv-x="583" 
d="M361 571h-101l-116 169h126zM385 508h121v-508h-121v84c-33 -60 -87 -92 -153 -92c-96 0 -159 63 -159 178v338h120v-310c0 -73 31 -108 84 -108c58 0 108 54 108 152v266z" />
    <glyph glyph-name="uacute" unicode="&#xfa;" horiz-adv-x="583" 
d="M441 740l-116 -169h-101l91 169h126zM385 508h121v-508h-121v84c-33 -60 -87 -92 -153 -92c-96 0 -159 63 -159 178v338h120v-310c0 -73 31 -108 84 -108c58 0 108 54 108 152v266z" />
    <glyph glyph-name="ucircumflex" unicode="&#xfb;" horiz-adv-x="583" 
d="M292 667l-61 -96h-109l117 169h106l117 -169h-109zM385 508h121v-508h-121v84c-33 -60 -87 -92 -153 -92c-96 0 -159 63 -159 178v338h120v-310c0 -73 31 -108 84 -108c58 0 108 54 108 152v266z" />
    <glyph glyph-name="udieresis" unicode="&#xfc;" horiz-adv-x="583" 
d="M396 586c-40 0 -70 31 -70 69c0 39 30 69 70 69s70 -30 70 -69c0 -38 -30 -69 -70 -69zM188 586c-41 0 -70 31 -70 69c0 39 29 69 70 69c39 0 69 -30 69 -69c0 -38 -30 -69 -69 -69zM385 508h121v-508h-121v84c-33 -60 -87 -92 -153 -92c-96 0 -159 63 -159 178v338h120
v-310c0 -73 31 -108 84 -108c58 0 108 54 108 152v266z" />
    <glyph glyph-name="yacute" unicode="&#xfd;" horiz-adv-x="528" 
d="M203 571l91 169h126l-116 -169h-101zM211 10l-195 498h132l58 -163c54 -148 63 -188 66 -195c2 7 14 46 63 195l54 163h125l-188 -506c-55 -148 -129 -210 -228 -210c-22 0 -37 2 -55 6v98c12 -3 25 -6 41 -6c54 0 90 32 117 94z" />
    <glyph glyph-name="thorn" unicode="&#xfe;" horiz-adv-x="596" 
d="M311 94c69 0 114 58 114 158c0 103 -47 161 -116 161s-111 -57 -111 -159c0 -101 44 -160 113 -160zM198 707v-273c32 52 81 81 144 81c126 0 208 -97 208 -259c0 -157 -86 -264 -208 -264c-62 0 -112 25 -144 75v-267h-120v907h120z" />
    <glyph glyph-name="ydieresis" unicode="&#xff;" horiz-adv-x="528" 
d="M375 586c-40 0 -70 31 -70 69c0 39 30 69 70 69s70 -30 70 -69c0 -38 -30 -69 -70 -69zM167 586c-41 0 -70 31 -70 69c0 39 29 69 70 69c39 0 69 -30 69 -69c0 -38 -30 -69 -69 -69zM211 10l-195 498h132l58 -163c54 -148 63 -188 66 -195c2 7 14 46 63 195l54 163h125
l-188 -506c-55 -148 -129 -210 -228 -210c-22 0 -37 2 -55 6v98c12 -3 25 -6 41 -6c54 0 90 32 117 94z" />
    <glyph glyph-name="Amacron" unicode="&#x100;" horiz-adv-x="682" 
d="M494 859v-84h-306v84h306zM241 254h193l-10 32c-71 227 -80 265 -86 288c-6 -23 -15 -60 -87 -288zM514 0l-48 152h-256l-47 -152h-130l227 674h163l226 -674h-135z" />
    <glyph glyph-name="amacron" unicode="&#x101;" horiz-adv-x="519" 
d="M414 692v-84h-306v84h306zM330 218h-72c-59 0 -90 -28 -90 -67s25 -65 70 -65c55 0 92 40 92 101v31zM81 372v106c37 21 99 37 167 37c140 0 206 -62 206 -186v-329h-119v81c-17 -44 -60 -89 -138 -89c-96 0 -154 69 -154 148c0 99 76 157 218 157h69v20
c0 65 -24 100 -100 100c-54 0 -110 -20 -149 -45z" />
    <glyph glyph-name="Abreve" unicode="&#x102;" horiz-adv-x="682" 
d="M408 907h88c0 -109 -58 -173 -155 -173s-154 64 -154 173h87c0 -61 22 -94 67 -94s67 33 67 94zM241 254h193l-10 32c-71 227 -80 265 -86 288c-6 -23 -15 -60 -87 -288zM514 0l-48 152h-256l-47 -152h-130l227 674h163l226 -674h-135z" />
    <glyph glyph-name="abreve" unicode="&#x103;" horiz-adv-x="519" 
d="M328 740h88c0 -109 -58 -173 -155 -173s-154 64 -154 173h87c0 -61 22 -94 67 -94s67 33 67 94zM330 218h-72c-59 0 -90 -28 -90 -67s25 -65 70 -65c55 0 92 40 92 101v31zM81 372v106c37 21 99 37 167 37c140 0 206 -62 206 -186v-329h-119v81c-17 -44 -60 -89 -138 -89
c-96 0 -154 69 -154 148c0 99 76 157 218 157h69v20c0 65 -24 100 -100 100c-54 0 -110 -20 -149 -45z" />
    <glyph glyph-name="Aogonek" unicode="&#x104;" horiz-adv-x="682" 
d="M241 254h193l-10 32c-71 227 -80 265 -86 288c-6 -23 -15 -60 -87 -288zM649 0h-75c-51 -32 -94 -74 -94 -115c0 -29 20 -44 54 -44c26 0 54 9 77 25v-86c-27 -13 -60 -20 -94 -20c-92 0 -135 52 -135 114c0 76 62 133 119 167l-35 111h-256l-47 -152h-130l227 674h163z
" />
    <glyph glyph-name="aogonek" unicode="&#x105;" horiz-adv-x="519" 
d="M330 218h-72c-59 0 -90 -28 -90 -67s25 -65 70 -65c55 0 92 40 92 101v31zM454 0h-23c-51 -32 -95 -74 -95 -115c0 -29 20 -44 55 -44c25 0 53 9 76 25v-86c-27 -13 -60 -20 -94 -20c-92 0 -135 52 -135 114c0 66 47 118 97 152v55c-17 -44 -60 -89 -138 -89
c-96 0 -154 69 -154 148c0 99 76 157 218 157h69v20c0 65 -24 100 -100 100c-54 0 -110 -20 -149 -45v106c37 21 99 37 167 37c140 0 206 -62 206 -186v-329z" />
    <glyph glyph-name="Cacute" unicode="&#x106;" horiz-adv-x="600" 
d="M299 738l91 169h126l-116 -169h-101zM388 -8c-206 0 -337 138 -337 346c0 207 138 344 348 344c75 0 129 -16 162 -39v-117c-48 34 -98 51 -164 51c-137 0 -217 -95 -217 -239c0 -149 84 -241 218 -241c62 0 124 19 164 48v-112c-44 -27 -105 -41 -174 -41z" />
    <glyph glyph-name="cacute" unicode="&#x107;" horiz-adv-x="475" 
d="M206 571l91 169h126l-116 -169h-101zM318 -8c-167 0 -272 97 -272 258c0 158 98 265 269 265c54 0 95 -11 122 -27v-108c-30 19 -70 33 -121 33c-89 0 -144 -57 -144 -159c0 -101 56 -160 148 -160c46 0 89 13 117 33v-106c-26 -19 -70 -29 -119 -29z" />
    <glyph glyph-name="Ccircumflex" unicode="&#x108;" horiz-adv-x="600" 
d="M562 145v-112c-44 -27 -105 -41 -174 -41c-206 0 -337 138 -337 346c0 207 138 344 348 344c75 0 129 -16 162 -39v-117c-48 34 -98 51 -164 51c-137 0 -217 -95 -217 -239c0 -149 84 -241 218 -241c62 0 124 19 164 48zM307 907h106l117 -169h-109l-61 96l-61 -96h-109z
" />
    <glyph glyph-name="ccircumflex" unicode="&#x109;" horiz-adv-x="475" 
d="M437 127v-106c-26 -19 -70 -29 -119 -29c-167 0 -272 97 -272 258c0 158 98 265 269 265c54 0 95 -11 122 -27v-108c-30 19 -70 33 -121 33c-89 0 -144 -57 -144 -159c0 -101 56 -160 148 -160c46 0 89 13 117 33zM228 740h106l117 -169h-109l-61 96l-61 -96h-109z" />
    <glyph glyph-name="Cdotaccent" unicode="&#x10a;" horiz-adv-x="600" 
d="M388 -8c-206 0 -337 138 -337 346c0 207 138 344 348 344c75 0 129 -16 162 -39v-117c-48 34 -98 51 -164 51c-137 0 -217 -95 -217 -239c0 -149 84 -241 218 -241c62 0 124 19 164 48v-112c-44 -27 -105 -41 -174 -41zM364 754c-41 0 -72 31 -72 71s31 71 72 71
s71 -31 71 -71s-30 -71 -71 -71z" />
    <glyph glyph-name="cdotaccent" unicode="&#x10b;" horiz-adv-x="475" 
d="M318 -8c-167 0 -272 97 -272 258c0 158 98 265 269 265c54 0 95 -11 122 -27v-108c-30 19 -70 33 -121 33c-89 0 -144 -57 -144 -159c0 -101 56 -160 148 -160c46 0 89 13 117 33v-106c-26 -19 -70 -29 -119 -29zM281 587c-41 0 -72 31 -72 71s31 71 72 71s71 -31 71 -71
s-30 -71 -71 -71z" />
    <glyph glyph-name="Ccaron" unicode="&#x10c;" horiz-adv-x="600" 
d="M562 145v-112c-44 -27 -105 -41 -174 -41c-206 0 -337 138 -337 346c0 207 138 344 348 344c75 0 129 -16 162 -39v-117c-48 34 -98 51 -164 51c-137 0 -217 -95 -217 -239c0 -149 84 -241 218 -241c62 0 124 19 164 48zM537 907l-117 -169h-106l-117 169h109l61 -96
l61 96h109z" />
    <glyph glyph-name="ccaron" unicode="&#x10d;" horiz-adv-x="475" 
d="M437 127v-106c-26 -19 -70 -29 -119 -29c-167 0 -272 97 -272 258c0 158 98 265 269 265c54 0 95 -11 122 -27v-108c-30 19 -70 33 -121 33c-89 0 -144 -57 -144 -159c0 -101 56 -160 148 -160c46 0 89 13 117 33zM444 740l-117 -169h-106l-117 169h109l61 -96l61 96h109
z" />
    <glyph glyph-name="Dcaron" unicode="&#x10e;" horiz-adv-x="697" 
d="M358 738h-106l-117 169h109l61 -96l61 96h109zM207 107h90c137 0 219 87 219 231c0 145 -82 229 -220 229h-89v-460zM83 674h212c229 0 351 -125 351 -336c0 -212 -137 -338 -352 -338h-211v674z" />
    <glyph glyph-name="dcaron" unicode="&#x10f;" horiz-adv-x="710" 
d="M288 94c68 0 110 57 110 159c0 101 -43 160 -113 160c-68 0 -113 -58 -113 -158c0 -103 46 -161 116 -161zM398 440v267h121v-707h-121v73c-32 -52 -81 -81 -144 -81c-125 0 -208 97 -208 259c0 158 87 264 209 264c62 0 111 -25 143 -75zM626 707h129l-115 -204h-90z
" />
    <glyph glyph-name="Dcroat" unicode="&#x110;" horiz-adv-x="697" 
d="M207 107h90c137 0 219 87 219 231c0 145 -82 229 -220 229h-89v-165h160v-107h-160v-188zM83 674h212c229 0 351 -125 351 -336c0 -212 -137 -338 -352 -338h-211v295h-70v107h70v272z" />
    <glyph glyph-name="dcroat" unicode="&#x111;" horiz-adv-x="596" 
d="M288 94c68 0 110 57 110 159c0 101 -43 160 -113 160c-68 0 -113 -58 -113 -158c0 -103 46 -161 116 -161zM577 644v-84h-58v-560h-121v73c-32 -52 -81 -81 -144 -81c-125 0 -208 97 -208 259c0 158 87 264 209 264c62 0 111 -25 143 -75v120h-127v84h127v63h121v-63h58z
" />
    <glyph glyph-name="Emacron" unicode="&#x112;" horiz-adv-x="533" 
d="M435 859v-84h-306v84h306zM207 107h284v-107h-408v674h404v-107h-280v-167h250v-107h-250v-186z" />
    <glyph glyph-name="emacron" unicode="&#x113;" horiz-adv-x="528" 
d="M437 692v-84h-306v84h306zM174 299h197c1 5 2 10 2 19c0 54 -31 99 -91 99c-59 0 -98 -44 -108 -118zM459 128v-103c-30 -20 -84 -33 -147 -33c-171 0 -266 100 -266 259c0 157 97 264 234 264c135 0 207 -83 207 -214c0 -31 -3 -62 -8 -81h-304c12 -82 63 -129 148 -129
c55 0 103 13 136 37z" />
    <glyph glyph-name="Ebreve" unicode="&#x114;" horiz-adv-x="533" 
d="M356 907h88c0 -109 -58 -173 -155 -173s-154 64 -154 173h87c0 -61 22 -94 67 -94s67 33 67 94zM207 107h284v-107h-408v674h404v-107h-280v-167h250v-107h-250v-186z" />
    <glyph glyph-name="ebreve" unicode="&#x115;" horiz-adv-x="528" 
d="M351 740h88c0 -109 -58 -173 -155 -173s-154 64 -154 173h87c0 -61 22 -94 67 -94s67 33 67 94zM174 299h197c1 5 2 10 2 19c0 54 -31 99 -91 99c-59 0 -98 -44 -108 -118zM459 128v-103c-30 -20 -84 -33 -147 -33c-171 0 -266 100 -266 259c0 157 97 264 234 264
c135 0 207 -83 207 -214c0 -31 -3 -62 -8 -81h-304c12 -82 63 -129 148 -129c55 0 103 13 136 37z" />
    <glyph glyph-name="Edotaccent" unicode="&#x116;" horiz-adv-x="533" 
d="M289 754c-41 0 -72 31 -72 71s31 71 72 71s71 -31 71 -71s-30 -71 -71 -71zM207 107h284v-107h-408v674h404v-107h-280v-167h250v-107h-250v-186z" />
    <glyph glyph-name="edotaccent" unicode="&#x117;" horiz-adv-x="528" 
d="M284 587c-41 0 -72 31 -72 71s31 71 72 71s71 -31 71 -71s-30 -71 -71 -71zM174 299h197c1 5 2 10 2 19c0 54 -31 99 -91 99c-59 0 -98 -44 -108 -118zM459 128v-103c-30 -20 -84 -33 -147 -33c-171 0 -266 100 -266 259c0 157 97 264 234 264c135 0 207 -83 207 -214
c0 -31 -3 -62 -8 -81h-304c12 -82 63 -129 148 -129c55 0 103 13 136 37z" />
    <glyph glyph-name="Eogonek" unicode="&#x118;" horiz-adv-x="533" 
d="M491 0h-43c-51 -32 -95 -74 -95 -115c0 -29 20 -44 54 -44c26 0 54 9 77 25v-86c-27 -13 -60 -20 -94 -20c-92 0 -135 52 -135 114c0 51 28 93 63 126h-235v674h404v-107h-280v-167h250v-107h-250v-186h284v-107z" />
    <glyph glyph-name="eogonek" unicode="&#x119;" horiz-adv-x="528" 
d="M174 299h197c1 5 2 10 2 19c0 54 -31 99 -91 99c-59 0 -98 -44 -108 -118zM444 -134v-86c-27 -13 -60 -20 -94 -20c-92 0 -135 52 -135 114c0 48 25 88 57 120c-146 15 -226 111 -226 257c0 157 97 264 234 264c135 0 207 -83 207 -214c0 -31 -3 -62 -8 -81h-304
c12 -82 63 -129 148 -129c55 0 103 13 136 37v-103c-11 -7 -25 -14 -41 -19c-55 -33 -105 -77 -105 -121c0 -29 20 -44 54 -44c26 0 54 9 77 25z" />
    <glyph glyph-name="Ecaron" unicode="&#x11a;" horiz-adv-x="533" 
d="M342 738h-106l-117 169h109l61 -96l61 96h109zM207 107h284v-107h-408v674h404v-107h-280v-167h250v-107h-250v-186z" />
    <glyph glyph-name="ecaron" unicode="&#x11b;" horiz-adv-x="528" 
d="M337 571h-106l-117 169h109l61 -96l61 96h109zM174 299h197c1 5 2 10 2 19c0 54 -31 99 -91 99c-59 0 -98 -44 -108 -118zM459 128v-103c-30 -20 -84 -33 -147 -33c-171 0 -266 100 -266 259c0 157 97 264 234 264c135 0 207 -83 207 -214c0 -31 -3 -62 -8 -81h-304
c12 -82 63 -129 148 -129c55 0 103 13 136 37z" />
    <glyph glyph-name="Gcircumflex" unicode="&#x11c;" horiz-adv-x="687" 
d="M374 834l-61 -96h-109l117 169h106l117 -169h-109zM626 360v-302c-55 -35 -133 -66 -235 -66c-209 0 -340 138 -340 346c0 207 138 344 348 344c80 0 139 -19 172 -41v-117c-48 33 -105 53 -174 53c-137 0 -217 -95 -217 -239c0 -149 84 -241 218 -241c36 0 71 6 103 17
v140h-123v106h248z" />
    <glyph glyph-name="gcircumflex" unicode="&#x11d;" horiz-adv-x="596" 
d="M281 667l-61 -96h-109l117 169h106l117 -169h-109zM288 114c68 0 110 53 110 149c0 95 -43 150 -113 150c-68 0 -113 -54 -113 -148c0 -97 46 -151 116 -151zM398 508h121v-476c0 -169 -112 -240 -255 -240c-70 0 -121 12 -173 34v109c48 -25 106 -45 171 -45
c93 0 136 52 136 150v50c-32 -50 -81 -78 -144 -78c-125 0 -208 94 -208 249c0 152 87 254 209 254c62 0 111 -24 143 -72v65z" />
    <glyph glyph-name="Gbreve" unicode="&#x11e;" horiz-adv-x="687" 
d="M434 907h88c0 -109 -58 -173 -155 -173s-154 64 -154 173h87c0 -61 22 -94 67 -94s67 33 67 94zM626 360v-302c-55 -35 -133 -66 -235 -66c-209 0 -340 138 -340 346c0 207 138 344 348 344c80 0 139 -19 172 -41v-117c-48 33 -105 53 -174 53c-137 0 -217 -95 -217 -239
c0 -149 84 -241 218 -241c36 0 71 6 103 17v140h-123v106h248z" />
    <glyph glyph-name="gbreve" unicode="&#x11f;" horiz-adv-x="596" 
d="M348 740h88c0 -109 -58 -173 -155 -173s-154 64 -154 173h87c0 -61 22 -94 67 -94s67 33 67 94zM288 114c68 0 110 53 110 149c0 95 -43 150 -113 150c-68 0 -113 -54 -113 -148c0 -97 46 -151 116 -151zM398 508h121v-476c0 -169 -112 -240 -255 -240
c-70 0 -121 12 -173 34v109c48 -25 106 -45 171 -45c93 0 136 52 136 150v50c-32 -50 -81 -78 -144 -78c-125 0 -208 94 -208 249c0 152 87 254 209 254c62 0 111 -24 143 -72v65z" />
    <glyph glyph-name="Gdotaccent" unicode="&#x120;" horiz-adv-x="687" 
d="M374 754c-41 0 -72 31 -72 71s31 71 72 71s71 -31 71 -71s-30 -71 -71 -71zM626 360v-302c-55 -35 -133 -66 -235 -66c-209 0 -340 138 -340 346c0 207 138 344 348 344c80 0 139 -19 172 -41v-117c-48 33 -105 53 -174 53c-137 0 -217 -95 -217 -239
c0 -149 84 -241 218 -241c36 0 71 6 103 17v140h-123v106h248z" />
    <glyph glyph-name="gdotaccent" unicode="&#x121;" horiz-adv-x="596" 
d="M281 587c-41 0 -72 31 -72 71s31 71 72 71s71 -31 71 -71s-30 -71 -71 -71zM288 114c68 0 110 53 110 149c0 95 -43 150 -113 150c-68 0 -113 -54 -113 -148c0 -97 46 -151 116 -151zM398 508h121v-476c0 -169 -112 -240 -255 -240c-70 0 -121 12 -173 34v109
c48 -25 106 -45 171 -45c93 0 136 52 136 150v50c-32 -50 -81 -78 -144 -78c-125 0 -208 94 -208 249c0 152 87 254 209 254c62 0 111 -24 143 -72v65z" />
    <glyph glyph-name="uni0122" unicode="&#x122;" horiz-adv-x="687" 
d="M244 -255l76 204h129l-115 -204h-90zM626 360v-302c-55 -35 -133 -66 -235 -66c-209 0 -340 138 -340 346c0 207 138 344 348 344c80 0 139 -19 172 -41v-117c-48 33 -105 53 -174 53c-137 0 -217 -95 -217 -239c0 -149 84 -241 218 -241c36 0 71 6 103 17v140h-123v106
h248z" />
    <glyph glyph-name="uni0123" unicode="&#x123;" horiz-adv-x="596" 
d="M406 775l-76 -204h-128l114 204h90zM288 114c68 0 110 53 110 149c0 95 -43 150 -113 150c-68 0 -113 -54 -113 -148c0 -97 46 -151 116 -151zM398 508h121v-476c0 -169 -112 -240 -255 -240c-70 0 -121 12 -173 34v109c48 -25 106 -45 171 -45c93 0 136 52 136 150v50
c-32 -50 -81 -78 -144 -78c-125 0 -208 94 -208 249c0 152 87 254 209 254c62 0 111 -24 143 -72v65z" />
    <glyph glyph-name="Hcircumflex" unicode="&#x124;" horiz-adv-x="702" 
d="M351 834l-61 -96h-109l117 169h106l117 -169h-109zM495 674h124v-674h-124v295h-288v-295h-124v674h124v-272h288v272z" />
    <glyph glyph-name="hcircumflex" unicode="&#x125;" horiz-adv-x="593" 
d="M254 848l-61 -96h-109l117 169h106l117 -169h-109zM198 707v-286c34 62 90 94 158 94c100 0 165 -63 165 -178v-337h-121v309c0 73 -32 108 -88 108c-61 0 -114 -54 -114 -152v-265h-120v707h120z" />
    <glyph glyph-name="Hbar" unicode="&#x126;" horiz-adv-x="702" 
d="M207 402h288v96h-288v-96zM495 674h124v-674h-124v295h-288v-295h-124v674h124v-92h288v92z" />
    <glyph glyph-name="hbar" unicode="&#x127;" horiz-adv-x="593" 
d="M198 560v-139c34 62 90 94 158 94c100 0 165 -63 165 -178v-337h-121v309c0 73 -32 108 -88 108c-61 0 -114 -54 -114 -152v-265h-120v560h-61v84h61v63h120v-63h124v-84h-124z" />
    <glyph glyph-name="Itilde" unicode="&#x128;" horiz-adv-x="289" 
d="M83 0v674h124v-674h-124zM264 874l64 -51c-25 -50 -67 -79 -117 -79c-58 0 -84 37 -124 37c-27 0 -49 -14 -68 -44l-56 54c24 49 63 78 109 78c62 0 84 -38 131 -38c27 0 49 17 61 43z" />
    <glyph glyph-name="itilde" unicode="&#x129;" 
d="M78 0v508h120v-508h-120zM257 707l64 -51c-25 -50 -67 -79 -117 -79c-58 0 -84 37 -124 37c-27 0 -49 -14 -68 -44l-56 54c24 49 63 78 109 78c62 0 84 -38 131 -38c27 0 49 17 61 43z" />
    <glyph glyph-name="Imacron" unicode="&#x12a;" horiz-adv-x="289" 
d="M83 0v674h124v-674h-124zM298 775h-306v84h306v-84z" />
    <glyph glyph-name="imacron" unicode="&#x12b;" 
d="M78 0v508h120v-508h-120zM291 608h-306v84h306v-84z" />
    <glyph glyph-name="Ibreve" unicode="&#x12c;" horiz-adv-x="289" 
d="M-9 907h87c0 -61 22 -94 67 -94s67 33 67 94h88c0 -109 -58 -173 -155 -173s-154 64 -154 173zM83 0v674h124v-674h-124z" />
    <glyph glyph-name="ibreve" unicode="&#x12d;" 
d="M-16 740h87c0 -61 22 -94 67 -94s67 33 67 94h88c0 -109 -58 -173 -155 -173s-154 64 -154 173zM78 0v508h120v-508h-120z" />
    <glyph glyph-name="Iogonek" unicode="&#x12e;" horiz-adv-x="289" 
d="M207 0h-48c-51 -32 -95 -74 -95 -115c0 -29 21 -44 55 -44c26 0 54 9 77 25v-86c-27 -13 -61 -20 -94 -20c-93 0 -136 52 -136 114c0 75 60 131 117 165v635h124v-674z" />
    <glyph glyph-name="iogonek" unicode="&#x12f;" 
d="M138 586c-40 0 -72 32 -72 73c0 40 32 72 72 72s72 -32 72 -72c0 -41 -32 -73 -72 -73zM78 36v472h120v-508h-39c-51 -32 -95 -74 -95 -115c0 -29 21 -44 55 -44c25 0 54 9 77 25v-86c-27 -13 -61 -20 -95 -20c-92 0 -135 52 -135 114c0 73 57 128 112 162z" />
    <glyph glyph-name="Idotaccent" unicode="&#x130;" horiz-adv-x="289" 
d="M83 0v674h124v-674h-124zM145 754c-41 0 -72 31 -72 71s31 71 72 71s71 -31 71 -71s-30 -71 -71 -71z" />
    <glyph glyph-name="dotlessi" unicode="&#x131;" 
d="M78 0v508h120v-508h-120z" />
    <glyph glyph-name="IJ" unicode="&#x132;" horiz-adv-x="679" 
d="M83 0v674h124v-674h-124zM319 12v107c21 -14 50 -22 79 -22c50 0 79 25 79 85v492h125v-487c0 -129 -70 -195 -188 -195c-35 0 -70 8 -95 20z" />
    <glyph glyph-name="ij" unicode="&#x133;" horiz-adv-x="551" 
d="M78 0v508h120v-508h-120zM138 586c-40 0 -72 32 -72 73c0 40 32 72 72 72s72 -32 72 -72c0 -41 -32 -73 -72 -73zM354 -32v540h120v-547c0 -97 -55 -160 -158 -160c-24 0 -50 4 -76 13v101c20 -12 42 -16 61 -16c31 0 53 19 53 69zM414 731c40 0 72 -32 72 -72
c0 -41 -32 -73 -72 -73s-72 32 -72 73c0 40 32 72 72 72z" />
    <glyph glyph-name="Jcircumflex" unicode="&#x134;" horiz-adv-x="390" 
d="M30 12v107c21 -14 50 -22 79 -22c50 0 79 25 79 85v492h125v-487c0 -129 -70 -195 -188 -195c-35 0 -70 8 -95 20zM193 907h106l117 -169h-109l-61 96l-61 -96h-109z" />
    <glyph glyph-name="jcircumflex" unicode="&#x135;" 
d="M81 740h106l117 -169h-109l-61 96l-61 -96h-109zM78 -32v540h120v-547c0 -97 -55 -160 -158 -160c-24 0 -50 4 -76 13v101c20 -12 42 -16 61 -16c31 0 53 19 53 69z" />
    <glyph glyph-name="uni0136" unicode="&#x136;" horiz-adv-x="640" 
d="M83 0v674h124v-674h-124zM221 -255l76 204h129l-115 -204h-90zM363 346l261 -346h-160l-245 334l236 340h139z" />
    <glyph glyph-name="uni0137" unicode="&#x137;" horiz-adv-x="534" 
d="M198 707v-707h-120v707h120zM168 -255l76 204h129l-115 -204h-90zM343 276l178 -276h-141l-169 266h-1l170 242h129z" />
    <glyph glyph-name="Lacute" unicode="&#x139;" horiz-adv-x="495" 
d="M314 907l-116 -169h-101l91 169h126zM207 107h265v-107h-389v674h124v-567z" />
    <glyph glyph-name="lacute" unicode="&#x13a;" 
d="M80 752l91 169h126l-116 -169h-101zM78 0v707h120v-707h-120z" />
    <glyph glyph-name="uni013B" unicode="&#x13b;" horiz-adv-x="495" 
d="M149 -255l76 204h129l-115 -204h-90zM207 107h265v-107h-389v674h124v-567z" />
    <glyph glyph-name="uni013C" unicode="&#x13c;" 
d="M1 -255l76 204h129l-115 -204h-90zM78 0v707h120v-707h-120z" />
    <glyph glyph-name="Lcaron" unicode="&#x13d;" horiz-adv-x="495" 
d="M471 707l-114 -204h-90l76 204h128zM207 107h265v-107h-389v674h124v-567z" />
    <glyph glyph-name="lcaron" unicode="&#x13e;" horiz-adv-x="385" 
d="M226 503l76 204h129l-115 -204h-90zM78 0v707h120v-707h-120z" />
    <glyph glyph-name="Ldot" unicode="&#x13f;" horiz-adv-x="495" 
d="M393 270c-43 0 -78 35 -78 78s35 77 78 77s77 -34 77 -77s-34 -78 -77 -78zM207 107h265v-107h-389v674h124v-567z" />
    <glyph glyph-name="ldot" unicode="&#x140;" horiz-adv-x="346" 
d="M78 0v707h120v-707h-120zM311 256c-43 0 -77 35 -77 78s34 77 77 77s78 -34 78 -77s-35 -78 -78 -78z" />
    <glyph glyph-name="Lslash" unicode="&#x141;" horiz-adv-x="495" 
d="M207 107h265v-107h-389v230l-72 -45v107l72 45v337h124v-258l140 88v-107l-140 -88v-202z" />
    <glyph glyph-name="lslash" unicode="&#x142;" 
d="M269 490v-103l-71 -48v-339h-120v258l-72 -48v103l72 48v346h120v-265z" />
    <glyph glyph-name="Nacute" unicode="&#x143;" horiz-adv-x="701" 
d="M283 738l91 169h126l-116 -169h-101zM83 0v674h150l152 -281c80 -145 105 -214 117 -245c-3 31 -8 105 -8 245v281h125v-674h-151l-155 280c-78 142 -107 219 -117 249c3 -30 11 -109 11 -248v-281h-124z" />
    <glyph glyph-name="nacute" unicode="&#x144;" horiz-adv-x="593" 
d="M446 740l-116 -169h-101l91 169h126zM198 508v-87c34 62 90 94 158 94c100 0 165 -63 165 -178v-337h-121v309c0 73 -32 108 -88 108c-61 0 -114 -54 -114 -152v-265h-120v508h120z" />
    <glyph glyph-name="uni0145" unicode="&#x145;" horiz-adv-x="701" 
d="M215 -255l76 204h129l-115 -204h-90zM83 0v674h150l152 -281c80 -145 105 -214 117 -245c-3 31 -8 105 -8 245v281h125v-674h-151l-155 280c-78 142 -107 219 -117 249c3 -30 11 -109 11 -248v-281h-124z" />
    <glyph glyph-name="uni0146" unicode="&#x146;" horiz-adv-x="593" 
d="M168 -255l76 204h129l-115 -204h-90zM198 508v-87c34 62 90 94 158 94c100 0 165 -63 165 -178v-337h-121v309c0 73 -32 108 -88 108c-61 0 -114 -54 -114 -152v-265h-120v508h120z" />
    <glyph glyph-name="Ncaron" unicode="&#x147;" horiz-adv-x="701" 
d="M83 0v674h150l152 -281c80 -145 105 -214 117 -245c-3 31 -8 105 -8 245v281h125v-674h-151l-155 280c-78 142 -107 219 -117 249c3 -30 11 -109 11 -248v-281h-124zM521 907l-117 -169h-106l-117 169h109l61 -96l61 96h109z" />
    <glyph glyph-name="ncaron" unicode="&#x148;" horiz-adv-x="593" 
d="M350 571h-106l-117 169h109l61 -96l61 96h109zM198 508v-87c34 62 90 94 158 94c100 0 165 -63 165 -178v-337h-121v309c0 73 -32 108 -88 108c-61 0 -114 -54 -114 -152v-265h-120v508h120z" />
    <glyph glyph-name="Omacron" unicode="&#x14c;" horiz-adv-x="718" 
d="M512 775h-306v84h306v-84zM667 338c0 -217 -115 -346 -308 -346c-194 0 -308 128 -308 346c0 216 115 344 308 344c194 0 308 -127 308 -344zM538 338c0 150 -67 239 -179 239s-179 -89 -179 -239c0 -151 67 -241 179 -241s179 90 179 241z" />
    <glyph glyph-name="omacron" unicode="&#x14d;" horiz-adv-x="579" 
d="M443 608h-306v84h306v-84zM46 250c0 158 97 265 245 265c150 0 242 -97 242 -259c0 -157 -96 -264 -243 -264c-152 0 -244 97 -244 258zM408 252c0 103 -46 165 -119 165c-72 0 -117 -61 -117 -163c0 -101 46 -164 120 -164c72 0 116 62 116 162z" />
    <glyph glyph-name="Obreve" unicode="&#x14e;" horiz-adv-x="718" 
d="M205 907h87c0 -61 22 -94 67 -94s67 33 67 94h88c0 -109 -58 -173 -155 -173s-154 64 -154 173zM538 338c0 150 -67 239 -179 239s-179 -89 -179 -239c0 -151 67 -241 179 -241s179 90 179 241zM667 338c0 -217 -115 -346 -308 -346c-194 0 -308 128 -308 346
c0 216 115 344 308 344c194 0 308 -127 308 -344z" />
    <glyph glyph-name="obreve" unicode="&#x14f;" horiz-adv-x="579" 
d="M136 740h87c0 -61 22 -94 67 -94s67 33 67 94h88c0 -109 -58 -173 -155 -173s-154 64 -154 173zM408 252c0 103 -46 165 -119 165c-72 0 -117 -61 -117 -163c0 -101 46 -164 120 -164c72 0 116 62 116 162zM46 250c0 158 97 265 245 265c150 0 242 -97 242 -259
c0 -157 -96 -264 -243 -264c-152 0 -244 97 -244 258z" />
    <glyph glyph-name="Ohungarumlaut" unicode="&#x150;" horiz-adv-x="718" 
d="M215 738l88 169h117l-120 -169h-85zM397 738l89 169h117l-120 -169h-86zM667 338c0 -217 -115 -346 -308 -346c-194 0 -308 128 -308 346c0 216 115 344 308 344c194 0 308 -127 308 -344zM538 338c0 150 -67 239 -179 239s-179 -89 -179 -239c0 -151 67 -241 179 -241
s179 90 179 241z" />
    <glyph glyph-name="ohungarumlaut" unicode="&#x151;" horiz-adv-x="579" 
d="M146 571l88 169h117l-120 -169h-85zM328 571l89 169h117l-120 -169h-86zM46 250c0 158 97 265 245 265c150 0 242 -97 242 -259c0 -157 -96 -264 -243 -264c-152 0 -244 97 -244 258zM408 252c0 103 -46 165 -119 165c-72 0 -117 -61 -117 -163c0 -101 46 -164 120 -164
c72 0 116 62 116 162z" />
    <glyph glyph-name="OE" unicode="&#x152;" horiz-adv-x="988" 
d="M359 97c112 0 179 90 179 241c0 150 -67 239 -179 239s-179 -89 -179 -239c0 -151 67 -241 179 -241zM662 107h285v-107h-409v61c-45 -45 -106 -69 -179 -69c-194 0 -308 128 -308 346c0 216 115 344 308 344c73 0 134 -24 179 -68v60h404v-107h-280v-167h250v-107h-250
v-186z" />
    <glyph glyph-name="oe" unicode="&#x153;" horiz-adv-x="890" 
d="M535 299h198c1 5 1 10 1 19c0 54 -30 99 -91 99c-58 0 -98 -44 -108 -118zM292 90c72 0 116 62 116 162c0 103 -46 165 -119 165c-72 0 -117 -61 -117 -163c0 -101 46 -164 120 -164zM821 128v-103c-30 -20 -84 -33 -147 -33c-94 0 -163 34 -204 94
c-40 -59 -102 -94 -180 -94c-152 0 -244 97 -244 258c0 158 97 265 245 265c81 0 143 -32 182 -91c38 57 98 91 169 91c135 0 207 -83 207 -214c0 -31 -3 -62 -8 -81h-305c12 -82 64 -129 149 -129c54 0 103 13 136 37z" />
    <glyph glyph-name="Racute" unicode="&#x154;" horiz-adv-x="601" 
d="M435 907l-116 -169h-101l91 169h126zM207 568v-212h73c82 0 131 40 131 109c0 65 -49 103 -131 103h-73zM576 0h-152l-155 249h-11h-51v-249h-124v674h190c167 0 266 -77 266 -209c0 -93 -49 -161 -140 -194z" />
    <glyph glyph-name="racute" unicode="&#x155;" horiz-adv-x="373" 
d="M341 740l-116 -169h-101l91 169h126zM198 508v-85c27 60 71 92 129 92c14 0 24 -2 33 -5v-117c-14 5 -28 7 -47 7c-70 0 -115 -55 -115 -145v-255h-120v508h120z" />
    <glyph glyph-name="uni0156" unicode="&#x156;" horiz-adv-x="601" 
d="M182 -255l76 204h129l-115 -204h-90zM207 568v-212h73c82 0 131 40 131 109c0 65 -49 103 -131 103h-73zM399 271l177 -271h-152l-155 249h-11h-51v-249h-124v674h190c167 0 266 -77 266 -209c0 -93 -49 -161 -140 -194z" />
    <glyph glyph-name="uni0157" unicode="&#x157;" horiz-adv-x="373" 
d="M34 -255l76 204h129l-115 -204h-90zM198 508v-85c27 60 71 92 129 92c14 0 24 -2 33 -5v-117c-14 5 -28 7 -47 7c-70 0 -115 -55 -115 -145v-255h-120v508h120z" />
    <glyph glyph-name="Rcaron" unicode="&#x158;" horiz-adv-x="601" 
d="M339 738h-106l-117 169h109l61 -96l61 96h109zM207 568v-212h73c82 0 131 40 131 109c0 65 -49 103 -131 103h-73zM576 0h-152l-155 249h-11h-51v-249h-124v674h190c167 0 266 -77 266 -209c0 -93 -49 -161 -140 -194z" />
    <glyph glyph-name="rcaron" unicode="&#x159;" horiz-adv-x="373" 
d="M245 571h-106l-117 169h109l61 -96l61 96h109zM198 508v-85c27 60 71 92 129 92c14 0 24 -2 33 -5v-117c-14 5 -28 7 -47 7c-70 0 -115 -55 -115 -145v-255h-120v508h120z" />
    <glyph glyph-name="Sacute" unicode="&#x15a;" horiz-adv-x="510" 
d="M187 738l91 169h126l-116 -169h-101zM437 649v-117c-45 26 -101 45 -164 45c-66 0 -103 -28 -103 -73c0 -42 28 -70 120 -107c112 -44 184 -93 184 -207c0 -120 -97 -198 -236 -198c-80 0 -141 17 -190 45v120c54 -39 116 -60 182 -60c71 0 115 34 115 87
c0 50 -36 79 -136 119c-110 43 -168 99 -168 193c0 108 96 186 236 186c66 0 111 -9 160 -33z" />
    <glyph glyph-name="sacute" unicode="&#x15b;" horiz-adv-x="432" 
d="M140 571l91 169h126l-116 -169h-101zM360 494v-106c-30 17 -74 29 -122 29s-73 -15 -73 -44c0 -27 22 -42 80 -64c101 -36 146 -83 146 -162c0 -97 -78 -155 -199 -155c-54 0 -115 14 -149 31v110c35 -23 96 -43 146 -43c52 0 78 20 78 51c0 33 -27 52 -84 73
c-94 34 -142 77 -142 151c0 96 86 150 191 150c55 0 96 -8 128 -21z" />
    <glyph glyph-name="Scircumflex" unicode="&#x15c;" horiz-adv-x="510" 
d="M437 649v-117c-45 26 -101 45 -164 45c-66 0 -103 -28 -103 -73c0 -42 28 -70 120 -107c112 -44 184 -93 184 -207c0 -120 -97 -198 -236 -198c-80 0 -141 17 -190 45v120c54 -39 116 -60 182 -60c71 0 115 34 115 87c0 50 -36 79 -136 119c-110 43 -168 99 -168 193
c0 108 96 186 236 186c66 0 111 -9 160 -33zM202 907h106l117 -169h-109l-61 96l-61 -96h-109z" />
    <glyph glyph-name="scircumflex" unicode="&#x15d;" horiz-adv-x="432" 
d="M360 494v-106c-30 17 -74 29 -122 29s-73 -15 -73 -44c0 -27 22 -42 80 -64c101 -36 146 -83 146 -162c0 -97 -78 -155 -199 -155c-54 0 -115 14 -149 31v110c35 -23 96 -43 146 -43c52 0 78 20 78 51c0 33 -27 52 -84 73c-94 34 -142 77 -142 151c0 96 86 150 191 150
c55 0 96 -8 128 -21zM155 740h106l117 -169h-109l-61 96l-61 -96h-109z" />
    <glyph glyph-name="uni015E" unicode="&#x15e;" horiz-adv-x="510" 
d="M437 649v-117c-45 26 -101 45 -164 45c-66 0 -103 -28 -103 -73c0 -42 28 -70 120 -107c112 -44 184 -93 184 -207c0 -120 -97 -198 -236 -198c-80 0 -141 17 -190 45v120c54 -39 116 -60 182 -60c71 0 115 34 115 87c0 50 -36 79 -136 119c-110 43 -168 99 -168 193
c0 108 96 186 236 186c66 0 111 -9 160 -33zM302 -51c12 -18 17 -48 17 -73c0 -74 -52 -137 -168 -138v78c51 2 79 27 79 67c0 27 -13 48 -26 66h98z" />
    <glyph glyph-name="uni015F" unicode="&#x15f;" horiz-adv-x="432" 
d="M360 494v-106c-30 17 -74 29 -122 29s-73 -15 -73 -44c0 -27 22 -42 80 -64c101 -36 146 -83 146 -162c0 -97 -78 -155 -199 -155c-54 0 -115 14 -149 31v110c35 -23 96 -43 146 -43c52 0 78 20 78 51c0 33 -27 52 -84 73c-94 34 -142 77 -142 151c0 96 86 150 191 150
c55 0 96 -8 128 -21zM257 -51c11 -18 17 -48 17 -73c0 -74 -53 -137 -168 -138v78c51 2 78 27 78 67c0 27 -13 48 -25 66h98z" />
    <glyph glyph-name="Scaron" unicode="&#x160;" horiz-adv-x="510" 
d="M437 649v-117c-45 26 -101 45 -164 45c-66 0 -103 -28 -103 -73c0 -42 28 -70 120 -107c112 -44 184 -93 184 -207c0 -120 -97 -198 -236 -198c-80 0 -141 17 -190 45v120c54 -39 116 -60 182 -60c71 0 115 34 115 87c0 50 -36 79 -136 119c-110 43 -168 99 -168 193
c0 108 96 186 236 186c66 0 111 -9 160 -33zM425 907l-117 -169h-106l-117 169h109l61 -96l61 96h109z" />
    <glyph glyph-name="scaron" unicode="&#x161;" horiz-adv-x="432" 
d="M360 494v-106c-30 17 -74 29 -122 29s-73 -15 -73 -44c0 -27 22 -42 80 -64c101 -36 146 -83 146 -162c0 -97 -78 -155 -199 -155c-54 0 -115 14 -149 31v110c35 -23 96 -43 146 -43c52 0 78 20 78 51c0 33 -27 52 -84 73c-94 34 -142 77 -142 151c0 96 86 150 191 150
c55 0 96 -8 128 -21zM378 740l-117 -169h-106l-117 169h109l61 -96l61 96h109z" />
    <glyph glyph-name="uni0162" unicode="&#x162;" horiz-adv-x="535" 
d="M222 -51h97c12 -18 18 -48 18 -73c0 -74 -53 -137 -169 -138v78c52 2 79 27 79 67c0 27 -13 48 -25 66zM22 674h491v-107h-183v-567h-124v567h-184v107z" />
    <glyph glyph-name="uni0163" unicode="&#x163;" horiz-adv-x="375" 
d="M180 -51h97c12 -18 18 -48 18 -73c0 -74 -53 -137 -169 -138v78c52 2 79 27 79 67c0 27 -13 48 -25 66zM354 417h-134v-253c0 -48 24 -74 64 -74c26 0 50 7 70 22v-101c-22 -12 -53 -19 -91 -19c-111 0 -163 60 -163 166v259h-68v91h68v110h120v-110h134v-91z" />
    <glyph glyph-name="Tcaron" unicode="&#x164;" horiz-adv-x="535" 
d="M320 738h-106l-117 169h109l61 -96l61 96h109zM513 674v-107h-183v-567h-124v567h-184v107h491z" />
    <glyph glyph-name="tcaron" unicode="&#x165;" horiz-adv-x="375" 
d="M447 768l-114 -204h-90l76 204h128zM220 618v-110h134v-91h-134v-253c0 -48 24 -74 64 -74c26 0 50 7 70 22v-101c-22 -12 -53 -19 -91 -19c-111 0 -163 60 -163 166v259h-68v91h68v110h120z" />
    <glyph glyph-name="Tbar" unicode="&#x166;" horiz-adv-x="535" 
d="M513 567h-183v-195h90v-84h-90v-288h-124v288h-91v84h91v195h-184v107h491v-107z" />
    <glyph glyph-name="tbar" unicode="&#x167;" horiz-adv-x="375" 
d="M354 417h-134v-110h125v-84h-125v-59c0 -48 24 -74 64 -74c26 0 50 7 70 22v-101c-22 -12 -53 -19 -91 -19c-111 0 -163 60 -163 166v65h-67v84h67v110h-68v91h68v110h120v-110h134v-91z" />
    <glyph glyph-name="Utilde" unicode="&#x168;" horiz-adv-x="675" 
d="M474 256v418h124v-411c0 -172 -97 -271 -261 -271c-163 0 -259 97 -259 263v419h124v-420c0 -102 53 -157 135 -157c84 0 137 55 137 159zM457 874l64 -51c-25 -50 -67 -79 -117 -79c-58 0 -84 37 -124 37c-27 0 -49 -14 -68 -44l-56 54c24 49 63 78 109 78
c62 0 84 -38 131 -38c27 0 49 17 61 43z" />
    <glyph glyph-name="utilde" unicode="&#x169;" horiz-adv-x="583" 
d="M411 707l64 -51c-25 -50 -67 -79 -117 -79c-58 0 -84 37 -124 37c-27 0 -49 -14 -68 -44l-56 54c24 49 63 78 109 78c62 0 84 -38 131 -38c27 0 49 17 61 43zM385 508h121v-508h-121v84c-33 -60 -87 -92 -153 -92c-96 0 -159 63 -159 178v338h120v-310
c0 -73 31 -108 84 -108c58 0 108 54 108 152v266z" />
    <glyph glyph-name="Umacron" unicode="&#x16a;" horiz-adv-x="675" 
d="M474 256v418h124v-411c0 -172 -97 -271 -261 -271c-163 0 -259 97 -259 263v419h124v-420c0 -102 53 -157 135 -157c84 0 137 55 137 159zM491 775h-306v84h306v-84z" />
    <glyph glyph-name="umacron" unicode="&#x16b;" horiz-adv-x="583" 
d="M445 692v-84h-306v84h306zM385 508h121v-508h-121v84c-33 -60 -87 -92 -153 -92c-96 0 -159 63 -159 178v338h120v-310c0 -73 31 -108 84 -108c58 0 108 54 108 152v266z" />
    <glyph glyph-name="Ubreve" unicode="&#x16c;" horiz-adv-x="675" 
d="M184 907h87c0 -61 22 -94 67 -94s67 33 67 94h88c0 -109 -58 -173 -155 -173s-154 64 -154 173zM474 256v418h124v-411c0 -172 -97 -271 -261 -271c-163 0 -259 97 -259 263v419h124v-420c0 -102 53 -157 135 -157c84 0 137 55 137 159z" />
    <glyph glyph-name="ubreve" unicode="&#x16d;" horiz-adv-x="583" 
d="M359 740h88c0 -109 -58 -173 -155 -173s-154 64 -154 173h87c0 -61 22 -94 67 -94s67 33 67 94zM385 508h121v-508h-121v84c-33 -60 -87 -92 -153 -92c-96 0 -159 63 -159 178v338h120v-310c0 -73 31 -108 84 -108c58 0 108 54 108 152v266z" />
    <glyph glyph-name="Uring" unicode="&#x16e;" horiz-adv-x="675" 
d="M338 719c-69 0 -125 56 -125 125s56 124 125 124s125 -55 125 -124s-56 -125 -125 -125zM338 901c-31 0 -53 -26 -53 -55s22 -55 53 -55s53 26 53 55s-22 55 -53 55zM474 256v418h124v-411c0 -172 -97 -271 -261 -271c-163 0 -259 97 -259 263v419h124v-420
c0 -102 53 -157 135 -157c84 0 137 55 137 159z" />
    <glyph glyph-name="uring" unicode="&#x16f;" horiz-adv-x="583" 
d="M292 734c-31 0 -53 -26 -53 -55s22 -55 53 -55s53 26 53 55s-22 55 -53 55zM292 552c-69 0 -125 56 -125 125s56 124 125 124s125 -55 125 -124s-56 -125 -125 -125zM385 508h121v-508h-121v84c-33 -60 -87 -92 -153 -92c-96 0 -159 63 -159 178v338h120v-310
c0 -73 31 -108 84 -108c58 0 108 54 108 152v266z" />
    <glyph glyph-name="Uhungarumlaut" unicode="&#x170;" horiz-adv-x="675" 
d="M474 256v418h124v-411c0 -172 -97 -271 -261 -271c-163 0 -259 97 -259 263v419h124v-420c0 -102 53 -157 135 -157c84 0 137 55 137 159zM194 738l88 169h117l-120 -169h-85zM376 738l89 169h117l-120 -169h-86z" />
    <glyph glyph-name="uhungarumlaut" unicode="&#x171;" horiz-adv-x="583" 
d="M416 571h-86l89 169h117zM353 740l-120 -169h-85l88 169h117zM385 242v266h121v-508h-121v84c-33 -60 -87 -92 -153 -92c-96 0 -159 63 -159 178v338h120v-310c0 -73 31 -108 84 -108c58 0 108 54 108 152z" />
    <glyph glyph-name="Uogonek" unicode="&#x172;" horiz-adv-x="675" 
d="M474 674h124v-411c0 -132 -57 -221 -158 -255c-56 -34 -106 -78 -106 -123c0 -29 20 -44 54 -44c26 0 54 9 77 25v-86c-27 -13 -61 -20 -94 -20c-92 0 -135 52 -135 114c0 48 25 89 57 120c-136 17 -215 110 -215 261v419h124v-420c0 -102 53 -157 135 -157
c84 0 137 55 137 159v418z" />
    <glyph glyph-name="uogonek" unicode="&#x173;" horiz-adv-x="583" 
d="M506 0h-25c-51 -32 -94 -74 -94 -115c0 -29 20 -44 54 -44c26 0 54 9 77 25v-86c-27 -13 -60 -20 -94 -20c-92 0 -135 52 -135 114c0 66 46 117 96 152v58c-33 -60 -87 -92 -153 -92c-96 0 -159 63 -159 178v338h120v-310c0 -73 31 -108 84 -108c58 0 108 54 108 152v266
h121v-508z" />
    <glyph glyph-name="Wcircumflex" unicode="&#x174;" horiz-adv-x="1023" 
d="M443 659h142l65 -234c51 -181 72 -273 79 -311c6 38 23 131 65 312l57 248h129l-168 -674h-167l-57 216c-52 191 -75 290 -80 323c-6 -33 -29 -136 -80 -322l-59 -217h-156l-170 674h133l58 -249c38 -161 62 -274 68 -311c7 37 37 150 79 311zM458 907h106l117 -169h-109
l-61 96l-61 -96h-109z" />
    <glyph glyph-name="wcircumflex" unicode="&#x175;" horiz-adv-x="819" 
d="M170 0l-147 508h125l45 -168c43 -162 51 -222 55 -247c5 25 12 85 59 247l49 168h124l48 -168c48 -168 53 -222 58 -247c4 25 8 81 51 247l41 168h119l-147 -508h-141l-45 166c-40 145 -49 215 -53 240c-4 -25 -14 -95 -53 -240l-45 -166h-143zM357 740h106l117 -169
h-109l-61 96l-61 -96h-109z" />
    <glyph glyph-name="Ycircumflex" unicode="&#x176;" horiz-adv-x="630" 
d="M315 834l-61 -96h-109l117 169h106l117 -169h-109zM604 674l-226 -432v-242h-126v240l-226 434h144l50 -98c74 -142 92 -189 101 -217c8 28 27 77 96 217l47 98h140z" />
    <glyph glyph-name="ycircumflex" unicode="&#x177;" horiz-adv-x="528" 
d="M218 740h106l117 -169h-109l-61 96l-61 -96h-109zM211 10l-195 498h132l58 -163c54 -148 63 -188 66 -195c2 7 14 46 63 195l54 163h125l-188 -506c-55 -148 -129 -210 -228 -210c-22 0 -37 2 -55 6v98c12 -3 25 -6 41 -6c54 0 90 32 117 94z" />
    <glyph glyph-name="Ydieresis" unicode="&#x178;" horiz-adv-x="630" 
d="M419 753c-40 0 -70 31 -70 69c0 39 30 69 70 69s70 -30 70 -69c0 -38 -30 -69 -70 -69zM211 753c-41 0 -70 31 -70 69c0 39 29 69 70 69c39 0 69 -30 69 -69c0 -38 -30 -69 -69 -69zM604 674l-226 -432v-242h-126v240l-226 434h144l50 -98c74 -142 92 -189 101 -217
c8 28 27 77 96 217l47 98h140z" />
    <glyph glyph-name="Zacute" unicode="&#x179;" horiz-adv-x="563" 
d="M214 738l91 169h126l-116 -169h-101zM515 674v-94l-325 -473h335v-107h-487v97l324 470h-312v107h465z" />
    <glyph glyph-name="zacute" unicode="&#x17a;" horiz-adv-x="479" 
d="M172 571l91 169h126l-116 -169h-101zM429 508v-80l-251 -337h261v-91h-399v83l250 334h-238v91h377z" />
    <glyph glyph-name="Zdotaccent" unicode="&#x17b;" horiz-adv-x="563" 
d="M515 674v-94l-325 -473h335v-107h-487v97l324 470h-312v107h465zM282 754c-41 0 -72 31 -72 71s31 71 72 71s71 -31 71 -71s-30 -71 -71 -71z" />
    <glyph glyph-name="zdotaccent" unicode="&#x17c;" horiz-adv-x="479" 
d="M429 508v-80l-251 -337h261v-91h-399v83l250 334h-238v91h377zM240 587c-41 0 -72 31 -72 71s31 71 72 71s71 -31 71 -71s-30 -71 -71 -71z" />
    <glyph glyph-name="Zcaron" unicode="&#x17d;" horiz-adv-x="563" 
d="M515 674v-94l-325 -473h335v-107h-487v97l324 470h-312v107h465zM452 907l-117 -169h-106l-117 169h109l61 -96l61 96h109z" />
    <glyph glyph-name="zcaron" unicode="&#x17e;" horiz-adv-x="479" 
d="M429 508v-80l-251 -337h261v-91h-399v83l250 334h-238v91h377zM409 740l-117 -169h-106l-117 169h109l61 -96l61 96h109z" />
    <glyph glyph-name="florin" unicode="&#x192;" horiz-adv-x="473" 
d="M179 380l16 97c21 129 78 205 189 205c23 0 55 -2 78 -10v-100c-17 6 -39 10 -57 10c-53 0 -78 -41 -90 -114l-15 -88h97v-90h-112l-52 -313c-21 -127 -76 -200 -188 -200c-31 0 -66 5 -85 13v101c20 -10 42 -14 67 -14c53 0 74 34 87 109l50 304h-90v90h105z" />
    <glyph glyph-name="uni0218" unicode="&#x218;" horiz-adv-x="510" 
d="M133 -255l76 204h129l-115 -204h-90zM437 649v-117c-45 26 -101 45 -164 45c-66 0 -103 -28 -103 -73c0 -42 28 -70 120 -107c112 -44 184 -93 184 -207c0 -120 -97 -198 -236 -198c-80 0 -141 17 -190 45v120c54 -39 116 -60 182 -60c71 0 115 34 115 87
c0 50 -36 79 -136 119c-110 43 -168 99 -168 193c0 108 96 186 236 186c66 0 111 -9 160 -33z" />
    <glyph glyph-name="uni0219" unicode="&#x219;" horiz-adv-x="432" 
d="M86 -255l76 204h129l-115 -204h-90zM360 494v-106c-30 17 -74 29 -122 29s-73 -15 -73 -44c0 -27 22 -42 80 -64c101 -36 146 -83 146 -162c0 -97 -78 -155 -199 -155c-54 0 -115 14 -149 31v110c35 -23 96 -43 146 -43c52 0 78 20 78 51c0 33 -27 52 -84 73
c-94 34 -142 77 -142 151c0 96 86 150 191 150c55 0 96 -8 128 -21z" />
    <glyph glyph-name="uni021A" unicode="&#x21a;" horiz-adv-x="535" 
d="M132 -255l76 204h129l-115 -204h-90zM22 674h491v-107h-183v-567h-124v567h-184v107z" />
    <glyph glyph-name="uni021B" unicode="&#x21b;" horiz-adv-x="375" 
d="M89 -255l76 204h129l-115 -204h-90zM354 417h-134v-253c0 -48 24 -74 64 -74c26 0 50 7 70 22v-101c-22 -12 -53 -19 -91 -19c-111 0 -163 60 -163 166v259h-68v91h68v110h120v-110h134v-91z" />
    <glyph glyph-name="uni0237" unicode="&#x237;" 
d="M78 -32v540h120v-547c0 -97 -55 -160 -158 -160c-24 0 -50 4 -76 13v101c20 -12 42 -16 61 -16c31 0 53 19 53 69z" />
    <glyph glyph-name="circumflex" unicode="&#x2c6;" horiz-adv-x="470" 
d="M182 740h106l117 -169h-109l-61 96l-61 -96h-109z" />
    <glyph glyph-name="caron" unicode="&#x2c7;" horiz-adv-x="470" 
d="M405 740l-117 -169h-106l-117 169h109l61 -96l61 96h109z" />
    <glyph glyph-name="breve" unicode="&#x2d8;" horiz-adv-x="470" 
d="M81 740h87c0 -61 22 -94 67 -94s67 33 67 94h88c0 -109 -58 -173 -155 -173s-154 64 -154 173z" />
    <glyph glyph-name="dotaccent" unicode="&#x2d9;" horiz-adv-x="470" 
d="M235 587c-41 0 -72 31 -72 71s31 71 72 71s71 -31 71 -71s-30 -71 -71 -71z" />
    <glyph glyph-name="ring" unicode="&#x2da;" horiz-adv-x="470" 
d="M235 552c-69 0 -125 56 -125 125s56 124 125 124s125 -55 125 -124s-56 -125 -125 -125zM235 734c-31 0 -53 -26 -53 -55s22 -55 53 -55s53 26 53 55s-22 55 -53 55z" />
    <glyph glyph-name="ogonek" unicode="&#x2db;" horiz-adv-x="470" 
d="M350 -134v-86c-27 -13 -61 -20 -94 -20c-93 0 -136 52 -136 114c0 101 110 168 172 193l42 -54c-59 -34 -116 -81 -116 -128c0 -29 21 -44 55 -44c26 0 54 9 77 25z" />
    <glyph glyph-name="tilde" unicode="&#x2dc;" horiz-adv-x="470" 
d="M354 707l64 -51c-25 -50 -67 -79 -117 -79c-58 0 -84 37 -124 37c-27 0 -49 -14 -68 -44l-56 54c24 49 63 78 109 78c62 0 84 -38 131 -38c27 0 49 17 61 43z" />
    <glyph glyph-name="hungarumlaut" unicode="&#x2dd;" horiz-adv-x="470" 
d="M91 571l88 169h117l-120 -169h-85zM273 571l89 169h117l-120 -169h-86z" />
    <glyph glyph-name="uni0326" unicode="&#x326;" horiz-adv-x="458" 
d="M130 -255l76 204h129l-115 -204h-90z" />
    <glyph glyph-name="pi" unicode="&#x3c0;" horiz-adv-x="597" 
d="M584 507v-90h-86v-417h-120v417h-150v-220c0 -152 -64 -197 -188 -197v100c48 0 68 15 68 86v231h-86v90h562z" />
    <glyph glyph-name="Wgrave" unicode="&#x1e80;" horiz-adv-x="1023" 
d="M489 907l91 -169h-101l-116 169h126zM443 659h142l65 -234c51 -181 72 -273 79 -311c6 38 23 131 65 312l57 248h129l-168 -674h-167l-57 216c-52 191 -75 290 -80 323c-6 -33 -29 -136 -80 -322l-59 -217h-156l-170 674h133l58 -249c38 -161 62 -274 68 -311
c7 37 37 150 79 311z" />
    <glyph glyph-name="wgrave" unicode="&#x1e81;" horiz-adv-x="819" 
d="M388 740l91 -169h-101l-116 169h126zM170 0l-147 508h125l45 -168c43 -162 51 -222 55 -247c5 25 12 85 59 247l49 168h124l48 -168c48 -168 53 -222 58 -247c4 25 8 81 51 247l41 168h119l-147 -508h-141l-45 166c-40 145 -49 215 -53 240c-4 -25 -14 -95 -53 -240
l-45 -166h-143z" />
    <glyph glyph-name="Wacute" unicode="&#x1e82;" horiz-adv-x="1023" 
d="M443 659h142l65 -234c51 -181 72 -273 79 -311c6 38 23 131 65 312l57 248h129l-168 -674h-167l-57 216c-52 191 -75 290 -80 323c-6 -33 -29 -136 -80 -322l-59 -217h-156l-170 674h133l58 -249c38 -161 62 -274 68 -311c7 37 37 150 79 311zM443 738l91 169h126
l-116 -169h-101z" />
    <glyph glyph-name="wacute" unicode="&#x1e83;" horiz-adv-x="819" 
d="M170 0l-147 508h125l45 -168c43 -162 51 -222 55 -247c5 25 12 85 59 247l49 168h124l48 -168c48 -168 53 -222 58 -247c4 25 8 81 51 247l41 168h119l-147 -508h-141l-45 166c-40 145 -49 215 -53 240c-4 -25 -14 -95 -53 -240l-45 -166h-143zM342 571l91 169h126
l-116 -169h-101z" />
    <glyph glyph-name="Wdieresis" unicode="&#x1e84;" horiz-adv-x="1023" 
d="M443 659h142l65 -234c51 -181 72 -273 79 -311c6 38 23 131 65 312l57 248h129l-168 -674h-167l-57 216c-52 191 -75 290 -80 323c-6 -33 -29 -136 -80 -322l-59 -217h-156l-170 674h133l58 -249c38 -161 62 -274 68 -311c7 37 37 150 79 311zM615 753
c-40 0 -70 31 -70 69c0 39 30 69 70 69s70 -30 70 -69c0 -38 -30 -69 -70 -69zM407 753c-41 0 -70 31 -70 69c0 39 29 69 70 69c39 0 69 -30 69 -69c0 -38 -30 -69 -69 -69z" />
    <glyph glyph-name="wdieresis" unicode="&#x1e85;" horiz-adv-x="819" 
d="M170 0l-147 508h125l45 -168c43 -162 51 -222 55 -247c5 25 12 85 59 247l49 168h124l48 -168c48 -168 53 -222 58 -247c4 25 8 81 51 247l41 168h119l-147 -508h-141l-45 166c-40 145 -49 215 -53 240c-4 -25 -14 -95 -53 -240l-45 -166h-143zM514 586
c-40 0 -70 31 -70 69c0 39 30 69 70 69s70 -30 70 -69c0 -38 -30 -69 -70 -69zM306 586c-41 0 -70 31 -70 69c0 39 29 69 70 69c39 0 69 -30 69 -69c0 -38 -30 -69 -69 -69z" />
    <glyph glyph-name="Ygrave" unicode="&#x1ef2;" horiz-adv-x="630" 
d="M384 738h-101l-116 169h126zM604 674l-226 -432v-242h-126v240l-226 434h144l50 -98c74 -142 92 -189 101 -217c8 28 27 77 96 217l47 98h140z" />
    <glyph glyph-name="ygrave" unicode="&#x1ef3;" horiz-adv-x="528" 
d="M249 740l91 -169h-101l-116 169h126zM211 10l-195 498h132l58 -163c54 -148 63 -188 66 -195c2 7 14 46 63 195l54 163h125l-188 -506c-55 -148 -129 -210 -228 -210c-22 0 -37 2 -55 6v98c12 -3 25 -6 41 -6c54 0 90 32 117 94z" />
    <glyph glyph-name="endash" unicode="&#x2013;" horiz-adv-x="500" 
d="M50 224v91h401v-91h-401z" />
    <glyph glyph-name="emdash" unicode="&#x2014;" horiz-adv-x="1000" 
d="M50 224v91h901v-91h-901z" />
    <glyph glyph-name="quoteleft" unicode="&#x2018;" horiz-adv-x="247" 
d="M237 674l-98 -247h-129l140 247h87z" />
    <glyph glyph-name="quoteright" unicode="&#x2019;" horiz-adv-x="247" 
d="M10 427l98 247h129l-140 -247h-87z" />
    <glyph glyph-name="quotesinglbase" unicode="&#x201a;" horiz-adv-x="247" 
d="M10 -173l98 247h129l-140 -247h-87z" />
    <glyph glyph-name="quotedblleft" unicode="&#x201c;" horiz-adv-x="443" 
d="M237 674l-98 -247h-129l140 247h87zM433 674l-98 -247h-129l140 247h87z" />
    <glyph glyph-name="quotedblright" unicode="&#x201d;" horiz-adv-x="443" 
d="M10 427l98 247h129l-140 -247h-87zM206 427l98 247h129l-140 -247h-87z" />
    <glyph glyph-name="quotedblbase" unicode="&#x201e;" horiz-adv-x="443" 
d="M10 -173l98 247h129l-140 -247h-87zM206 -173l98 247h129l-140 -247h-87z" />
    <glyph glyph-name="dagger" unicode="&#x2020;" horiz-adv-x="490" 
d="M451 516v-100h-152v-416h-108v416h-152v100h152v158h108v-158h152z" />
    <glyph glyph-name="daggerdbl" unicode="&#x2021;" horiz-adv-x="490" 
d="M451 416h-152v-162h152v-100h-152v-154h-108v154h-152v100h152v162h-152v100h152v158h108v-158h152v-100z" />
    <glyph glyph-name="bullet" unicode="&#x2022;" horiz-adv-x="434" 
d="M218 123c-77 0 -133 58 -133 133s56 133 132 133c75 0 133 -58 133 -133s-58 -133 -132 -133z" />
    <glyph glyph-name="ellipsis" unicode="&#x2026;" horiz-adv-x="813" 
d="M131 147c43 0 77 -34 77 -77s-34 -78 -77 -78s-78 35 -78 78s35 77 78 77zM407 147c43 0 77 -34 77 -77s-34 -78 -77 -78s-78 35 -78 78s35 77 78 77zM683 147c43 0 77 -34 77 -77s-34 -78 -77 -78s-78 35 -78 78s35 77 78 77z" />
    <glyph glyph-name="perthousand" unicode="&#x2030;" horiz-adv-x="1336" 
d="M217 -1l371 692h111l-372 -692h-110zM699 -8c-98 0 -178 80 -178 178s80 178 178 178s178 -80 178 -178s-80 -178 -178 -178zM223 347c-98 0 -178 80 -178 178c0 99 80 178 178 178s178 -79 178 -178c0 -98 -80 -178 -178 -178zM223 605c-44 0 -79 -36 -79 -80
c0 -43 35 -79 79 -79s79 36 79 79c0 44 -35 80 -79 80zM699 250c-43 0 -79 -36 -79 -80c0 -43 36 -79 79 -79c44 0 80 36 80 79c0 44 -36 80 -80 80zM1120 -8c-99 0 -178 80 -178 178s79 178 178 178c98 0 178 -80 178 -178s-80 -178 -178 -178zM1120 250
c-44 0 -79 -36 -79 -80c0 -43 35 -79 79 -79c43 0 79 36 79 79c0 44 -36 80 -79 80z" />
    <glyph glyph-name="guilsinglleft" unicode="&#x2039;" horiz-adv-x="366" 
d="M300 429l-113 -176l113 -176h-116l-118 176l118 176h116z" />
    <glyph glyph-name="guilsinglright" unicode="&#x203a;" horiz-adv-x="366" 
d="M181 429l119 -176l-119 -176h-115l113 176l-113 176h115z" />
    <glyph glyph-name="fraction" unicode="&#x2044;" horiz-adv-x="282" 
d="M-145 0l437 711h94l-436 -711h-95z" />
    <glyph glyph-name="Euro" unicode="&#x20ac;" horiz-adv-x="610" 
d="M570 647v-121c-31 23 -70 40 -127 40c-80 0 -138 -45 -166 -121h186v-78h-202c-1 -12 -2 -24 -2 -37c0 -14 1 -28 2 -41h202v-78h-181c30 -68 88 -107 161 -107c58 0 96 14 127 37v-117c-33 -22 -73 -32 -133 -32c-148 0 -251 87 -289 219h-103v78h89c-1 14 -2 28 -2 42
c0 12 0 24 1 36h-88v78h100c36 150 146 235 279 235c67 0 109 -12 146 -33z" />
    <glyph glyph-name="uni20B9" unicode="&#x20b9;" horiz-adv-x="552" 
d="M508 581h-156c22 -22 38 -49 46 -78h110v-93h-103c-13 -100 -82 -165 -201 -176l195 -234h-152l-185 233v97h91c78 0 118 28 130 80h-221v93h216c-17 45 -56 78 -127 78h-89v93h446v-93z" />
    <glyph glyph-name="trademark" unicode="&#x2122;" horiz-adv-x="731" 
d="M294 331l27 343h91l44 -119c35 -89 42 -118 44 -129c2 11 8 41 42 129l46 119h91l31 -343h-79l-10 129c-5 69 -2 111 -1 126c-3 -15 -12 -52 -39 -127l-46 -123h-72l-44 123c-27 73 -35 112 -38 127c1 -15 4 -53 -1 -126l-9 -129h-77zM7 603v71h250v-71h-84v-272h-81v272
h-85z" />
    <glyph glyph-name="uni2126" unicode="&#x2126;" horiz-adv-x="786" 
d="M599 104h139v-104h-300v104c92 21 132 120 132 240c0 139 -62 226 -177 226c-113 0 -176 -87 -176 -226c0 -119 43 -218 131 -240v-104h-300v104h139c-66 52 -105 134 -105 240c0 205 117 342 311 342c197 0 312 -136 312 -342c0 -106 -39 -188 -106 -240z" />
    <glyph glyph-name="partialdiff" unicode="&#x2202;" horiz-adv-x="538" 
d="M259 99c68 0 116 56 119 178c-29 31 -65 48 -115 48c-59 0 -103 -44 -103 -114c0 -65 36 -112 99 -112zM116 674h167c117 -85 207 -250 207 -389c0 -182 -84 -294 -232 -294c-146 0 -221 101 -221 225c0 131 97 213 205 213c49 0 89 -15 120 -40
c-40 120 -143 222 -246 285z" />
    <glyph glyph-name="uni2206" unicode="&#x2206;" horiz-adv-x="657" 
d="M168 103h321l-55 163c-80 243 -105 315 -105 315s-25 -72 -106 -315zM412 674l212 -586v-88h-590v88l215 586h163z" />
    <glyph glyph-name="product" unicode="&#x220f;" horiz-adv-x="627" 
d="M559 674v-854h-127v745h-215v-540c0 -131 -53 -210 -172 -210c-22 0 -53 6 -69 12v111c15 -8 30 -13 49 -13c47 0 65 31 65 96v653h469z" />
    <glyph glyph-name="summation" unicode="&#x2211;" horiz-adv-x="468" 
d="M488 674v-104h-323l156 -326l-157 -340h324v-104h-458v104l159 340l-159 326v104h458z" />
    <glyph glyph-name="minus" unicode="&#x2212;" horiz-adv-x="576" 
d="M50 286v107h476v-107h-476z" />
    <glyph glyph-name="uni2215" unicode="&#x2215;" horiz-adv-x="680" 
d="M65 0l437 711h94l-436 -711h-95z" />
    <glyph glyph-name="radical" unicode="&#x221a;" horiz-adv-x="798" 
d="M259 446l91 -266c51 -147 78 -254 79 -261c1 3 20 110 67 263l221 721h127l-342 -1096h-148l-197 543h-128l24 96h206z" />
    <glyph glyph-name="infinity" unicode="&#x221e;" horiz-adv-x="832" 
d="M235 419c-52 0 -82 -30 -82 -76s31 -78 82 -78c54 0 92 46 115 80c-31 35 -68 74 -115 74zM601 173c-85 0 -139 45 -186 100c-40 -47 -93 -102 -188 -102c-117 0 -180 64 -180 169c0 103 71 174 184 174c84 0 137 -46 185 -101c39 48 97 103 189 103
c115 0 180 -65 180 -168s-72 -175 -184 -175zM597 268c52 0 80 28 80 77c0 42 -28 77 -79 77c-57 0 -93 -47 -117 -81c34 -37 69 -73 116 -73z" />
    <glyph glyph-name="approxequal" unicode="&#x2248;" horiz-adv-x="600" 
d="M487 317l78 -62c-31 -47 -79 -94 -151 -94c-93 0 -138 55 -204 55c-43 0 -72 -20 -101 -58l-77 62c35 48 90 96 156 96c103 0 146 -55 207 -55c42 0 67 23 92 56zM487 519l78 -61c-31 -47 -79 -95 -151 -95c-93 0 -138 56 -204 56c-43 0 -72 -21 -101 -59l-77 62
c35 49 90 97 156 97c103 0 146 -56 207 -56c42 0 67 23 92 56z" />
    <glyph glyph-name="notequal" unicode="&#x2260;" horiz-adv-x="576" 
d="M526 402h-176l-57 -123h233v-98h-278l-38 -83h-68l38 83h-130v98h176l57 123h-233v97h278l38 83h67l-38 -83h131v-97z" />
    <glyph glyph-name="lessequal" unicode="&#x2264;" horiz-adv-x="571" 
d="M45 97v98h476v-98h-476zM521 581v-106l-407 -62l407 -62v-106l-476 91v155z" />
    <glyph glyph-name="greaterequal" unicode="&#x2265;" horiz-adv-x="571" 
d="M50 97v98h476v-98h-476zM50 581l476 -90v-155l-476 -91v106l407 62l-407 62v106z" />
    <glyph glyph-name="lozenge" unicode="&#x25ca;" horiz-adv-x="589" 
d="M395 279l33 58l-33 58c-72 122 -101 184 -101 184s-29 -62 -99 -184l-32 -58l32 -58c70 -122 99 -184 99 -184s29 62 101 184zM358 674l193 -337l-193 -337h-130l-190 337l190 337h130z" />
    <glyph glyph-name="itfLogo" horiz-adv-x="1663" 
d="M100 0v674h208v-674h-208zM351 478v196h208v-196h-208zM602 0v674h208v-674h-208zM853 478v196h208v-196h-208zM1104 0v674h209v-674h-209zM1355 478v196h208v-196h-208zM1355 238v197h208v-197h-208z" />
    <glyph glyph-name="i.loclTRK" 
d="M78 0v508h120v-508h-120zM138 586c-40 0 -72 32 -72 73c0 40 32 72 72 72s72 -32 72 -72c0 -41 -32 -73 -72 -73z" />
    <glyph glyph-name="caron.alt" horiz-adv-x="458" 
d="M213 503l76 204h128l-114 -204h-90z" />
    <glyph glyph-name="commaaccent.alt" horiz-adv-x="458" 
d="M353 775l-76 -204h-128l114 204h90z" />
    </font>
</defs>
</svg>
