<?xml version="1.0" standalone="no"?>
<!DOCTYPE svg PUBLIC "-//W3C//DTD SVG 1.1//EN" "http://www.w3.org/Graphics/SVG/1.1/DTD/svg11.dtd" >
<svg xmlns="http://www.w3.org/2000/svg" xmlns:xlink="http://www.w3.org/1999/xlink" version="1.1">
<metadata>
Created by FontForge 20190801 at Tue Jan 27 13:59:19 2015
 By Jimmy Wärting
Copyright 2015 Indian Type Foundry. All rights reserved.
</metadata>
<defs>
<font id="Mute-Regular" horiz-adv-x="258" >
  <font-face 
    font-family="Mute"
    font-weight="400"
    font-stretch="normal"
    units-per-em="1000"
    panose-1="0 0 5 0 0 0 0 0 0 0"
    ascent="750"
    descent="-250"
    x-height="507"
    cap-height="674"
    bbox="-92 -252 1563 943"
    underline-thickness="50"
    underline-position="-100"
    unicode-range="U+000D-FB02"
  />
<missing-glyph horiz-adv-x="751" 
d="M176 0v701h399v-701h-399zM235 646v-591h281v591h-281z" />
    <glyph glyph-name="fi" unicode="fi" horiz-adv-x="591" 
d="M501 507v-507h-79v444h-237v-444h-78v444h-73v63h73v14c0 121 70 194 205 194c68 0 122 -15 164 -41v-74c-48 26 -94 44 -162 44c-81 0 -129 -35 -129 -119v-18h316z" />
    <glyph glyph-name="fl" unicode="fl" horiz-adv-x="591" 
d="M107 507v14c0 121 70 194 221 194c64 0 142 -14 173 -28v-687h-79v634c-30 6 -62 10 -97 10c-92 0 -140 -35 -140 -119v-18h113v-63h-113v-444h-78v444h-73v63h73z" />
    <glyph glyph-name=".notdef" horiz-adv-x="751" 
d="M176 0v701h399v-701h-399zM235 646v-591h281v591h-281z" />
    <glyph glyph-name="NULL" horiz-adv-x="0" 
 />
    <glyph glyph-name="NULL" horiz-adv-x="0" 
 />
    <glyph glyph-name="CR" unicode="&#xd;" horiz-adv-x="0" 
 />
    <glyph glyph-name="space" unicode=" " horiz-adv-x="206" 
 />
    <glyph glyph-name="exclam" unicode="!" horiz-adv-x="278" 
d="M139 110c33 0 59 -26 59 -59s-26 -59 -59 -59s-59 26 -59 59s26 59 59 59zM103 204l-7 470h83l-7 -470h-69z" />
    <glyph glyph-name="quotedbl" unicode="&#x22;" horiz-adv-x="345" 
d="M72 443l-10 231h78l-10 -231h-58zM214 443l-10 231h79l-10 -231h-59z" />
    <glyph glyph-name="numbersign" unicode="#" horiz-adv-x="710" 
d="M425 233l44 206h-179l-44 -206h179zM657 439h-116l-43 -206h107v-63h-120l-36 -170h-73l36 170h-179l-36 -170h-71l36 170h-109v63h122l43 206h-111v64h125l36 171h72l-36 -171h179l36 171h71l-36 -171h103v-64z" />
    <glyph glyph-name="dollar" unicode="$" horiz-adv-x="505" 
d="M416 644v-84c-35 23 -88 41 -141 41c-80 0 -130 -40 -130 -101c0 -69 65 -97 148 -134c87 -38 162 -81 162 -188c0 -108 -74 -169 -173 -182v-105h-69v103c-56 4 -107 19 -148 43v84c43 -32 108 -55 180 -55c75 0 127 38 127 103c0 76 -66 104 -151 141
c-85 38 -160 82 -160 186c0 95 68 156 156 174v107h69v-101c48 -1 91 -12 130 -32z" />
    <glyph glyph-name="percent" unicode="%" horiz-adv-x="847" 
d="M206 -1l357 666h77l-359 -666h-75zM640 -7c-88 0 -158 71 -158 158s70 159 158 159c87 0 158 -72 158 -159s-71 -158 -158 -158zM207 356c-87 0 -158 71 -158 159c0 86 71 158 158 158s159 -72 159 -158c0 -88 -72 -159 -159 -159zM207 604c-49 0 -89 -40 -89 -89
c0 -50 40 -90 89 -90c50 0 90 40 90 90c0 49 -40 89 -90 89zM640 241c-49 0 -90 -40 -90 -90c0 -49 41 -89 90 -89c50 0 90 40 90 89c0 50 -40 90 -90 90z" />
    <glyph glyph-name="ampersand" unicode="&#x26;" horiz-adv-x="704" 
d="M259 305l-13 13c-76 -34 -104 -79 -104 -132c0 -70 51 -123 165 -123c58 0 112 19 153 55zM302 611c-54 0 -100 -27 -100 -89c0 -41 21 -76 75 -131c84 37 121 78 121 129s-29 91 -96 91zM694 0h-107l-75 69c-54 -49 -129 -77 -221 -77c-141 0 -231 73 -231 188
c0 75 51 139 142 181c-52 56 -81 104 -81 162c0 90 76 159 180 159c118 0 174 -68 174 -153c0 -79 -56 -135 -152 -182l182 -170c18 35 29 77 29 127h73c0 -69 -17 -129 -47 -178z" />
    <glyph glyph-name="quotesingle" unicode="'" horiz-adv-x="202" 
d="M72 443l-10 231h78l-10 -231h-58z" />
    <glyph glyph-name="parenleft" unicode="(" horiz-adv-x="337" 
d="M228 707h89c-99 -121 -158 -274 -158 -410c0 -143 59 -297 158 -413h-89c-95 111 -152 266 -152 417c0 143 57 294 152 406z" />
    <glyph glyph-name="parenright" unicode=")" horiz-adv-x="337" 
d="M109 -116h-89c99 116 157 270 157 413c0 136 -58 289 -157 410h89c95 -112 152 -263 152 -406c0 -151 -57 -306 -152 -417z" />
    <glyph glyph-name="asterisk" unicode="*" horiz-adv-x="441" 
d="M266 491h-7c11 -6 22 -15 32 -30l56 -77l-51 -38l-57 78c-9 14 -15 26 -18 38c-3 -13 -9 -25 -19 -39l-56 -77l-52 37l57 78c10 13 21 23 32 30c-3 -1 -7 -1 -10 -1c-10 0 -21 1 -35 5l-90 30l19 61l91 -30c17 -6 30 -14 39 -22c-5 12 -9 26 -9 45v95h63v-95
c0 -18 -3 -33 -8 -44c9 8 21 16 38 22l92 29l20 -59l-91 -31c-14 -4 -26 -5 -36 -5z" />
    <glyph glyph-name="plus" unicode="+" horiz-adv-x="553" 
d="M497 376v-72h-187v-189h-74v189h-179v72h179v189h74v-189h187z" />
    <glyph glyph-name="comma" unicode="," horiz-adv-x="234" 
d="M-24 -120l93 224h93l-130 -224h-56z" />
    <glyph glyph-name="hyphen" unicode="-" horiz-adv-x="348" 
d="M57 234v69h234v-69h-234z" />
    <glyph glyph-name="period" unicode="." horiz-adv-x="234" 
d="M117 -8c-33 0 -59 26 -59 59s26 59 59 59s59 -26 59 -59s-26 -59 -59 -59z" />
    <glyph glyph-name="slash" unicode="/" horiz-adv-x="465" 
d="M10 -116l365 823h80l-365 -823h-80z" />
    <glyph glyph-name="zero" unicode="0" horiz-adv-x="552" 
d="M276 -8c-138 0 -232 134 -232 342c0 212 98 342 232 342c140 0 231 -130 231 -342c0 -204 -80 -342 -231 -342zM276 603c-73 0 -148 -90 -148 -269c0 -177 69 -269 148 -269c90 0 148 92 148 269c0 179 -66 269 -148 269z" />
    <glyph glyph-name="one" unicode="1" horiz-adv-x="323" 
d="M18 486v85l155 94h75v-665h-80v579z" />
    <glyph glyph-name="two" unicode="2" horiz-adv-x="494" 
d="M139 72h301v-72h-401v70c154 134 309 258 309 403c0 85 -49 128 -128 128c-58 0 -114 -22 -161 -58v76c44 34 107 55 171 55c106 0 201 -59 201 -192c0 -150 -103 -255 -292 -410z" />
    <glyph glyph-name="three" unicode="3" horiz-adv-x="466" 
d="M200 -6c-53 0 -110 11 -154 32v77c49 -26 93 -38 151 -38c88 0 129 49 129 119c0 75 -46 122 -145 122h-42v68h42c82 0 133 42 133 113c0 78 -48 115 -120 115c-50 0 -102 -18 -136 -40v76c28 18 82 36 146 36c126 0 193 -81 193 -172c0 -72 -35 -129 -109 -160
c73 -19 121 -77 121 -161c0 -101 -66 -187 -209 -187z" />
    <glyph glyph-name="four" unicode="4" horiz-adv-x="540" 
d="M122 228h219v378c-13 -24 -38 -72 -134 -233zM516 228v-69h-95v-159h-80v159h-299v69l258 437h121v-437h95z" />
    <glyph glyph-name="five" unicode="5" horiz-adv-x="509" 
d="M169 596v-201c27 6 53 10 78 10c132 0 216 -80 216 -200c0 -129 -88 -213 -236 -213c-52 0 -115 9 -164 32v76c39 -22 98 -36 151 -36c108 0 166 46 166 142c0 81 -61 127 -139 127c-57 0 -110 -16 -150 -33v365h328v-69h-250z" />
    <glyph glyph-name="six" unicode="6" horiz-adv-x="526" 
d="M284 63c77 0 124 63 124 151c0 85 -49 137 -121 137c-64 0 -120 -32 -157 -74c5 -145 70 -214 154 -214zM440 659v-77c-26 13 -56 20 -91 20c-135 0 -202 -117 -216 -250c41 43 103 71 164 71c121 0 194 -85 194 -210c0 -130 -81 -221 -207 -221
c-154 0 -233 131 -233 304c0 210 102 378 296 378c37 0 66 -6 93 -15z" />
    <glyph glyph-name="seven" unicode="7" horiz-adv-x="451" 
d="M28 665h411v-69l-271 -596h-85l271 596h-326v69z" />
    <glyph glyph-name="eight" unicode="8" horiz-adv-x="536" 
d="M265 63c93 0 139 59 139 122c0 58 -41 120 -139 119c-94 -1 -134 -64 -134 -127c0 -60 46 -114 134 -114zM142 489c0 -78 55 -113 126 -113c68 0 120 40 120 115c0 62 -43 111 -124 111c-76 0 -122 -51 -122 -113zM360 340c76 -24 126 -81 126 -164
c0 -111 -99 -184 -222 -184c-118 0 -216 72 -216 180c0 81 49 140 123 167c-69 24 -112 78 -112 151c0 120 101 184 205 184c106 0 206 -62 206 -185c0 -70 -41 -124 -110 -149z" />
    <glyph glyph-name="nine" unicode="9" horiz-adv-x="504" 
d="M383 377v7c0 111 -31 218 -140 218c-76 0 -126 -55 -126 -142c0 -93 53 -144 133 -144c59 0 103 26 133 61zM65 11v77c35 -16 71 -24 111 -24c131 0 189 97 203 241c-35 -41 -81 -60 -149 -60c-101 0 -196 79 -196 213c0 117 76 216 208 216c157 0 221 -137 221 -290
c0 -225 -85 -392 -285 -392c-40 0 -78 6 -113 19z" />
    <glyph glyph-name="colon" unicode=":" horiz-adv-x="234" 
d="M117 -8c-33 0 -59 26 -59 59s26 59 59 59s59 -26 59 -59s-26 -59 -59 -59zM117 368c-33 0 -59 26 -59 59s26 59 59 59s59 -26 59 -59s-26 -59 -59 -59z" />
    <glyph glyph-name="semicolon" unicode=";" horiz-adv-x="234" 
d="M117 368c-33 0 -59 26 -59 59s26 59 59 59s59 -26 59 -59s-26 -59 -59 -59zM-24 -120l93 224h93l-130 -224h-56z" />
    <glyph glyph-name="less" unicode="&#x3c;" horiz-adv-x="527" 
d="M57 303v76l421 188v-81l-338 -144l338 -146v-82z" />
    <glyph glyph-name="equal" unicode="=" horiz-adv-x="553" 
d="M57 407v68h440v-68h-440zM57 205v69h440v-69h-440z" />
    <glyph glyph-name="greater" unicode="&#x3e;" horiz-adv-x="527" 
d="M470 379v-76l-421 -189v82l337 146l-337 144v81z" />
    <glyph glyph-name="question" unicode="?" horiz-adv-x="487" 
d="M71 563v77c35 22 96 42 159 42c126 0 210 -74 210 -184c0 -121 -97 -173 -197 -193l-3 -101h-69l-5 151c115 11 191 48 191 140c0 66 -46 116 -132 116c-51 0 -99 -13 -154 -48zM203 -8c-34 0 -59 26 -59 59s25 59 59 59c33 0 59 -26 59 -59s-26 -59 -59 -59z" />
    <glyph glyph-name="at" unicode="@" horiz-adv-x="905" 
d="M562 238c5 82 -35 127 -102 127c-74 0 -123 -71 -123 -154c0 -70 43 -112 100 -112c61 0 119 48 125 139zM631 -65v-77c-43 -19 -96 -27 -157 -27c-253 0 -414 153 -414 396c0 241 169 409 402 409c230 0 393 -160 393 -367c0 -164 -85 -233 -168 -233
c-75 0 -104 45 -116 87c-30 -52 -84 -89 -150 -89c-99 0 -159 79 -159 181c0 120 83 215 192 215c51 0 93 -22 120 -60c1 17 2 35 3 55h66l-11 -107c-6 -71 -8 -97 -8 -119c0 -61 17 -99 67 -99c57 0 93 61 93 165c0 172 -133 301 -323 301c-189 0 -325 -139 -325 -339
c0 -202 132 -328 341 -328c59 0 111 12 154 36z" />
    <glyph glyph-name="A" unicode="A" horiz-adv-x="653" 
d="M206 249h238l-12 36c-85 255 -101 307 -106 324c-5 -17 -21 -69 -108 -324zM527 0l-60 179h-285l-60 -179h-84l235 674h112l230 -674h-88z" />
    <glyph glyph-name="B" unicode="B" horiz-adv-x="596" 
d="M175 70h135c95 0 152 47 152 125c0 75 -57 119 -155 119h-132v-244zM291 604h-116v-221h118c88 0 144 43 144 115c0 66 -56 106 -146 106zM95 674h191c149 0 234 -64 234 -173c0 -77 -49 -127 -115 -146c78 -13 141 -75 141 -164c0 -112 -79 -191 -241 -191h-210v674z
" />
    <glyph glyph-name="C" unicode="C" horiz-adv-x="596" 
d="M394 -8c-205 0 -333 137 -333 345c0 213 135 345 339 345c73 0 132 -19 158 -39v-81c-43 32 -95 47 -162 47c-156 0 -252 -105 -252 -272c0 -168 103 -272 253 -272c57 0 129 18 163 46v-79c-37 -23 -97 -40 -166 -40z" />
    <glyph glyph-name="D" unicode="D" horiz-adv-x="691" 
d="M175 72h111c163 0 260 100 260 265c0 169 -97 265 -261 265h-110v-530zM95 674h181c229 0 354 -122 354 -337c0 -211 -131 -337 -354 -337h-181v674z" />
    <glyph glyph-name="E" unicode="E" horiz-adv-x="531" 
d="M175 72h312v-72h-392v674h386v-72h-306v-222h273v-72h-273v-236z" />
    <glyph glyph-name="F" unicode="F" horiz-adv-x="523" 
d="M481 602h-306v-233h273v-72h-273v-297h-80v674h386v-72z" />
    <glyph glyph-name="G" unicode="G" horiz-adv-x="680" 
d="M608 346v-293c-47 -31 -122 -61 -213 -61c-206 0 -334 137 -334 345c0 213 135 345 339 345c78 0 142 -22 168 -42v-81c-43 32 -104 50 -172 50c-156 0 -252 -105 -252 -272c0 -168 103 -272 253 -272c43 0 94 10 131 26v185h-149v70h229z" />
    <glyph glyph-name="H" unicode="H" horiz-adv-x="695" 
d="M520 674h80v-674h-80v309h-345v-309h-80v674h80v-293h345v293z" />
    <glyph glyph-name="I" unicode="I" horiz-adv-x="270" 
d="M95 0v674h80v-674h-80z" />
    <glyph glyph-name="J" unicode="J" horiz-adv-x="379" 
d="M37 14v76c23 -15 53 -25 84 -25c57 0 87 28 87 93v516h81v-508c0 -122 -65 -174 -161 -174c-31 0 -66 8 -91 22z" />
    <glyph glyph-name="K" unicode="K" horiz-adv-x="598" 
d="M95 0v674h80v-674h-80zM288 340l284 -340h-106l-274 333l264 341h91z" />
    <glyph glyph-name="L" unicode="L" horiz-adv-x="491" 
d="M175 72h288v-72h-368v674h80v-602z" />
    <glyph glyph-name="M" unicode="M" horiz-adv-x="856" 
d="M69 0l53 674h110l88 -248c51 -144 97 -288 108 -322c11 34 59 174 111 322l89 248h106l53 -674h-81l-19 266c-11 153 -22 275 -24 316c-10 -40 -53 -170 -107 -316l-92 -247h-82l-87 247c-55 153 -98 279 -107 316c-1 -37 -9 -164 -19 -316l-19 -266h-81z" />
    <glyph glyph-name="N" unicode="N" horiz-adv-x="691" 
d="M95 0v674h104l160 -284c109 -191 145 -264 160 -295c0 30 -3 114 -3 294v285h80v-674h-104l-160 282c-109 193 -146 267 -161 297c1 -30 4 -108 4 -295v-284h-80z" />
    <glyph glyph-name="O" unicode="O" horiz-adv-x="714" 
d="M654 337c0 -216 -111 -345 -296 -345c-187 0 -297 125 -297 345c0 216 110 345 296 345c187 0 297 -125 297 -345zM570 337c0 171 -79 272 -213 272c-133 0 -213 -101 -213 -272c0 -170 80 -272 214 -272c133 0 212 102 212 272z" />
    <glyph glyph-name="P" unicode="P" horiz-adv-x="562" 
d="M175 318h97c100 0 161 54 161 144c0 89 -60 142 -161 142h-97v-286zM95 674h170c157 0 251 -79 251 -212c0 -131 -98 -214 -256 -214h-85v-248h-80v674z" />
    <glyph glyph-name="Q" unicode="Q" horiz-adv-x="714" 
d="M144 337c0 -170 80 -272 214 -272c133 0 212 102 212 272c0 171 -79 272 -213 272c-133 0 -213 -101 -213 -272zM688 -105l-93 -37l-193 137c-14 -2 -29 -3 -44 -3c-187 0 -297 125 -297 345c0 216 110 345 296 345c187 0 297 -125 297 -345c0 -158 -60 -270 -164 -318z
" />
    <glyph glyph-name="R" unicode="R" horiz-adv-x="576" 
d="M175 604v-266h97c95 0 153 50 153 134c0 83 -57 132 -153 132h-97zM544 0h-100l-178 268h-9h-82v-268h-80v674h170c152 0 243 -75 243 -202c0 -97 -57 -166 -155 -192z" />
    <glyph glyph-name="S" unicode="S" horiz-adv-x="506" 
d="M422 652v-83c-36 23 -96 40 -158 40c-76 0 -130 -36 -130 -96c0 -54 37 -91 132 -126c117 -44 194 -94 194 -205c0 -121 -98 -190 -221 -190c-72 0 -137 14 -185 44v85c44 -33 111 -56 177 -56c90 0 146 43 146 115c0 63 -50 98 -155 138c-118 45 -171 104 -171 189
c0 106 99 175 218 175c56 0 111 -8 153 -30z" />
    <glyph glyph-name="T" unicode="T" horiz-adv-x="526" 
d="M502 674v-72h-199v-602h-80v602h-199v72h478z" />
    <glyph glyph-name="U" unicode="U" horiz-adv-x="671" 
d="M500 259v415h81v-412c0 -175 -93 -270 -247 -270c-153 0 -244 94 -244 262v420h80v-419c0 -130 69 -190 164 -190c100 0 166 60 166 194z" />
    <glyph glyph-name="V" unicode="V" horiz-adv-x="653" 
d="M615 674l-234 -674h-112l-231 674h89l95 -285c84 -255 100 -307 105 -324c5 17 21 69 108 324l96 285h84z" />
    <glyph glyph-name="W" unicode="W" horiz-adv-x="971" 
d="M444 663h93l71 -239c57 -190 90 -313 99 -348c8 35 33 161 76 347l58 251h82l-164 -674h-110l-60 212c-64 220 -97 332 -104 359c-7 -27 -38 -142 -101 -357l-63 -214h-106l-167 674h85l61 -250c32 -131 73 -316 81 -348c9 31 60 216 98 348z" />
    <glyph glyph-name="X" unicode="X" horiz-adv-x="625" 
d="M131 0h-87l220 348l-206 326h97l45 -71c40 -60 81 -129 118 -194c36 65 78 132 117 194l44 71h88l-206 -326l220 -348h-98l-49 77c-42 67 -87 140 -127 209c-40 -68 -86 -142 -128 -209z" />
    <glyph glyph-name="Y" unicode="Y" horiz-adv-x="609" 
d="M573 674l-229 -426v-248h-81v248l-227 426h93l53 -99c94 -178 116 -226 125 -247c9 21 32 71 125 247l51 99h90z" />
    <glyph glyph-name="Z" unicode="Z" horiz-adv-x="550" 
d="M498 674v-63l-358 -539h368v-72h-465v64l357 538h-343v72h441z" />
    <glyph glyph-name="bracketleft" unicode="[" horiz-adv-x="358" 
d="M325 644h-151v-697h151v-63h-230v823h230v-63z" />
    <glyph glyph-name="backslash" unicode="\" horiz-adv-x="465" 
d="M455 -116h-79l-366 823h81z" />
    <glyph glyph-name="bracketright" unicode="]" horiz-adv-x="358" 
d="M263 707v-823h-230v63h151v697h-151v63h230z" />
    <glyph glyph-name="asciicircum" unicode="^" horiz-adv-x="461" 
d="M416 332h-79l-105 208l-108 -208h-79l142 262h91z" />
    <glyph glyph-name="underscore" unicode="_" horiz-adv-x="561" 
d="M28 -94v63h505v-63h-505z" />
    <glyph glyph-name="grave" unicode="`" horiz-adv-x="421" 
d="M170 741l98 -156h-69l-124 156h95z" />
    <glyph glyph-name="a" unicode="a" horiz-adv-x="524" 
d="M362 234h-104c-82 0 -121 -35 -121 -87c0 -49 33 -85 97 -85c79 0 128 58 128 130v42zM92 403v77c37 21 100 35 157 35c135 0 192 -64 192 -187v-328h-78v80c-18 -37 -63 -88 -151 -88c-94 0 -157 66 -157 149c0 100 78 155 208 155h99v23c0 80 -29 125 -121 125
c-50 0 -108 -15 -149 -41z" />
    <glyph glyph-name="b" unicode="b" horiz-adv-x="597" 
d="M315 64c87 0 144 73 144 189c0 118 -59 190 -148 190c-86 0 -142 -71 -142 -189c0 -116 58 -190 146 -190zM169 707v-286c33 60 87 94 155 94c131 0 217 -98 217 -260c0 -154 -88 -263 -216 -263c-69 0 -123 32 -156 91v-83h-79v707h79z" />
    <glyph glyph-name="c" unicode="c" horiz-adv-x="476" 
d="M315 -8c-159 0 -259 100 -259 261c0 154 99 262 258 262c53 0 97 -12 119 -27v-78c-27 18 -70 33 -121 33c-105 0 -174 -71 -174 -189c0 -116 70 -190 178 -190c49 0 95 15 117 32v-76c-22 -17 -74 -28 -118 -28z" />
    <glyph glyph-name="d" unicode="d" horiz-adv-x="597" 
d="M286 64c86 0 142 71 142 189c0 116 -58 190 -147 190c-86 0 -143 -73 -143 -189c0 -118 59 -190 148 -190zM428 707h79v-707h-79v86c-33 -60 -87 -94 -155 -94c-131 0 -217 98 -217 260c0 154 87 263 216 263c69 0 123 -32 156 -91v283z" />
    <glyph glyph-name="e" unicode="e" horiz-adv-x="534" 
d="M404 294v17c0 79 -43 133 -121 133c-76 0 -131 -56 -143 -150h264zM456 99v-76c-33 -19 -88 -31 -145 -31c-163 0 -255 101 -255 261c0 154 93 262 229 262c129 0 198 -82 198 -218c0 -20 -1 -50 -5 -66h-339c9 -103 71 -168 176 -168c55 0 106 12 141 36z" />
    <glyph glyph-name="f" unicode="f" horiz-adv-x="317" 
d="M304 707v-70c-14 4 -28 7 -46 7c-43 0 -73 -26 -73 -83v-54h113v-63h-113v-444h-78v444h-73v63h73v50c0 97 53 158 149 158c20 0 36 -3 48 -8z" />
    <glyph glyph-name="g" unicode="g" horiz-adv-x="597" 
d="M286 84c86 0 142 67 142 179c0 110 -58 180 -147 180c-86 0 -143 -69 -143 -179c0 -112 59 -180 148 -180zM428 507h79v-490c0 -156 -96 -225 -231 -225c-70 0 -125 15 -170 35v78c43 -23 104 -42 169 -42c100 0 153 51 153 162v77c-33 -57 -87 -90 -155 -90
c-131 0 -217 95 -217 250c0 148 87 253 216 253c69 0 123 -30 156 -87v79z" />
    <glyph glyph-name="h" unicode="h" horiz-adv-x="583" 
d="M169 707v-290c32 64 88 98 160 98c104 0 169 -67 169 -170v-345h-79v324c0 80 -42 120 -111 120c-71 0 -139 -59 -139 -169v-275h-79v707h79z" />
    <glyph glyph-name="i" unicode="i" 
d="M90 0v507h79v-507h-79zM129 615c-29 0 -51 22 -51 51s22 52 51 52s52 -23 52 -52s-23 -51 -52 -51z" />
    <glyph glyph-name="j" unicode="j" 
d="M90 -63v570h79v-575c0 -86 -48 -137 -131 -137c-26 0 -47 4 -71 14v72c23 -12 46 -16 67 -16c34 0 56 19 56 72zM129 718c29 0 52 -23 52 -52s-23 -51 -52 -51s-51 22 -51 51s22 52 51 52z" />
    <glyph glyph-name="k" unicode="k" horiz-adv-x="497" 
d="M90 0v707h79v-707h-79zM273 275l206 -275h-97l-199 270l195 237h88z" />
    <glyph glyph-name="l" unicode="l" 
d="M90 0v707h79v-707h-79z" />
    <glyph glyph-name="m" unicode="m" horiz-adv-x="872" 
d="M169 507v-87c30 62 83 95 150 95c77 0 131 -42 151 -110c30 72 87 110 158 110c98 0 159 -67 159 -170v-345h-79v324c0 80 -38 120 -100 120c-67 0 -130 -59 -130 -169v-275h-79v324c0 80 -38 120 -101 120c-66 0 -129 -59 -129 -169v-275h-79v507h79z" />
    <glyph glyph-name="n" unicode="n" horiz-adv-x="583" 
d="M169 507v-90c32 64 88 98 160 98c104 0 169 -67 169 -170v-345h-79v324c0 80 -42 120 -111 120c-71 0 -139 -59 -139 -169v-275h-79v507h79z" />
    <glyph glyph-name="o" unicode="o" horiz-adv-x="583" 
d="M56 253c0 154 93 262 237 262c143 0 235 -98 235 -260c0 -154 -94 -263 -237 -263c-144 0 -235 100 -235 261zM445 253c0 118 -61 191 -155 191c-92 0 -152 -72 -152 -190c0 -116 62 -191 156 -191c92 0 151 74 151 190z" />
    <glyph glyph-name="p" unicode="p" horiz-adv-x="597" 
d="M315 64c87 0 144 73 144 189c0 118 -59 190 -148 190c-86 0 -142 -71 -142 -189c0 -116 58 -190 146 -190zM169 507v-86c33 60 87 94 155 94c131 0 217 -98 217 -260c0 -154 -88 -263 -216 -263c-69 0 -123 32 -156 91v-283h-79v707h79z" />
    <glyph glyph-name="q" unicode="q" horiz-adv-x="597" 
d="M286 64c86 0 142 71 142 189c0 116 -58 190 -147 190c-86 0 -143 -73 -143 -189c0 -118 59 -190 148 -190zM428 507h79v-707h-79v286c-33 -60 -87 -94 -155 -94c-131 0 -217 98 -217 260c0 154 87 263 216 263c69 0 123 -32 156 -91v83z" />
    <glyph glyph-name="r" unicode="r" horiz-adv-x="352" 
d="M169 507v-85c25 57 69 93 136 93c12 0 22 -2 29 -4v-77c-10 4 -22 5 -38 5c-78 0 -127 -75 -127 -164v-275h-79v507h79z" />
    <glyph glyph-name="s" unicode="s" horiz-adv-x="426" 
d="M348 495v-77c-29 16 -73 26 -122 26c-60 0 -94 -23 -94 -62c0 -37 28 -59 99 -86c100 -36 145 -80 145 -158c0 -89 -67 -146 -180 -146c-59 0 -111 14 -145 31v78c39 -23 93 -38 146 -38c66 0 98 29 98 68c0 50 -39 76 -109 102c-92 34 -134 73 -134 145
c0 86 74 137 175 137c56 0 96 -9 121 -20z" />
    <glyph glyph-name="t" unicode="t" horiz-adv-x="355" 
d="M331 444h-145v-294c0 -57 24 -87 76 -87c28 0 52 7 69 20v-74c-18 -11 -44 -17 -77 -17c-103 0 -147 58 -147 155v297h-73v63h73v108h79v-108h145v-63z" />
    <glyph glyph-name="u" unicode="u" horiz-adv-x="573" 
d="M404 507h79v-507h-79v89c-31 -63 -86 -97 -155 -97c-101 0 -164 67 -164 170v345h79v-324c0 -80 40 -120 105 -120c69 0 135 59 135 169v275z" />
    <glyph glyph-name="v" unicode="v" horiz-adv-x="503" 
d="M201 0l-175 507h86l69 -214c57 -175 66 -209 73 -235c8 26 14 60 74 235l70 214h79l-173 -507h-103z" />
    <glyph glyph-name="w" unicode="w" horiz-adv-x="809" 
d="M190 0l-155 507h83l50 -168c57 -196 68 -245 74 -268c6 23 16 72 73 269l48 167h90l48 -167c60 -204 67 -247 74 -271c7 24 15 70 74 271l48 167h77l-154 -507h-97l-46 165c-53 186 -67 243 -74 267c-7 -24 -19 -81 -70 -266l-47 -166h-96z" />
    <glyph glyph-name="x" unicode="x" horiz-adv-x="485" 
d="M109 0h-82l168 262l-158 246h92l40 -62c28 -44 54 -87 78 -127c23 40 49 83 77 127l40 62h84l-160 -246l170 -262h-93l-46 71c-29 45 -58 92 -82 134c-25 -42 -53 -89 -83 -134z" />
    <glyph glyph-name="y" unicode="y" horiz-adv-x="522" 
d="M228 13l-195 494h89l63 -167c64 -167 76 -208 84 -226c7 18 19 55 79 226l60 167h85l-190 -511c-56 -152 -120 -204 -206 -204c-19 0 -40 4 -53 9v70c11 -3 28 -7 51 -7c51 0 89 38 121 117z" />
    <glyph glyph-name="z" unicode="z" horiz-adv-x="463" 
d="M413 507v-50l-279 -394h289v-63h-383v54l276 390h-262v63h359z" />
    <glyph glyph-name="braceleft" unicode="{" horiz-adv-x="354" 
d="M48 334h33c64 0 84 32 84 87c0 60 -22 99 -22 159c0 84 52 135 131 135c19 0 32 -2 47 -8v-72c-11 6 -23 9 -33 9c-44 0 -62 -34 -62 -70c0 -58 21 -100 21 -157c0 -68 -31 -111 -103 -121c72 -11 103 -53 103 -121c0 -58 -21 -100 -21 -158c0 -36 18 -70 62 -70
c10 0 22 3 33 9v-72c-15 -6 -28 -8 -47 -8c-79 0 -131 51 -131 135c0 60 22 100 22 160c0 55 -20 86 -84 86h-33v77z" />
    <glyph glyph-name="bar" unicode="|" horiz-adv-x="268" 
d="M95 -200v907h79v-907h-79z" />
    <glyph glyph-name="braceright" unicode="}" horiz-adv-x="354" 
d="M306 334v-77h-33c-64 0 -84 -31 -84 -86c0 -60 22 -100 22 -160c0 -84 -52 -135 -131 -135c-19 0 -32 2 -47 8v72c11 -6 23 -9 33 -9c44 0 62 34 62 70c0 58 -21 100 -21 158c0 68 31 110 103 121c-72 10 -103 53 -103 121c0 57 21 99 21 157c0 36 -18 70 -62 70
c-10 0 -22 -3 -33 -9v72c15 6 28 8 47 8c79 0 131 -51 131 -135c0 -60 -22 -99 -22 -159c0 -55 20 -87 84 -87h33z" />
    <glyph glyph-name="asciitilde" unicode="~" horiz-adv-x="599" 
d="M504 326l59 -42c-35 -54 -78 -90 -143 -90c-88 0 -154 74 -216 74c-43 0 -81 -20 -115 -69l-53 46c43 60 97 95 156 95c100 0 150 -74 221 -74c40 0 70 24 91 60z" />
    <glyph glyph-name="uni00A0" unicode="&#xa0;" horiz-adv-x="206" 
 />
    <glyph glyph-name="exclamdown" unicode="&#xa1;" horiz-adv-x="278" 
d="M139 368c-33 0 -59 26 -59 59s26 59 59 59s59 -26 59 -59s-26 -59 -59 -59zM175 274l7 -470h-83l7 470h69z" />
    <glyph glyph-name="cent" unicode="&#xa2;" horiz-adv-x="452" 
d="M426 488v-78c-28 18 -71 33 -122 33c-105 0 -174 -71 -174 -189c0 -116 71 -190 179 -190c49 0 94 15 117 32v-76c-18 -14 -55 -23 -92 -27v-104h-69v105c-134 17 -217 113 -217 259c0 140 82 242 217 259v103h69v-101c40 -3 73 -14 92 -26z" />
    <glyph glyph-name="sterling" unicode="&#xa3;" horiz-adv-x="522" 
d="M180 69h289v-69h-389v66c63 38 90 93 90 162c0 22 -3 44 -8 65h-93v63h76c-12 40 -23 80 -23 124c0 120 88 196 217 196c40 0 89 -10 119 -26v-78c-34 20 -73 28 -111 28c-83 0 -140 -41 -140 -128c0 -38 11 -76 22 -116h186v-63h-169c5 -23 8 -46 8 -71
c0 -70 -33 -118 -74 -153z" />
    <glyph glyph-name="currency" unicode="&#xa4;" horiz-adv-x="543" 
d="M93 183c-25 35 -38 78 -38 126s15 93 40 128l-61 61l51 49l60 -61c36 26 81 41 130 41c48 0 91 -14 126 -37l58 57l50 -49l-58 -58c23 -34 38 -77 38 -125c0 -49 -16 -93 -42 -129l62 -61l-50 -49l-62 61c-36 -25 -80 -39 -128 -39c-49 0 -92 13 -126 36l-58 -58l-51 49z
M272 462c-87 0 -149 -64 -149 -149c0 -86 62 -150 149 -150c86 0 148 63 148 149c0 85 -62 150 -148 150z" />
    <glyph glyph-name="yen" unicode="&#xa5;" horiz-adv-x="587" 
d="M548 667l-159 -306h120v-58h-150l-28 -53v-36h178v-57h-178v-157h-81v157h-178v57h178v34l-28 55h-150v58h120l-158 306h94l45 -92c89 -182 111 -226 120 -247c9 21 33 68 121 247l44 92h90z" />
    <glyph glyph-name="brokenbar" unicode="&#xa6;" horiz-adv-x="268" 
d="M95 368v339h79v-339h-79zM95 -200v339h79v-339h-79z" />
    <glyph glyph-name="section" unicode="&#xa7;" horiz-adv-x="512" 
d="M134 279c0 -53 32 -86 124 -120c31 -11 58 -22 82 -34c26 22 45 52 45 88c0 62 -45 87 -148 129c-17 7 -33 14 -48 22c-33 -19 -55 -49 -55 -85zM415 652v-84c-36 22 -85 40 -143 40c-73 0 -124 -26 -124 -80c0 -51 40 -85 130 -120c127 -50 189 -92 189 -192
c0 -54 -27 -100 -62 -131c34 -29 52 -65 52 -117c0 -112 -93 -176 -216 -176c-62 0 -123 13 -171 43v88c45 -36 103 -57 166 -57c87 0 137 38 137 99c0 60 -43 84 -153 126c-125 48 -167 104 -167 181c0 55 30 100 75 129c-44 33 -64 72 -64 122c0 104 88 159 210 159
c53 0 99 -9 141 -30z" />
    <glyph glyph-name="dieresis" unicode="&#xa8;" horiz-adv-x="421" 
d="M117 614c-30 0 -52 23 -52 52s22 52 52 52c29 0 52 -23 52 -52s-23 -52 -52 -52zM303 614c-29 0 -51 23 -51 52s22 52 51 52c30 0 53 -23 53 -52s-23 -52 -53 -52z" />
    <glyph glyph-name="copyright" unicode="&#xa9;" horiz-adv-x="776" 
d="M388 -8c-189 0 -345 156 -345 344c0 189 156 346 345 346s345 -157 345 -346c0 -188 -156 -344 -345 -344zM389 616c-154 0 -279 -126 -279 -280s125 -278 279 -278s279 124 279 278s-125 280 -279 280zM415 463c-71 0 -122 -53 -122 -128c0 -71 49 -126 124 -126
c28 0 60 11 78 25v-65c-20 -13 -56 -22 -84 -22c-118 0 -188 88 -188 188c0 98 68 190 187 190c24 0 58 -4 85 -20v-64c-23 15 -55 22 -80 22z" />
    <glyph glyph-name="ordfeminine" unicode="&#xaa;" horiz-adv-x="283" 
d="M186 521h-35c-44 0 -66 -13 -66 -38c0 -23 15 -40 46 -40c33 0 55 20 55 45v33zM47 603v60c18 10 52 19 87 19c76 0 110 -35 110 -105v-178h-56v34c-14 -20 -37 -36 -75 -36c-53 0 -86 35 -86 82c0 53 42 81 116 81h43v15c0 33 -14 52 -58 52c-29 0 -60 -10 -81 -24z" />
    <glyph glyph-name="guillemotleft" unicode="&#xab;" horiz-adv-x="524" 
d="M264 419l-109 -166l109 -166h-76l-112 166l112 166h76zM448 419l-109 -166l109 -166h-75l-112 166l112 166h75z" />
    <glyph glyph-name="logicalnot" unicode="&#xac;" horiz-adv-x="549" 
d="M512 160h-73v182h-414v71h487v-253z" />
    <glyph glyph-name="uni00AD" unicode="&#xad;" horiz-adv-x="348" 
d="M57 234v69h234v-69h-234z" />
    <glyph glyph-name="registered" unicode="&#xae;" horiz-adv-x="449" 
d="M216 641v-78h32c24 0 38 16 38 40c0 25 -15 38 -41 38h-29zM173 677h67c58 0 89 -28 89 -74c0 -32 -15 -55 -42 -67l60 -97h-51l-53 89h-27v-89h-43v238zM246 356c118 0 194 79 194 195c0 117 -76 196 -194 196s-194 -79 -194 -196c0 -116 76 -195 194 -195zM246 786
c136 0 236 -98 236 -235s-100 -234 -236 -234c-137 0 -236 97 -236 234s99 235 236 235z" />
    <glyph glyph-name="macron" unicode="&#xaf;" horiz-adv-x="421" 
d="M348 634h-276v59h276v-59z" />
    <glyph glyph-name="degree" unicode="&#xb0;" horiz-adv-x="355" 
d="M176 386c-85 0 -146 59 -146 144c0 84 64 146 149 146c84 0 146 -59 146 -143c0 -85 -65 -147 -149 -147zM176 618c-48 0 -83 -39 -83 -87s38 -86 86 -86s82 38 82 86s-37 87 -85 87z" />
    <glyph glyph-name="plusminus" unicode="&#xb1;" horiz-adv-x="553" 
d="M57 30v70h440v-70h-440zM310 400h187v-69h-187v-169h-74v169h-179v69h179v169h74v-169z" />
    <glyph glyph-name="twosuperior" unicode="&#xb2;" horiz-adv-x="365" 
d="M47 392v49c97 73 198 170 198 249c0 54 -34 77 -77 77c-37 0 -76 -18 -107 -43v69c28 17 66 33 109 33c73 0 141 -44 141 -131c0 -82 -76 -174 -175 -248h190v-55h-279z" />
    <glyph glyph-name="threesuperior" unicode="&#xb3;" horiz-adv-x="325" 
d="M103 637h24c46 0 85 23 85 68c0 44 -29 63 -73 63c-28 0 -64 -13 -92 -31v63c22 13 59 26 94 26c92 0 137 -54 137 -116c0 -53 -31 -88 -79 -99c48 -4 91 -45 91 -103c0 -69 -49 -120 -141 -120c-35 0 -83 9 -114 25v60c36 -20 73 -28 111 -28c49 0 79 26 79 66
c0 44 -34 71 -98 71h-24v55z" />
    <glyph glyph-name="acute" unicode="&#xb4;" horiz-adv-x="421" 
d="M155 585l99 156h94l-124 -156h-69z" />
    <glyph glyph-name="uni00B5" unicode="&#xb5;" horiz-adv-x="546" 
d="M394 507h79v-507h-79v77c-24 -56 -70 -83 -133 -83c-44 0 -82 14 -110 38v-211h-78v686h78v-329c0 -75 61 -113 122 -113c75 0 121 62 121 163v279z" />
    <glyph glyph-name="paragraph" unicode="&#xb6;" horiz-adv-x="566" 
d="M286 674v-822h-71v489c-126 0 -189 76 -189 164c0 83 63 169 193 169h67zM401 -148v822h71v-822h-71z" />
    <glyph glyph-name="periodcentered" unicode="&#xb7;" horiz-adv-x="232" 
d="M150 260c-33 0 -59 26 -59 59s26 59 59 59s59 -26 59 -59s-26 -59 -59 -59z" />
    <glyph glyph-name="cedilla" unicode="&#xb8;" horiz-adv-x="421" 
d="M267 -51c12 -17 18 -48 18 -71c0 -68 -48 -127 -150 -130v58c55 4 84 29 84 71c0 27 -8 47 -23 72h71z" />
    <glyph glyph-name="onesuperior" unicode="&#xb9;" horiz-adv-x="250" 
d="M10 690v65l117 67h52v-430h-62v357z" />
    <glyph glyph-name="ordmasculine" unicode="&#xba;" horiz-adv-x="311" 
d="M284 538c0 -86 -45 -144 -129 -144c-81 0 -128 58 -128 144c0 84 49 144 128 144c85 0 129 -60 129 -144zM225 537c0 52 -19 92 -70 92c-46 0 -70 -40 -70 -91c0 -53 27 -92 70 -92c48 0 70 38 70 91z" />
    <glyph glyph-name="guillemotright" unicode="&#xbb;" horiz-adv-x="524" 
d="M151 419l113 -166l-113 -166h-75l109 166l-109 166h75zM336 419l112 -166l-112 -166h-75l108 166l-108 166h75z" />
    <glyph glyph-name="questiondown" unicode="&#xbf;" horiz-adv-x="487" 
d="M416 -84v-78c-34 -22 -95 -42 -159 -42c-125 0 -209 74 -209 184c0 121 96 174 196 193l4 101h68l5 -150c-114 -12 -191 -48 -191 -141c0 -66 46 -116 133 -116c50 0 99 14 153 49zM285 486c33 0 59 -26 59 -59s-26 -59 -59 -59s-59 26 -59 59s26 59 59 59z" />
    <glyph glyph-name="Agrave" unicode="&#xc0;" horiz-adv-x="653" 
d="M384 752h-69l-124 156h95zM206 249h238l-12 36c-85 255 -101 307 -106 324c-5 -17 -21 -69 -108 -324zM527 0l-60 179h-285l-60 -179h-84l235 674h112l230 -674h-88z" />
    <glyph glyph-name="Aacute" unicode="&#xc1;" horiz-adv-x="653" 
d="M464 908l-124 -156h-69l99 156h94zM206 249h238l-12 36c-85 255 -101 307 -106 324c-5 -17 -21 -69 -108 -324zM527 0l-60 179h-285l-60 -179h-84l235 674h112l230 -674h-88z" />
    <glyph glyph-name="Acircumflex" unicode="&#xc2;" horiz-adv-x="653" 
d="M326 856l-72 -104h-77l111 156h76l112 -156h-77zM206 249h238l-12 36c-85 255 -101 307 -106 324c-5 -17 -21 -69 -108 -324zM527 0l-60 179h-285l-60 -179h-84l235 674h112l230 -674h-88z" />
    <glyph glyph-name="Atilde" unicode="&#xc3;" horiz-adv-x="653" 
d="M445 871l47 -34c-22 -44 -56 -68 -99 -68c-53 0 -84 41 -124 41c-30 0 -50 -17 -67 -46l-40 36c22 46 57 72 101 72c57 0 85 -42 128 -42c28 0 43 19 54 41zM206 249h238l-12 36c-85 255 -101 307 -106 324c-5 -17 -21 -69 -108 -324zM527 0l-60 179h-285l-60 -179h-84
l235 674h112l230 -674h-88z" />
    <glyph glyph-name="Adieresis" unicode="&#xc4;" horiz-adv-x="653" 
d="M419 781c-29 0 -51 23 -51 52s22 52 51 52c30 0 53 -23 53 -52s-23 -52 -53 -52zM233 781c-30 0 -52 23 -52 52s22 52 52 52c29 0 52 -23 52 -52s-23 -52 -52 -52zM206 249h238l-12 36c-85 255 -101 307 -106 324c-5 -17 -21 -69 -108 -324zM527 0l-60 179h-285l-60 -179
h-84l235 674h112l230 -674h-88z" />
    <glyph glyph-name="Aring" unicode="&#xc5;" horiz-adv-x="653" 
d="M326 891c-30 0 -53 -24 -53 -54c0 -29 23 -54 53 -54s54 25 54 54c0 30 -24 54 -54 54zM326 730c-59 0 -106 48 -106 106c0 59 47 107 106 107s106 -48 106 -107c0 -58 -47 -106 -106 -106zM206 249h238l-12 36c-85 255 -101 307 -106 324c-5 -17 -21 -69 -108 -324z
M527 0l-60 179h-285l-60 -179h-84l235 674h112l230 -674h-88z" />
    <glyph glyph-name="AE" unicode="&#xc6;" horiz-adv-x="873" 
d="M242 244h195v365c-5 -17 -45 -92 -177 -332zM518 72h311v-72h-392v174h-234l-96 -174h-83l375 674h425v-72h-306v-222h272v-72h-272v-236z" />
    <glyph glyph-name="Ccedilla" unicode="&#xc7;" horiz-adv-x="596" 
d="M394 -8c-205 0 -333 137 -333 345c0 213 135 345 339 345c73 0 132 -19 158 -39v-81c-43 32 -95 47 -162 47c-156 0 -252 -105 -252 -272c0 -168 103 -272 253 -272c57 0 129 18 163 46v-79c-37 -23 -97 -40 -166 -40zM411 -51c11 -17 18 -48 18 -71
c0 -68 -49 -127 -151 -130v58c56 4 85 29 85 71c0 27 -8 47 -24 72h72z" />
    <glyph glyph-name="Egrave" unicode="&#xc8;" horiz-adv-x="531" 
d="M351 752h-69l-124 156h95zM175 72h312v-72h-392v674h386v-72h-306v-222h273v-72h-273v-236z" />
    <glyph glyph-name="Eacute" unicode="&#xc9;" horiz-adv-x="531" 
d="M431 908l-124 -156h-69l99 156h94zM175 72h312v-72h-392v674h386v-72h-306v-222h273v-72h-273v-236z" />
    <glyph glyph-name="Ecircumflex" unicode="&#xca;" horiz-adv-x="531" 
d="M293 856l-72 -104h-77l111 156h76l112 -156h-77zM175 72h312v-72h-392v674h386v-72h-306v-222h273v-72h-273v-236z" />
    <glyph glyph-name="Edieresis" unicode="&#xcb;" horiz-adv-x="531" 
d="M386 781c-29 0 -51 23 -51 52s22 52 51 52c30 0 53 -23 53 -52s-23 -52 -53 -52zM200 781c-30 0 -52 23 -52 52s22 52 52 52c29 0 52 -23 52 -52s-23 -52 -52 -52zM175 72h312v-72h-392v674h386v-72h-306v-222h273v-72h-273v-236z" />
    <glyph glyph-name="Igrave" unicode="&#xcc;" horiz-adv-x="270" 
d="M95 0v674h80v-674h-80zM95 908l98 -156h-69l-124 156h95z" />
    <glyph glyph-name="Iacute" unicode="&#xcd;" horiz-adv-x="270" 
d="M95 0v674h80v-674h-80zM80 752l99 156h94l-124 -156h-69z" />
    <glyph glyph-name="Icircumflex" unicode="&#xce;" horiz-adv-x="270" 
d="M97 908h76l112 -156h-77l-73 104l-72 -104h-77zM95 0v674h80v-674h-80z" />
    <glyph glyph-name="Idieresis" unicode="&#xcf;" horiz-adv-x="270" 
d="M95 0v674h80v-674h-80zM42 781c-30 0 -52 23 -52 52s22 52 52 52c29 0 52 -23 52 -52s-23 -52 -52 -52zM228 781c-29 0 -51 23 -51 52s22 52 51 52c30 0 53 -23 53 -52s-23 -52 -53 -52z" />
    <glyph glyph-name="Eth" unicode="&#xd0;" horiz-adv-x="691" 
d="M175 72h111c163 0 260 100 260 265c0 169 -97 265 -261 265h-110v-221h191v-72h-191v-237zM95 674h181c229 0 354 -122 354 -337c0 -211 -131 -337 -354 -337h-181v309h-70v72h70v293z" />
    <glyph glyph-name="Ntilde" unicode="&#xd1;" horiz-adv-x="691" 
d="M95 0v674h104l160 -284c109 -191 145 -264 160 -295c0 30 -3 114 -3 294v285h80v-674h-104l-160 282c-109 193 -146 267 -161 297c1 -30 4 -108 4 -295v-284h-80zM464 871l47 -34c-22 -44 -56 -68 -99 -68c-53 0 -84 41 -124 41c-30 0 -50 -17 -67 -46l-40 36
c22 46 57 72 101 72c57 0 85 -42 128 -42c28 0 43 19 54 41z" />
    <glyph glyph-name="Ograve" unicode="&#xd2;" horiz-adv-x="714" 
d="M654 337c0 -216 -111 -345 -296 -345c-187 0 -297 125 -297 345c0 216 110 345 296 345c187 0 297 -125 297 -345zM570 337c0 171 -79 272 -213 272c-133 0 -213 -101 -213 -272c0 -170 80 -272 214 -272c133 0 212 102 212 272zM317 908l98 -156h-69l-124 156h95z" />
    <glyph glyph-name="Oacute" unicode="&#xd3;" horiz-adv-x="714" 
d="M302 752l99 156h94l-124 -156h-69zM654 337c0 -216 -111 -345 -296 -345c-187 0 -297 125 -297 345c0 216 110 345 296 345c187 0 297 -125 297 -345zM570 337c0 171 -79 272 -213 272c-133 0 -213 -101 -213 -272c0 -170 80 -272 214 -272c133 0 212 102 212 272z" />
    <glyph glyph-name="Ocircumflex" unicode="&#xd4;" horiz-adv-x="714" 
d="M570 337c0 171 -79 272 -213 272c-133 0 -213 -101 -213 -272c0 -170 80 -272 214 -272c133 0 212 102 212 272zM654 337c0 -216 -111 -345 -296 -345c-187 0 -297 125 -297 345c0 216 110 345 296 345c187 0 297 -125 297 -345zM319 908h76l112 -156h-77l-73 104
l-72 -104h-77z" />
    <glyph glyph-name="Otilde" unicode="&#xd5;" horiz-adv-x="714" 
d="M654 337c0 -216 -111 -345 -296 -345c-187 0 -297 125 -297 345c0 216 110 345 296 345c187 0 297 -125 297 -345zM570 337c0 171 -79 272 -213 272c-133 0 -213 -101 -213 -272c0 -170 80 -272 214 -272c133 0 212 102 212 272zM476 871l47 -34c-22 -44 -56 -68 -99 -68
c-53 0 -84 41 -124 41c-30 0 -50 -17 -67 -46l-40 36c22 46 57 72 101 72c57 0 85 -42 128 -42c28 0 43 19 54 41z" />
    <glyph glyph-name="Odieresis" unicode="&#xd6;" horiz-adv-x="714" 
d="M264 781c-30 0 -52 23 -52 52s22 52 52 52c29 0 52 -23 52 -52s-23 -52 -52 -52zM450 781c-29 0 -51 23 -51 52s22 52 51 52c30 0 53 -23 53 -52s-23 -52 -53 -52zM654 337c0 -216 -111 -345 -296 -345c-187 0 -297 125 -297 345c0 216 110 345 296 345
c187 0 297 -125 297 -345zM570 337c0 171 -79 272 -213 272c-133 0 -213 -101 -213 -272c0 -170 80 -272 214 -272c133 0 212 102 212 272z" />
    <glyph glyph-name="multiply" unicode="&#xd7;" horiz-adv-x="491" 
d="M431 475l-135 -134l132 -131l-51 -51l-132 131l-131 -131l-51 52l131 130l-135 134l51 50l135 -133l135 134z" />
    <glyph glyph-name="Oslash" unicode="&#xd8;" horiz-adv-x="715" 
d="M531 511l-302 -403c34 -28 77 -43 129 -43c133 0 212 102 212 272c0 71 -13 129 -39 174zM184 161l304 403c-35 30 -79 45 -131 45c-133 0 -213 -101 -213 -272c0 -71 14 -131 40 -176zM660 682l-76 -101c46 -58 70 -140 70 -244c0 -216 -111 -345 -296 -345
c-71 0 -131 18 -178 52l-39 -52h-84l75 99c-46 59 -71 142 -71 246c0 216 110 345 296 345c72 0 132 -18 179 -53l40 53h84z" />
    <glyph glyph-name="Ugrave" unicode="&#xd9;" horiz-adv-x="671" 
d="M500 259v415h81v-412c0 -175 -93 -270 -247 -270c-153 0 -244 94 -244 262v420h80v-419c0 -130 69 -190 164 -190c100 0 166 60 166 194zM295 908l98 -156h-69l-124 156h95z" />
    <glyph glyph-name="Uacute" unicode="&#xda;" horiz-adv-x="671" 
d="M280 752l99 156h94l-124 -156h-69zM500 259v415h81v-412c0 -175 -93 -270 -247 -270c-153 0 -244 94 -244 262v420h80v-419c0 -130 69 -190 164 -190c100 0 166 60 166 194z" />
    <glyph glyph-name="Ucircumflex" unicode="&#xdb;" horiz-adv-x="671" 
d="M500 259v415h81v-412c0 -175 -93 -270 -247 -270c-153 0 -244 94 -244 262v420h80v-419c0 -130 69 -190 164 -190c100 0 166 60 166 194zM297 908h76l112 -156h-77l-73 104l-72 -104h-77z" />
    <glyph glyph-name="Udieresis" unicode="&#xdc;" horiz-adv-x="671" 
d="M242 781c-30 0 -52 23 -52 52s22 52 52 52c29 0 52 -23 52 -52s-23 -52 -52 -52zM428 781c-29 0 -51 23 -51 52s22 52 51 52c30 0 53 -23 53 -52s-23 -52 -53 -52zM500 259v415h81v-412c0 -175 -93 -270 -247 -270c-153 0 -244 94 -244 262v420h80v-419
c0 -130 69 -190 164 -190c100 0 166 60 166 194z" />
    <glyph glyph-name="Yacute" unicode="&#xdd;" horiz-adv-x="609" 
d="M442 908l-124 -156h-69l99 156h94zM573 674l-229 -426v-248h-81v248l-227 426h93l53 -99c94 -178 116 -226 125 -247c9 21 32 71 125 247l51 99h90z" />
    <glyph glyph-name="Thorn" unicode="&#xde;" horiz-adv-x="562" 
d="M175 200h97c100 0 161 53 161 144c0 89 -60 141 -161 141h-97v-285zM175 556h90c157 0 251 -79 251 -212c0 -131 -98 -214 -256 -214h-85v-130h-80v674h80v-118z" />
    <glyph glyph-name="germandbls" unicode="&#xdf;" horiz-adv-x="567" 
d="M254 13v73c30 -14 60 -23 100 -23c52 0 89 25 89 69c0 91 -142 129 -142 234c0 79 81 111 81 191c0 52 -41 87 -101 87c-72 0 -112 -39 -112 -121v-523h-79v521c0 133 80 194 197 194c111 0 177 -67 177 -152c0 -91 -81 -125 -81 -189c0 -67 143 -108 143 -237
c0 -82 -71 -145 -172 -145c-43 0 -77 8 -100 21z" />
    <glyph glyph-name="agrave" unicode="&#xe0;" horiz-adv-x="524" 
d="M323 585h-69l-124 156h95zM362 234h-104c-82 0 -121 -35 -121 -87c0 -49 33 -85 97 -85c79 0 128 58 128 130v42zM92 403v77c37 21 100 35 157 35c135 0 192 -64 192 -187v-328h-78v80c-18 -37 -63 -88 -151 -88c-94 0 -157 66 -157 149c0 100 78 155 208 155h99v23
c0 80 -29 125 -121 125c-50 0 -108 -15 -149 -41z" />
    <glyph glyph-name="aacute" unicode="&#xe1;" horiz-adv-x="524" 
d="M403 741l-124 -156h-69l99 156h94zM362 234h-104c-82 0 -121 -35 -121 -87c0 -49 33 -85 97 -85c79 0 128 58 128 130v42zM92 403v77c37 21 100 35 157 35c135 0 192 -64 192 -187v-328h-78v80c-18 -37 -63 -88 -151 -88c-94 0 -157 66 -157 149c0 100 78 155 208 155h99
v23c0 80 -29 125 -121 125c-50 0 -108 -15 -149 -41z" />
    <glyph glyph-name="acircumflex" unicode="&#xe2;" horiz-adv-x="524" 
d="M265 689l-72 -104h-77l111 156h76l112 -156h-77zM362 234h-104c-82 0 -121 -35 -121 -87c0 -49 33 -85 97 -85c79 0 128 58 128 130v42zM92 403v77c37 21 100 35 157 35c135 0 192 -64 192 -187v-328h-78v80c-18 -37 -63 -88 -151 -88c-94 0 -157 66 -157 149
c0 100 78 155 208 155h99v23c0 80 -29 125 -121 125c-50 0 -108 -15 -149 -41z" />
    <glyph glyph-name="atilde" unicode="&#xe3;" horiz-adv-x="524" 
d="M384 704l47 -34c-22 -44 -56 -68 -99 -68c-53 0 -84 41 -124 41c-30 0 -50 -17 -67 -46l-40 36c22 46 57 72 101 72c57 0 85 -42 128 -42c28 0 43 19 54 41zM362 234h-104c-82 0 -121 -35 -121 -87c0 -49 33 -85 97 -85c79 0 128 58 128 130v42zM92 403v77
c37 21 100 35 157 35c135 0 192 -64 192 -187v-328h-78v80c-18 -37 -63 -88 -151 -88c-94 0 -157 66 -157 149c0 100 78 155 208 155h99v23c0 80 -29 125 -121 125c-50 0 -108 -15 -149 -41z" />
    <glyph glyph-name="adieresis" unicode="&#xe4;" horiz-adv-x="524" 
d="M358 614c-29 0 -51 23 -51 52s22 52 51 52c30 0 53 -23 53 -52s-23 -52 -53 -52zM172 614c-30 0 -52 23 -52 52s22 52 52 52c29 0 52 -23 52 -52s-23 -52 -52 -52zM362 234h-104c-82 0 -121 -35 -121 -87c0 -49 33 -85 97 -85c79 0 128 58 128 130v42zM92 403v77
c37 21 100 35 157 35c135 0 192 -64 192 -187v-328h-78v80c-18 -37 -63 -88 -151 -88c-94 0 -157 66 -157 149c0 100 78 155 208 155h99v23c0 80 -29 125 -121 125c-50 0 -108 -15 -149 -41z" />
    <glyph glyph-name="aring" unicode="&#xe5;" horiz-adv-x="524" 
d="M265 724c-30 0 -53 -24 -53 -54c0 -29 23 -54 53 -54s54 25 54 54c0 30 -24 54 -54 54zM265 563c-59 0 -106 48 -106 106c0 59 47 107 106 107s106 -48 106 -107c0 -58 -47 -106 -106 -106zM362 234h-104c-82 0 -121 -35 -121 -87c0 -49 33 -85 97 -85
c79 0 128 58 128 130v42zM92 403v77c37 21 100 35 157 35c135 0 192 -64 192 -187v-328h-78v80c-18 -37 -63 -88 -151 -88c-94 0 -157 66 -157 149c0 100 78 155 208 155h99v23c0 80 -29 125 -121 125c-50 0 -108 -15 -149 -41z" />
    <glyph glyph-name="ae" unicode="&#xe6;" horiz-adv-x="837" 
d="M707 295v16c0 79 -43 133 -121 133c-76 0 -131 -56 -143 -149h264zM362 233h-104c-82 0 -121 -34 -121 -86c0 -49 33 -85 97 -85c79 0 128 58 128 130v41zM92 403v77c37 21 100 35 157 35c90 0 145 -29 172 -84c39 53 97 84 167 84c129 0 198 -82 198 -218
c0 -20 -1 -48 -5 -65h-339c8 -104 71 -169 176 -169c55 0 106 12 141 36v-76c-33 -19 -88 -31 -145 -31c-103 0 -177 44 -215 119c-23 -64 -92 -119 -181 -119c-100 0 -163 66 -163 149c0 100 78 154 208 154h99v24c0 80 -29 125 -121 125c-50 0 -108 -15 -149 -41z" />
    <glyph glyph-name="ccedilla" unicode="&#xe7;" horiz-adv-x="476" 
d="M315 -8c-159 0 -259 100 -259 261c0 154 99 262 258 262c53 0 97 -12 119 -27v-78c-27 18 -70 33 -121 33c-105 0 -174 -71 -174 -189c0 -116 70 -190 178 -190c49 0 95 15 117 32v-76c-22 -17 -74 -28 -118 -28zM336 -51c11 -17 17 -48 17 -71c0 -68 -48 -127 -150 -130
v58c55 4 84 29 84 71c0 27 -8 47 -23 72h72z" />
    <glyph glyph-name="egrave" unicode="&#xe8;" horiz-adv-x="534" 
d="M345 585h-69l-124 156h95zM404 294v17c0 79 -43 133 -121 133c-76 0 -131 -56 -143 -150h264zM456 99v-76c-33 -19 -88 -31 -145 -31c-163 0 -255 101 -255 261c0 154 93 262 229 262c129 0 198 -82 198 -218c0 -20 -1 -50 -5 -66h-339c9 -103 71 -168 176 -168
c55 0 106 12 141 36z" />
    <glyph glyph-name="eacute" unicode="&#xe9;" horiz-adv-x="534" 
d="M425 741l-124 -156h-69l99 156h94zM404 294v17c0 79 -43 133 -121 133c-76 0 -131 -56 -143 -150h264zM456 99v-76c-33 -19 -88 -31 -145 -31c-163 0 -255 101 -255 261c0 154 93 262 229 262c129 0 198 -82 198 -218c0 -20 -1 -50 -5 -66h-339c9 -103 71 -168 176 -168
c55 0 106 12 141 36z" />
    <glyph glyph-name="ecircumflex" unicode="&#xea;" horiz-adv-x="534" 
d="M287 689l-72 -104h-77l111 156h76l112 -156h-77zM404 294v17c0 79 -43 133 -121 133c-76 0 -131 -56 -143 -150h264zM456 99v-76c-33 -19 -88 -31 -145 -31c-163 0 -255 101 -255 261c0 154 93 262 229 262c129 0 198 -82 198 -218c0 -20 -1 -50 -5 -66h-339
c9 -103 71 -168 176 -168c55 0 106 12 141 36z" />
    <glyph glyph-name="edieresis" unicode="&#xeb;" horiz-adv-x="534" 
d="M380 614c-29 0 -51 23 -51 52s22 52 51 52c30 0 53 -23 53 -52s-23 -52 -53 -52zM194 614c-30 0 -52 23 -52 52s22 52 52 52c29 0 52 -23 52 -52s-23 -52 -52 -52zM404 294v17c0 79 -43 133 -121 133c-76 0 -131 -56 -143 -150h264zM456 99v-76c-33 -19 -88 -31 -145 -31
c-163 0 -255 101 -255 261c0 154 93 262 229 262c129 0 198 -82 198 -218c0 -20 -1 -50 -5 -66h-339c9 -103 71 -168 176 -168c55 0 106 12 141 36z" />
    <glyph glyph-name="igrave" unicode="&#xec;" 
d="M90 0v507h79v-507h-79zM89 741l98 -156h-69l-124 156h95z" />
    <glyph glyph-name="iacute" unicode="&#xed;" 
d="M74 585l99 156h94l-124 -156h-69zM90 0v507h79v-507h-79z" />
    <glyph glyph-name="icircumflex" unicode="&#xee;" 
d="M90 0v507h79v-507h-79zM91 741h76l112 -156h-77l-73 104l-72 -104h-77z" />
    <glyph glyph-name="idieresis" unicode="&#xef;" 
d="M36 614c-30 0 -52 23 -52 52s22 52 52 52c29 0 52 -23 52 -52s-23 -52 -52 -52zM222 614c-29 0 -51 23 -51 52s22 52 51 52c30 0 53 -23 53 -52s-23 -52 -53 -52zM90 0v507h79v-507h-79z" />
    <glyph glyph-name="eth" unicode="&#xf0;" horiz-adv-x="550" 
d="M274 63c87 0 138 57 138 152s-51 153 -138 153c-85 0 -136 -58 -136 -153s51 -152 136 -152zM448 644l-82 -42c74 -86 128 -204 128 -347c0 -171 -92 -263 -225 -263c-128 0 -213 89 -213 223c0 135 81 223 208 223c67 0 117 -23 146 -65c-19 74 -57 141 -106 198
l-123 -63v61l85 43c-38 37 -80 69 -123 95h103c28 -18 55 -39 81 -64l121 62v-61z" />
    <glyph glyph-name="ntilde" unicode="&#xf1;" horiz-adv-x="583" 
d="M410 704l47 -34c-22 -44 -56 -68 -99 -68c-53 0 -84 41 -124 41c-30 0 -50 -17 -67 -46l-40 36c22 46 57 72 101 72c57 0 85 -42 128 -42c28 0 43 19 54 41zM169 507v-90c32 64 88 98 160 98c104 0 169 -67 169 -170v-345h-79v324c0 80 -42 120 -111 120
c-71 0 -139 -59 -139 -169v-275h-79v507h79z" />
    <glyph glyph-name="ograve" unicode="&#xf2;" horiz-adv-x="583" 
d="M56 253c0 154 93 262 237 262c143 0 235 -98 235 -260c0 -154 -94 -263 -237 -263c-144 0 -235 100 -235 261zM445 253c0 118 -61 191 -155 191c-92 0 -152 -72 -152 -190c0 -116 62 -191 156 -191c92 0 151 74 151 190zM251 741l98 -156h-69l-124 156h95z" />
    <glyph glyph-name="oacute" unicode="&#xf3;" horiz-adv-x="583" 
d="M236 585l99 156h94l-124 -156h-69zM56 253c0 154 93 262 237 262c143 0 235 -98 235 -260c0 -154 -94 -263 -237 -263c-144 0 -235 100 -235 261zM445 253c0 118 -61 191 -155 191c-92 0 -152 -72 -152 -190c0 -116 62 -191 156 -191c92 0 151 74 151 190z" />
    <glyph glyph-name="ocircumflex" unicode="&#xf4;" horiz-adv-x="583" 
d="M445 253c0 118 -61 191 -155 191c-92 0 -152 -72 -152 -190c0 -116 62 -191 156 -191c92 0 151 74 151 190zM56 253c0 154 93 262 237 262c143 0 235 -98 235 -260c0 -154 -94 -263 -237 -263c-144 0 -235 100 -235 261zM253 741h76l112 -156h-77l-73 104l-72 -104h-77z
" />
    <glyph glyph-name="otilde" unicode="&#xf5;" horiz-adv-x="583" 
d="M56 253c0 154 93 262 237 262c143 0 235 -98 235 -260c0 -154 -94 -263 -237 -263c-144 0 -235 100 -235 261zM445 253c0 118 -61 191 -155 191c-92 0 -152 -72 -152 -190c0 -116 62 -191 156 -191c92 0 151 74 151 190zM410 704l47 -34c-22 -44 -56 -68 -99 -68
c-53 0 -84 41 -124 41c-30 0 -50 -17 -67 -46l-40 36c22 46 57 72 101 72c57 0 85 -42 128 -42c28 0 43 19 54 41z" />
    <glyph glyph-name="odieresis" unicode="&#xf6;" horiz-adv-x="583" 
d="M198 614c-30 0 -52 23 -52 52s22 52 52 52c29 0 52 -23 52 -52s-23 -52 -52 -52zM384 614c-29 0 -51 23 -51 52s22 52 51 52c30 0 53 -23 53 -52s-23 -52 -53 -52zM56 253c0 154 93 262 237 262c143 0 235 -98 235 -260c0 -154 -94 -263 -237 -263
c-144 0 -235 100 -235 261zM445 253c0 118 -61 191 -155 191c-92 0 -152 -72 -152 -190c0 -116 62 -191 156 -191c92 0 151 74 151 190z" />
    <glyph glyph-name="divide" unicode="&#xf7;" horiz-adv-x="553" 
d="M276 466c-29 0 -53 24 -53 52c0 29 24 53 53 53c28 0 52 -24 52 -53c0 -28 -24 -52 -52 -52zM57 304v72h440v-72h-440zM276 109c-29 0 -53 24 -53 53c0 28 24 52 53 52c28 0 52 -24 52 -52c0 -29 -24 -53 -52 -53z" />
    <glyph glyph-name="oslash" unicode="&#xf8;" horiz-adv-x="594" 
d="M420 372l-213 -282c25 -17 55 -27 89 -27c93 0 153 74 153 190c0 48 -10 88 -29 119zM165 138l212 281c-23 16 -52 25 -85 25c-93 0 -154 -72 -154 -190c0 -46 10 -85 27 -116zM528 515l-56 -74c38 -45 60 -108 60 -186c0 -154 -95 -263 -239 -263c-52 0 -96 13 -133 36
l-27 -36h-78l59 78c-37 44 -58 107 -58 183c0 154 94 262 239 262c50 0 94 -12 129 -34l26 34h78z" />
    <glyph glyph-name="ugrave" unicode="&#xf9;" horiz-adv-x="573" 
d="M344 585h-69l-124 156h95zM404 507h79v-507h-79v89c-31 -63 -86 -97 -155 -97c-101 0 -164 67 -164 170v345h79v-324c0 -80 40 -120 105 -120c69 0 135 59 135 169v275z" />
    <glyph glyph-name="uacute" unicode="&#xfa;" horiz-adv-x="573" 
d="M424 741l-124 -156h-69l99 156h94zM404 507h79v-507h-79v89c-31 -63 -86 -97 -155 -97c-101 0 -164 67 -164 170v345h79v-324c0 -80 40 -120 105 -120c69 0 135 59 135 169v275z" />
    <glyph glyph-name="ucircumflex" unicode="&#xfb;" horiz-adv-x="573" 
d="M286 689l-72 -104h-77l111 156h76l112 -156h-77zM404 507h79v-507h-79v89c-31 -63 -86 -97 -155 -97c-101 0 -164 67 -164 170v345h79v-324c0 -80 40 -120 105 -120c69 0 135 59 135 169v275z" />
    <glyph glyph-name="udieresis" unicode="&#xfc;" horiz-adv-x="573" 
d="M379 614c-29 0 -51 23 -51 52s22 52 51 52c30 0 53 -23 53 -52s-23 -52 -53 -52zM193 614c-30 0 -52 23 -52 52s22 52 52 52c29 0 52 -23 52 -52s-23 -52 -52 -52zM404 507h79v-507h-79v89c-31 -63 -86 -97 -155 -97c-101 0 -164 67 -164 170v345h79v-324
c0 -80 40 -120 105 -120c69 0 135 59 135 169v275z" />
    <glyph glyph-name="yacute" unicode="&#xfd;" horiz-adv-x="522" 
d="M207 585l99 156h94l-124 -156h-69zM228 13l-195 494h89l63 -167c64 -167 76 -208 84 -226c7 18 19 55 79 226l60 167h85l-190 -511c-56 -152 -120 -204 -206 -204c-19 0 -40 4 -53 9v70c11 -3 28 -7 51 -7c51 0 89 38 121 117z" />
    <glyph glyph-name="thorn" unicode="&#xfe;" horiz-adv-x="597" 
d="M315 64c87 0 144 73 144 189c0 118 -59 190 -148 190c-86 0 -142 -71 -142 -189c0 -116 58 -190 146 -190zM169 707v-286c33 60 87 94 155 94c131 0 217 -98 217 -260c0 -154 -88 -263 -216 -263c-69 0 -123 32 -156 91v-283h-79v907h79z" />
    <glyph glyph-name="ydieresis" unicode="&#xff;" horiz-adv-x="522" 
d="M355 614c-29 0 -51 23 -51 52s22 52 51 52c30 0 53 -23 53 -52s-23 -52 -53 -52zM169 614c-30 0 -52 23 -52 52s22 52 52 52c29 0 52 -23 52 -52s-23 -52 -52 -52zM228 13l-195 494h89l63 -167c64 -167 76 -208 84 -226c7 18 19 55 79 226l60 167h85l-190 -511
c-56 -152 -120 -204 -206 -204c-19 0 -40 4 -53 9v70c11 -3 28 -7 51 -7c51 0 89 38 121 117z" />
    <glyph glyph-name="Amacron" unicode="&#x100;" horiz-adv-x="653" 
d="M464 860v-59h-276v59h276zM206 249h238l-12 36c-85 255 -101 307 -106 324c-5 -17 -21 -69 -108 -324zM527 0l-60 179h-285l-60 -179h-84l235 674h112l230 -674h-88z" />
    <glyph glyph-name="amacron" unicode="&#x101;" horiz-adv-x="524" 
d="M403 693v-59h-276v59h276zM362 234h-104c-82 0 -121 -35 -121 -87c0 -49 33 -85 97 -85c79 0 128 58 128 130v42zM92 403v77c37 21 100 35 157 35c135 0 192 -64 192 -187v-328h-78v80c-18 -37 -63 -88 -151 -88c-94 0 -157 66 -157 149c0 100 78 155 208 155h99v23
c0 80 -29 125 -121 125c-50 0 -108 -15 -149 -41z" />
    <glyph glyph-name="Abreve" unicode="&#x102;" horiz-adv-x="653" 
d="M408 908h61c0 -101 -54 -159 -142 -159c-89 0 -143 58 -143 159h61c0 -66 28 -102 82 -102c53 0 81 36 81 102zM206 249h238l-12 36c-85 255 -101 307 -106 324c-5 -17 -21 -69 -108 -324zM527 0l-60 179h-285l-60 -179h-84l235 674h112l230 -674h-88z" />
    <glyph glyph-name="abreve" unicode="&#x103;" horiz-adv-x="524" 
d="M347 741h61c0 -101 -54 -159 -142 -159c-89 0 -143 58 -143 159h61c0 -66 28 -102 82 -102c53 0 81 36 81 102zM362 234h-104c-82 0 -121 -35 -121 -87c0 -49 33 -85 97 -85c79 0 128 58 128 130v42zM92 403v77c37 21 100 35 157 35c135 0 192 -64 192 -187v-328h-78v80
c-18 -37 -63 -88 -151 -88c-94 0 -157 66 -157 149c0 100 78 155 208 155h99v23c0 80 -29 125 -121 125c-50 0 -108 -15 -149 -41z" />
    <glyph glyph-name="Aogonek" unicode="&#x104;" horiz-adv-x="653" 
d="M206 249h238l-12 36c-85 255 -101 307 -106 324c-5 -17 -21 -69 -108 -324zM615 0h-49c-51 -29 -92 -69 -92 -114c0 -39 26 -59 66 -59c23 0 50 9 67 22v-61c-22 -13 -51 -19 -77 -19c-81 0 -124 48 -124 110c0 67 53 122 111 152l-50 148h-285l-60 -179h-84l235 674h112
z" />
    <glyph glyph-name="aogonek" unicode="&#x105;" horiz-adv-x="524" 
d="M362 234h-104c-82 0 -121 -35 -121 -87c0 -49 33 -85 97 -85c79 0 128 58 128 130v42zM441 0h-22c-51 -29 -91 -69 -91 -114c0 -39 25 -59 65 -59c23 0 50 9 68 22v-61c-22 -13 -51 -19 -78 -19c-81 0 -124 48 -124 110c0 65 49 117 104 149v52c-18 -37 -63 -88 -151 -88
c-94 0 -157 66 -157 149c0 100 78 155 208 155h99v23c0 80 -29 125 -121 125c-50 0 -108 -15 -149 -41v77c37 21 100 35 157 35c135 0 192 -64 192 -187v-328z" />
    <glyph glyph-name="Cacute" unicode="&#x106;" horiz-adv-x="596" 
d="M318 752l99 156h94l-124 -156h-69zM394 -8c-205 0 -333 137 -333 345c0 213 135 345 339 345c73 0 132 -19 158 -39v-81c-43 32 -95 47 -162 47c-156 0 -252 -105 -252 -272c0 -168 103 -272 253 -272c57 0 129 18 163 46v-79c-37 -23 -97 -40 -166 -40z" />
    <glyph glyph-name="cacute" unicode="&#x107;" horiz-adv-x="476" 
d="M229 585l99 156h94l-124 -156h-69zM315 -8c-159 0 -259 100 -259 261c0 154 99 262 258 262c53 0 97 -12 119 -27v-78c-27 18 -70 33 -121 33c-105 0 -174 -71 -174 -189c0 -116 70 -190 178 -190c49 0 95 15 117 32v-76c-22 -17 -74 -28 -118 -28z" />
    <glyph glyph-name="Ccircumflex" unicode="&#x108;" horiz-adv-x="596" 
d="M560 111v-79c-37 -23 -97 -40 -166 -40c-205 0 -333 137 -333 345c0 213 135 345 339 345c73 0 132 -19 158 -39v-81c-43 32 -95 47 -162 47c-156 0 -252 -105 -252 -272c0 -168 103 -272 253 -272c57 0 129 18 163 46zM333 908h76l112 -156h-77l-73 104l-72 -104h-77z
" />
    <glyph glyph-name="ccircumflex" unicode="&#x109;" horiz-adv-x="476" 
d="M433 96v-76c-22 -17 -74 -28 -118 -28c-159 0 -259 100 -259 261c0 154 99 262 258 262c53 0 97 -12 119 -27v-78c-27 18 -70 33 -121 33c-105 0 -174 -71 -174 -189c0 -116 70 -190 178 -190c49 0 95 15 117 32zM248 741h76l112 -156h-77l-73 104l-72 -104h-77z" />
    <glyph glyph-name="Cdotaccent" unicode="&#x10a;" horiz-adv-x="596" 
d="M394 -8c-205 0 -333 137 -333 345c0 213 135 345 339 345c73 0 132 -19 158 -39v-81c-43 32 -95 47 -162 47c-156 0 -252 -105 -252 -272c0 -168 103 -272 253 -272c57 0 129 18 163 46v-79c-37 -23 -97 -40 -166 -40zM366 782c-31 0 -54 23 -54 54c0 30 23 53 54 53
c30 0 53 -23 53 -53c0 -31 -23 -54 -53 -54z" />
    <glyph glyph-name="cdotaccent" unicode="&#x10b;" horiz-adv-x="476" 
d="M315 -8c-159 0 -259 100 -259 261c0 154 99 262 258 262c53 0 97 -12 119 -27v-78c-27 18 -70 33 -121 33c-105 0 -174 -71 -174 -189c0 -116 70 -190 178 -190c49 0 95 15 117 32v-76c-22 -17 -74 -28 -118 -28zM287 615c-31 0 -54 23 -54 54c0 30 23 53 54 53
c30 0 53 -23 53 -53c0 -31 -23 -54 -53 -54z" />
    <glyph glyph-name="Ccaron" unicode="&#x10c;" horiz-adv-x="596" 
d="M560 111v-79c-37 -23 -97 -40 -166 -40c-205 0 -333 137 -333 345c0 213 135 345 339 345c73 0 132 -19 158 -39v-81c-43 32 -95 47 -162 47c-156 0 -252 -105 -252 -272c0 -168 103 -272 253 -272c57 0 129 18 163 46zM523 908l-112 -156h-76l-111 156h77l72 -104
l73 104h77z" />
    <glyph glyph-name="ccaron" unicode="&#x10d;" horiz-adv-x="476" 
d="M433 96v-76c-22 -17 -74 -28 -118 -28c-159 0 -259 100 -259 261c0 154 99 262 258 262c53 0 97 -12 119 -27v-78c-27 18 -70 33 -121 33c-105 0 -174 -71 -174 -189c0 -116 70 -190 178 -190c49 0 95 15 117 32zM434 741l-112 -156h-76l-111 156h77l72 -104l73 104h77z
" />
    <glyph glyph-name="Dcaron" unicode="&#x10e;" horiz-adv-x="691" 
d="M349 752h-76l-111 156h77l72 -104l73 104h77zM175 72h111c163 0 260 100 260 265c0 169 -97 265 -261 265h-110v-530zM95 674h181c229 0 354 -122 354 -337c0 -211 -131 -337 -354 -337h-181v674z" />
    <glyph glyph-name="dcaron" unicode="&#x10f;" horiz-adv-x="663" 
d="M286 64c86 0 142 71 142 189c0 116 -58 190 -147 190c-86 0 -143 -73 -143 -189c0 -118 59 -190 148 -190zM428 424v283h79v-707h-79v86c-33 -60 -87 -94 -155 -94c-131 0 -217 98 -217 260c0 154 87 263 216 263c69 0 123 -32 156 -91zM625 707h91l-111 -192h-65z" />
    <glyph glyph-name="Dcroat" unicode="&#x110;" horiz-adv-x="691" 
d="M175 72h111c163 0 260 100 260 265c0 169 -97 265 -261 265h-110v-221h191v-72h-191v-237zM95 674h181c229 0 354 -122 354 -337c0 -211 -131 -337 -354 -337h-181v309h-70v72h70v293z" />
    <glyph glyph-name="dcroat" unicode="&#x111;" horiz-adv-x="597" 
d="M286 64c86 0 142 71 142 189c0 116 -58 190 -147 190c-86 0 -143 -73 -143 -189c0 -118 59 -190 148 -190zM572 635v-60h-65v-575h-79v86c-33 -60 -87 -94 -155 -94c-131 0 -217 98 -217 260c0 154 87 263 216 263c69 0 123 -32 156 -91v151h-132v60h132v72h79v-72h65z
" />
    <glyph glyph-name="Emacron" unicode="&#x112;" horiz-adv-x="531" 
d="M429 860v-59h-276v59h276zM175 72h312v-72h-392v674h386v-72h-306v-222h273v-72h-273v-236z" />
    <glyph glyph-name="emacron" unicode="&#x113;" horiz-adv-x="534" 
d="M425 693v-59h-276v59h276zM404 294v17c0 79 -43 133 -121 133c-76 0 -131 -56 -143 -150h264zM456 99v-76c-33 -19 -88 -31 -145 -31c-163 0 -255 101 -255 261c0 154 93 262 229 262c129 0 198 -82 198 -218c0 -20 -1 -50 -5 -66h-339c9 -103 71 -168 176 -168
c55 0 106 12 141 36z" />
    <glyph glyph-name="Ebreve" unicode="&#x114;" horiz-adv-x="531" 
d="M375 908h61c0 -101 -54 -159 -142 -159c-89 0 -143 58 -143 159h61c0 -66 28 -102 82 -102c53 0 81 36 81 102zM175 72h312v-72h-392v674h386v-72h-306v-222h273v-72h-273v-236z" />
    <glyph glyph-name="ebreve" unicode="&#x115;" horiz-adv-x="534" 
d="M369 741h61c0 -101 -54 -159 -142 -159c-89 0 -143 58 -143 159h61c0 -66 28 -102 82 -102c53 0 81 36 81 102zM404 294v17c0 79 -43 133 -121 133c-76 0 -131 -56 -143 -150h264zM456 99v-76c-33 -19 -88 -31 -145 -31c-163 0 -255 101 -255 261c0 154 93 262 229 262
c129 0 198 -82 198 -218c0 -20 -1 -50 -5 -66h-339c9 -103 71 -168 176 -168c55 0 106 12 141 36z" />
    <glyph glyph-name="Edotaccent" unicode="&#x116;" horiz-adv-x="531" 
d="M294 782c-31 0 -54 23 -54 54c0 30 23 53 54 53c30 0 53 -23 53 -53c0 -31 -23 -54 -53 -54zM175 72h312v-72h-392v674h386v-72h-306v-222h273v-72h-273v-236z" />
    <glyph glyph-name="edotaccent" unicode="&#x117;" horiz-adv-x="534" 
d="M288 615c-31 0 -54 23 -54 54c0 30 23 53 54 53c30 0 53 -23 53 -53c0 -31 -23 -54 -53 -54zM404 294v17c0 79 -43 133 -121 133c-76 0 -131 -56 -143 -150h264zM456 99v-76c-33 -19 -88 -31 -145 -31c-163 0 -255 101 -255 261c0 154 93 262 229 262
c129 0 198 -82 198 -218c0 -20 -1 -50 -5 -66h-339c9 -103 71 -168 176 -168c55 0 106 12 141 36z" />
    <glyph glyph-name="Eogonek" unicode="&#x118;" horiz-adv-x="531" 
d="M487 0h-54c-52 -29 -92 -69 -92 -114c0 -39 26 -59 65 -59c23 0 51 9 68 22v-61c-22 -13 -51 -19 -78 -19c-81 0 -124 48 -124 110c0 48 28 90 65 121h-242v674h386v-72h-306v-222h273v-72h-273v-236h312v-72z" />
    <glyph glyph-name="eogonek" unicode="&#x119;" horiz-adv-x="534" 
d="M404 294v17c0 79 -43 133 -121 133c-76 0 -131 -56 -143 -150h264zM444 -151v-61c-22 -13 -51 -19 -78 -19c-81 0 -124 48 -124 110c0 44 23 83 55 113c-154 6 -241 105 -241 261c0 154 93 262 229 262c129 0 198 -82 198 -218c0 -20 -1 -50 -5 -66h-339
c9 -103 71 -168 176 -168c55 0 106 12 141 36v-76c-12 -7 -27 -13 -45 -18c-55 -30 -100 -71 -100 -119c0 -39 26 -59 65 -59c23 0 51 9 68 22z" />
    <glyph glyph-name="Ecaron" unicode="&#x11a;" horiz-adv-x="531" 
d="M331 752h-76l-111 156h77l72 -104l73 104h77zM175 72h312v-72h-392v674h386v-72h-306v-222h273v-72h-273v-236z" />
    <glyph glyph-name="ecaron" unicode="&#x11b;" horiz-adv-x="534" 
d="M325 585h-76l-111 156h77l72 -104l73 104h77zM404 294v17c0 79 -43 133 -121 133c-76 0 -131 -56 -143 -150h264zM456 99v-76c-33 -19 -88 -31 -145 -31c-163 0 -255 101 -255 261c0 154 93 262 229 262c129 0 198 -82 198 -218c0 -20 -1 -50 -5 -66h-339
c9 -103 71 -168 176 -168c55 0 106 12 141 36z" />
    <glyph glyph-name="Gcircumflex" unicode="&#x11c;" horiz-adv-x="680" 
d="M370 856l-72 -104h-77l111 156h76l112 -156h-77zM608 346v-293c-47 -31 -122 -61 -213 -61c-206 0 -334 137 -334 345c0 213 135 345 339 345c78 0 142 -22 168 -42v-81c-43 32 -104 50 -172 50c-156 0 -252 -105 -252 -272c0 -168 103 -272 253 -272c43 0 94 10 131 26
v185h-149v70h229z" />
    <glyph glyph-name="gcircumflex" unicode="&#x11d;" horiz-adv-x="597" 
d="M286 689l-72 -104h-77l111 156h76l112 -156h-77zM286 84c86 0 142 67 142 179c0 110 -58 180 -147 180c-86 0 -143 -69 -143 -179c0 -112 59 -180 148 -180zM428 507h79v-490c0 -156 -96 -225 -231 -225c-70 0 -125 15 -170 35v78c43 -23 104 -42 169 -42
c100 0 153 51 153 162v77c-33 -57 -87 -90 -155 -90c-131 0 -217 95 -217 250c0 148 87 253 216 253c69 0 123 -30 156 -87v79z" />
    <glyph glyph-name="Gbreve" unicode="&#x11e;" horiz-adv-x="680" 
d="M450 908h61c0 -101 -54 -159 -142 -159c-89 0 -143 58 -143 159h61c0 -66 28 -102 82 -102c53 0 81 36 81 102zM608 346v-293c-47 -31 -122 -61 -213 -61c-206 0 -334 137 -334 345c0 213 135 345 339 345c78 0 142 -22 168 -42v-81c-43 32 -104 50 -172 50
c-156 0 -252 -105 -252 -272c0 -168 103 -272 253 -272c43 0 94 10 131 26v185h-149v70h229z" />
    <glyph glyph-name="gbreve" unicode="&#x11f;" horiz-adv-x="597" 
d="M368 741h61c0 -101 -54 -159 -142 -159c-89 0 -143 58 -143 159h61c0 -66 28 -102 82 -102c53 0 81 36 81 102zM286 84c86 0 142 67 142 179c0 110 -58 180 -147 180c-86 0 -143 -69 -143 -179c0 -112 59 -180 148 -180zM428 507h79v-490c0 -156 -96 -225 -231 -225
c-70 0 -125 15 -170 35v78c43 -23 104 -42 169 -42c100 0 153 51 153 162v77c-33 -57 -87 -90 -155 -90c-131 0 -217 95 -217 250c0 148 87 253 216 253c69 0 123 -30 156 -87v79z" />
    <glyph glyph-name="Gdotaccent" unicode="&#x120;" horiz-adv-x="680" 
d="M371 782c-31 0 -54 23 -54 54c0 30 23 53 54 53c30 0 53 -23 53 -53c0 -31 -23 -54 -53 -54zM608 346v-293c-47 -31 -122 -61 -213 -61c-206 0 -334 137 -334 345c0 213 135 345 339 345c78 0 142 -22 168 -42v-81c-43 32 -104 50 -172 50c-156 0 -252 -105 -252 -272
c0 -168 103 -272 253 -272c43 0 94 10 131 26v185h-149v70h229z" />
    <glyph glyph-name="gdotaccent" unicode="&#x121;" horiz-adv-x="597" 
d="M287 615c-31 0 -54 23 -54 54c0 30 23 53 54 53c30 0 53 -23 53 -53c0 -31 -23 -54 -53 -54zM286 84c86 0 142 67 142 179c0 110 -58 180 -147 180c-86 0 -143 -69 -143 -179c0 -112 59 -180 148 -180zM428 507h79v-490c0 -156 -96 -225 -231 -225c-70 0 -125 15 -170 35
v78c43 -23 104 -42 169 -42c100 0 153 51 153 162v77c-33 -57 -87 -90 -155 -90c-131 0 -217 95 -217 250c0 148 87 253 216 253c69 0 123 -30 156 -87v79z" />
    <glyph glyph-name="uni0122" unicode="&#x122;" horiz-adv-x="680" 
d="M246 -243l85 192h91l-111 -192h-65zM608 346v-293c-47 -31 -122 -61 -213 -61c-206 0 -334 137 -334 345c0 213 135 345 339 345c78 0 142 -22 168 -42v-81c-43 32 -104 50 -172 50c-156 0 -252 -105 -252 -272c0 -168 103 -272 253 -272c43 0 94 10 131 26v185h-149v70
h229z" />
    <glyph glyph-name="uni0123" unicode="&#x123;" horiz-adv-x="597" 
d="M400 777l-84 -192h-92l111 192h65zM286 84c86 0 142 67 142 179c0 110 -58 180 -147 180c-86 0 -143 -69 -143 -179c0 -112 59 -180 148 -180zM428 507h79v-490c0 -156 -96 -225 -231 -225c-70 0 -125 15 -170 35v78c43 -23 104 -42 169 -42c100 0 153 51 153 162v77
c-33 -57 -87 -90 -155 -90c-131 0 -217 95 -217 250c0 148 87 253 216 253c69 0 123 -30 156 -87v79z" />
    <glyph glyph-name="Hcircumflex" unicode="&#x124;" horiz-adv-x="695" 
d="M347 856l-72 -104h-77l111 156h76l112 -156h-77zM520 674h80v-674h-80v309h-345v-309h-80v674h80v-293h345v293z" />
    <glyph glyph-name="hcircumflex" unicode="&#x125;" horiz-adv-x="583" 
d="M243 855l-72 -104h-77l111 156h76l112 -156h-77zM169 707v-290c32 64 88 98 160 98c104 0 169 -67 169 -170v-345h-79v324c0 80 -42 120 -111 120c-71 0 -139 -59 -139 -169v-275h-79v707h79z" />
    <glyph glyph-name="Hbar" unicode="&#x126;" horiz-adv-x="695" 
d="M175 381h345v118h-345v-118zM520 674h80v-674h-80v309h-345v-309h-80v674h80v-116h345v116z" />
    <glyph glyph-name="hbar" unicode="&#x127;" horiz-adv-x="583" 
d="M169 575v-158c32 64 88 98 160 98c104 0 169 -67 169 -170v-345h-79v324c0 80 -42 120 -111 120c-71 0 -139 -59 -139 -169v-275h-79v575h-59v60h59v72h79v-72h138v-60h-138z" />
    <glyph glyph-name="Itilde" unicode="&#x128;" horiz-adv-x="270" 
d="M95 0v674h80v-674h-80zM254 871l47 -34c-22 -44 -56 -68 -99 -68c-53 0 -84 41 -124 41c-30 0 -50 -17 -67 -46l-40 36c22 46 57 72 101 72c57 0 85 -42 128 -42c28 0 43 19 54 41z" />
    <glyph glyph-name="itilde" unicode="&#x129;" 
d="M90 0v507h79v-507h-79zM248 704l47 -34c-22 -44 -56 -68 -99 -68c-53 0 -84 41 -124 41c-30 0 -50 -17 -67 -46l-40 36c22 46 57 72 101 72c57 0 85 -42 128 -42c28 0 43 19 54 41z" />
    <glyph glyph-name="Imacron" unicode="&#x12a;" horiz-adv-x="270" 
d="M95 0v674h80v-674h-80zM273 801h-276v59h276v-59z" />
    <glyph glyph-name="imacron" unicode="&#x12b;" 
d="M90 0v507h79v-507h-79zM267 634h-276v59h276v-59z" />
    <glyph glyph-name="Ibreve" unicode="&#x12c;" horiz-adv-x="270" 
d="M-7 908h61c0 -66 28 -102 82 -102c53 0 81 36 81 102h61c0 -101 -54 -159 -142 -159c-89 0 -143 58 -143 159zM95 0v674h80v-674h-80z" />
    <glyph glyph-name="ibreve" unicode="&#x12d;" 
d="M-13 741h61c0 -66 28 -102 82 -102c53 0 81 36 81 102h61c0 -101 -54 -159 -142 -159c-89 0 -143 58 -143 159zM90 0v507h79v-507h-79z" />
    <glyph glyph-name="Iogonek" unicode="&#x12e;" horiz-adv-x="270" 
d="M175 0h-35c-51 -29 -91 -69 -91 -114c0 -39 25 -59 65 -59c23 0 51 9 68 22v-61c-22 -13 -51 -19 -78 -19c-81 0 -124 48 -124 110c0 69 56 124 115 155v640h80v-674z" />
    <glyph glyph-name="iogonek" unicode="&#x12f;" 
d="M129 615c-29 0 -51 22 -51 51s22 52 51 52s52 -23 52 -52s-23 -51 -52 -51zM169 0h-32c-51 -29 -92 -69 -92 -114c0 -39 26 -59 66 -59c23 0 50 9 67 22v-61c-22 -13 -51 -19 -78 -19c-80 0 -123 48 -123 110c0 68 55 123 113 154v474h79v-507z" />
    <glyph glyph-name="Idotaccent" unicode="&#x130;" horiz-adv-x="270" 
d="M95 0v674h80v-674h-80zM136 782c-31 0 -54 23 -54 54c0 30 23 53 54 53c30 0 53 -23 53 -53c0 -31 -23 -54 -53 -54z" />
    <glyph glyph-name="dotlessi" unicode="&#x131;" 
d="M90 0v507h79v-507h-79z" />
    <glyph glyph-name="IJ" unicode="&#x132;" horiz-adv-x="649" 
d="M95 0v674h80v-674h-80zM307 14v76c23 -15 53 -25 84 -25c57 0 87 28 87 93v516h81v-508c0 -122 -65 -174 -161 -174c-31 0 -66 8 -91 22z" />
    <glyph glyph-name="ij" unicode="&#x133;" horiz-adv-x="517" 
d="M90 0v507h79v-507h-79zM129 615c-29 0 -51 22 -51 51s22 52 51 52s52 -23 52 -52s-23 -51 -52 -51zM348 -63v570h79v-575c0 -86 -48 -137 -131 -137c-26 0 -47 4 -71 14v72c23 -12 46 -16 67 -16c34 0 56 19 56 72zM387 718c29 0 52 -23 52 -52s-23 -51 -52 -51
s-51 22 -51 51s22 52 51 52z" />
    <glyph glyph-name="Jcircumflex" unicode="&#x134;" horiz-adv-x="379" 
d="M37 14v76c23 -15 53 -25 84 -25c57 0 87 28 87 93v516h81v-508c0 -122 -65 -174 -161 -174c-31 0 -66 8 -91 22zM208 908h76l112 -156h-77l-73 104l-72 -104h-77z" />
    <glyph glyph-name="jcircumflex" unicode="&#x135;" 
d="M89 741h76l112 -156h-77l-73 104l-72 -104h-77zM90 -63v570h79v-575c0 -86 -48 -137 -131 -137c-26 0 -47 4 -71 14v72c23 -12 46 -16 67 -16c34 0 56 19 56 72z" />
    <glyph glyph-name="uni0136" unicode="&#x136;" horiz-adv-x="598" 
d="M95 0v674h80v-674h-80zM205 -243l85 192h91l-111 -192h-65zM288 340l284 -340h-106l-274 333l264 341h91z" />
    <glyph glyph-name="uni0137" unicode="&#x137;" horiz-adv-x="497" 
d="M169 707v-707h-79v707h79zM155 -243l85 192h91l-111 -192h-65zM273 275l206 -275h-97l-199 270l195 237h88z" />
    <glyph glyph-name="Lacute" unicode="&#x139;" horiz-adv-x="491" 
d="M295 908l-124 -156h-69l99 156h94zM175 72h288v-72h-368v674h80v-602z" />
    <glyph glyph-name="lacute" unicode="&#x13a;" 
d="M83 751l99 156h94l-124 -156h-69zM90 0v707h79v-707h-79z" />
    <glyph glyph-name="uni013B" unicode="&#x13b;" horiz-adv-x="491" 
d="M152 -243l85 192h91l-111 -192h-65zM175 72h288v-72h-368v674h80v-602z" />
    <glyph glyph-name="uni013C" unicode="&#x13c;" 
d="M3 -243l85 192h91l-111 -192h-65zM90 0v707h79v-707h-79z" />
    <glyph glyph-name="Lcaron" unicode="&#x13d;" horiz-adv-x="491" 
d="M426 707l-112 -192h-65l85 192h92zM175 72h288v-72h-368v674h80v-602z" />
    <glyph glyph-name="lcaron" unicode="&#x13e;" horiz-adv-x="326" 
d="M203 515l84 192h92l-111 -192h-65zM90 0v707h79v-707h-79z" />
    <glyph glyph-name="Ldot" unicode="&#x13f;" horiz-adv-x="491" 
d="M381 281c-33 0 -59 26 -59 59s26 59 59 59s59 -26 59 -59s-26 -59 -59 -59zM175 72h288v-72h-368v674h80v-602z" />
    <glyph glyph-name="ldot" unicode="&#x140;" horiz-adv-x="280" 
d="M90 0v707h79v-707h-79zM269 277c-33 0 -59 26 -59 59s26 59 59 59s59 -26 59 -59s-26 -59 -59 -59z" />
    <glyph glyph-name="Lslash" unicode="&#x141;" horiz-adv-x="491" 
d="M175 72h288v-72h-368v253l-74 -52v77l74 52v344h80v-288l137 97v-77l-137 -97v-237z" />
    <glyph glyph-name="lslash" unicode="&#x142;" 
d="M242 484v-75l-73 -51v-358h-79v303l-73 -51v74l73 51v330h79v-274z" />
    <glyph glyph-name="Nacute" unicode="&#x143;" horiz-adv-x="691" 
d="M290 752l99 156h94l-124 -156h-69zM95 0v674h104l160 -284c109 -191 145 -264 160 -295c0 30 -3 114 -3 294v285h80v-674h-104l-160 282c-109 193 -146 267 -161 297c1 -30 4 -108 4 -295v-284h-80z" />
    <glyph glyph-name="nacute" unicode="&#x144;" horiz-adv-x="583" 
d="M429 741l-124 -156h-69l99 156h94zM169 507v-90c32 64 88 98 160 98c104 0 169 -67 169 -170v-345h-79v324c0 80 -42 120 -111 120c-71 0 -139 -59 -139 -169v-275h-79v507h79z" />
    <glyph glyph-name="uni0145" unicode="&#x145;" horiz-adv-x="691" 
d="M220 -243l85 192h91l-111 -192h-65zM95 0v674h104l160 -284c109 -191 145 -264 160 -295c0 30 -3 114 -3 294v285h80v-674h-104l-160 282c-109 193 -146 267 -161 297c1 -30 4 -108 4 -295v-284h-80z" />
    <glyph glyph-name="uni0146" unicode="&#x146;" horiz-adv-x="583" 
d="M168 -243l85 192h91l-111 -192h-65zM169 507v-90c32 64 88 98 160 98c104 0 169 -67 169 -170v-345h-79v324c0 80 -42 120 -111 120c-71 0 -139 -59 -139 -169v-275h-79v507h79z" />
    <glyph glyph-name="Ncaron" unicode="&#x147;" horiz-adv-x="691" 
d="M95 0v674h104l160 -284c109 -191 145 -264 160 -295c0 30 -3 114 -3 294v285h80v-674h-104l-160 282c-109 193 -146 267 -161 297c1 -30 4 -108 4 -295v-284h-80zM495 908l-112 -156h-76l-111 156h77l72 -104l73 104h77z" />
    <glyph glyph-name="ncaron" unicode="&#x148;" horiz-adv-x="583" 
d="M329 585h-76l-111 156h77l72 -104l73 104h77zM169 507v-90c32 64 88 98 160 98c104 0 169 -67 169 -170v-345h-79v324c0 80 -42 120 -111 120c-71 0 -139 -59 -139 -169v-275h-79v507h79z" />
    <glyph glyph-name="Omacron" unicode="&#x14c;" horiz-adv-x="714" 
d="M495 801h-276v59h276v-59zM654 337c0 -216 -111 -345 -296 -345c-187 0 -297 125 -297 345c0 216 110 345 296 345c187 0 297 -125 297 -345zM570 337c0 171 -79 272 -213 272c-133 0 -213 -101 -213 -272c0 -170 80 -272 214 -272c133 0 212 102 212 272z" />
    <glyph glyph-name="omacron" unicode="&#x14d;" horiz-adv-x="583" 
d="M429 634h-276v59h276v-59zM56 253c0 154 93 262 237 262c143 0 235 -98 235 -260c0 -154 -94 -263 -237 -263c-144 0 -235 100 -235 261zM445 253c0 118 -61 191 -155 191c-92 0 -152 -72 -152 -190c0 -116 62 -191 156 -191c92 0 151 74 151 190z" />
    <glyph glyph-name="Obreve" unicode="&#x14e;" horiz-adv-x="714" 
d="M215 908h61c0 -66 28 -102 82 -102c53 0 81 36 81 102h61c0 -101 -54 -159 -142 -159c-89 0 -143 58 -143 159zM570 337c0 171 -79 272 -213 272c-133 0 -213 -101 -213 -272c0 -170 80 -272 214 -272c133 0 212 102 212 272zM654 337c0 -216 -111 -345 -296 -345
c-187 0 -297 125 -297 345c0 216 110 345 296 345c187 0 297 -125 297 -345z" />
    <glyph glyph-name="obreve" unicode="&#x14f;" horiz-adv-x="583" 
d="M149 741h61c0 -66 28 -102 82 -102c53 0 81 36 81 102h61c0 -101 -54 -159 -142 -159c-89 0 -143 58 -143 159zM445 253c0 118 -61 191 -155 191c-92 0 -152 -72 -152 -190c0 -116 62 -191 156 -191c92 0 151 74 151 190zM56 253c0 154 93 262 237 262
c143 0 235 -98 235 -260c0 -154 -94 -263 -237 -263c-144 0 -235 100 -235 261z" />
    <glyph glyph-name="Ohungarumlaut" unicode="&#x150;" horiz-adv-x="714" 
d="M241 752l95 156h92l-127 -156h-60zM401 752l96 156h92l-128 -156h-60zM654 337c0 -216 -111 -345 -296 -345c-187 0 -297 125 -297 345c0 216 110 345 296 345c187 0 297 -125 297 -345zM570 337c0 171 -79 272 -213 272c-133 0 -213 -101 -213 -272
c0 -170 80 -272 214 -272c133 0 212 102 212 272z" />
    <glyph glyph-name="ohungarumlaut" unicode="&#x151;" horiz-adv-x="583" 
d="M175 585l95 156h92l-127 -156h-60zM335 585l96 156h92l-128 -156h-60zM56 253c0 154 93 262 237 262c143 0 235 -98 235 -260c0 -154 -94 -263 -237 -263c-144 0 -235 100 -235 261zM445 253c0 118 -61 191 -155 191c-92 0 -152 -72 -152 -190c0 -116 62 -191 156 -191
c92 0 151 74 151 190z" />
    <glyph glyph-name="OE" unicode="&#x152;" horiz-adv-x="1006" 
d="M358 65c133 0 212 102 212 272c0 171 -79 272 -213 272c-133 0 -213 -101 -213 -272c0 -170 80 -272 214 -272zM651 72h311v-72h-392v94c-48 -66 -120 -102 -212 -102c-187 0 -297 125 -297 345c0 216 110 345 296 345c93 0 165 -35 213 -100v92h387v-72h-306v-222h272
v-72h-272v-236z" />
    <glyph glyph-name="oe" unicode="&#x153;" horiz-adv-x="924" 
d="M530 294h263c0 5 1 11 1 17c0 79 -44 133 -122 133c-76 0 -130 -56 -142 -150zM294 63c92 0 151 74 151 190c0 118 -61 191 -155 191c-92 0 -152 -72 -152 -190c0 -116 62 -191 156 -191zM846 99v-76c-34 -19 -89 -31 -145 -31c-104 0 -178 45 -216 123
c-36 -76 -105 -123 -194 -123c-144 0 -235 100 -235 261c0 154 93 262 237 262c90 0 159 -43 194 -120c37 74 104 120 187 120c129 0 199 -82 199 -218c0 -20 -2 -50 -5 -66h-339c8 -103 70 -168 176 -168c54 0 105 12 141 36z" />
    <glyph glyph-name="Racute" unicode="&#x154;" horiz-adv-x="576" 
d="M421 908l-124 -156h-69l99 156h94zM175 604v-266h97c95 0 153 50 153 134c0 83 -57 132 -153 132h-97zM544 0h-100l-178 268h-9h-82v-268h-80v674h170c152 0 243 -75 243 -202c0 -97 -57 -166 -155 -192z" />
    <glyph glyph-name="racute" unicode="&#x155;" horiz-adv-x="352" 
d="M329 741l-124 -156h-69l99 156h94zM169 507v-85c25 57 69 93 136 93c12 0 22 -2 29 -4v-77c-10 4 -22 5 -38 5c-78 0 -127 -75 -127 -164v-275h-79v507h79z" />
    <glyph glyph-name="uni0156" unicode="&#x156;" horiz-adv-x="576" 
d="M175 -243l85 192h91l-111 -192h-65zM175 604v-266h97c95 0 153 50 153 134c0 83 -57 132 -153 132h-97zM353 280l191 -280h-100l-178 268h-9h-82v-268h-80v674h170c152 0 243 -75 243 -202c0 -97 -57 -166 -155 -192z" />
    <glyph glyph-name="uni0157" unicode="&#x157;" horiz-adv-x="352" 
d="M24 -243l85 192h91l-111 -192h-65zM169 507v-85c25 57 69 93 136 93c12 0 22 -2 29 -4v-77c-10 4 -22 5 -38 5c-78 0 -127 -75 -127 -164v-275h-79v507h79z" />
    <glyph glyph-name="Rcaron" unicode="&#x158;" horiz-adv-x="576" 
d="M321 752h-76l-111 156h77l72 -104l73 104h77zM175 604v-266h97c95 0 153 50 153 134c0 83 -57 132 -153 132h-97zM544 0h-100l-178 268h-9h-82v-268h-80v674h170c152 0 243 -75 243 -202c0 -97 -57 -166 -155 -192z" />
    <glyph glyph-name="rcaron" unicode="&#x159;" horiz-adv-x="352" 
d="M229 585h-76l-111 156h77l72 -104l73 104h77zM169 507v-85c25 57 69 93 136 93c12 0 22 -2 29 -4v-77c-10 4 -22 5 -38 5c-78 0 -127 -75 -127 -164v-275h-79v507h79z" />
    <glyph glyph-name="Sacute" unicode="&#x15a;" horiz-adv-x="506" 
d="M197 752l99 156h94l-124 -156h-69zM422 652v-83c-36 23 -96 40 -158 40c-76 0 -130 -36 -130 -96c0 -54 37 -91 132 -126c117 -44 194 -94 194 -205c0 -121 -98 -190 -221 -190c-72 0 -137 14 -185 44v85c44 -33 111 -56 177 -56c90 0 146 43 146 115
c0 63 -50 98 -155 138c-118 45 -171 104 -171 189c0 106 99 175 218 175c56 0 111 -8 153 -30z" />
    <glyph glyph-name="sacute" unicode="&#x15b;" horiz-adv-x="426" 
d="M155 585l99 156h94l-124 -156h-69zM348 495v-77c-29 16 -73 26 -122 26c-60 0 -94 -23 -94 -62c0 -37 28 -59 99 -86c100 -36 145 -80 145 -158c0 -89 -67 -146 -180 -146c-59 0 -111 14 -145 31v78c39 -23 93 -38 146 -38c66 0 98 29 98 68c0 50 -39 76 -109 102
c-92 34 -134 73 -134 145c0 86 74 137 175 137c56 0 96 -9 121 -20z" />
    <glyph glyph-name="Scircumflex" unicode="&#x15c;" horiz-adv-x="506" 
d="M422 652v-83c-36 23 -96 40 -158 40c-76 0 -130 -36 -130 -96c0 -54 37 -91 132 -126c117 -44 194 -94 194 -205c0 -121 -98 -190 -221 -190c-72 0 -137 14 -185 44v85c44 -33 111 -56 177 -56c90 0 146 43 146 115c0 63 -50 98 -155 138c-118 45 -171 104 -171 189
c0 106 99 175 218 175c56 0 111 -8 153 -30zM214 908h76l112 -156h-77l-73 104l-72 -104h-77z" />
    <glyph glyph-name="scircumflex" unicode="&#x15d;" horiz-adv-x="426" 
d="M348 495v-77c-29 16 -73 26 -122 26c-60 0 -94 -23 -94 -62c0 -37 28 -59 99 -86c100 -36 145 -80 145 -158c0 -89 -67 -146 -180 -146c-59 0 -111 14 -145 31v78c39 -23 93 -38 146 -38c66 0 98 29 98 68c0 50 -39 76 -109 102c-92 34 -134 73 -134 145
c0 86 74 137 175 137c56 0 96 -9 121 -20zM172 741h76l112 -156h-77l-73 104l-72 -104h-77z" />
    <glyph glyph-name="uni015E" unicode="&#x15e;" horiz-adv-x="506" 
d="M422 652v-83c-36 23 -96 40 -158 40c-76 0 -130 -36 -130 -96c0 -54 37 -91 132 -126c117 -44 194 -94 194 -205c0 -121 -98 -190 -221 -190c-72 0 -137 14 -185 44v85c44 -33 111 -56 177 -56c90 0 146 43 146 115c0 63 -50 98 -155 138c-118 45 -171 104 -171 189
c0 106 99 175 218 175c56 0 111 -8 153 -30zM290 -51c11 -17 18 -48 18 -71c0 -68 -49 -127 -151 -130v58c56 4 85 29 85 71c0 27 -8 47 -24 72h72z" />
    <glyph glyph-name="uni015F" unicode="&#x15f;" horiz-adv-x="426" 
d="M348 495v-77c-29 16 -73 26 -122 26c-60 0 -94 -23 -94 -62c0 -37 28 -59 99 -86c100 -36 145 -80 145 -158c0 -89 -67 -146 -180 -146c-59 0 -111 14 -145 31v78c39 -23 93 -38 146 -38c66 0 98 29 98 68c0 50 -39 76 -109 102c-92 34 -134 73 -134 145
c0 86 74 137 175 137c56 0 96 -9 121 -20zM234 -51c12 -17 18 -48 18 -71c0 -68 -48 -127 -150 -130v58c55 4 84 29 84 71c0 27 -8 47 -23 72h71z" />
    <glyph glyph-name="Scaron" unicode="&#x160;" horiz-adv-x="506" 
d="M422 652v-83c-36 23 -96 40 -158 40c-76 0 -130 -36 -130 -96c0 -54 37 -91 132 -126c117 -44 194 -94 194 -205c0 -121 -98 -190 -221 -190c-72 0 -137 14 -185 44v85c44 -33 111 -56 177 -56c90 0 146 43 146 115c0 63 -50 98 -155 138c-118 45 -171 104 -171 189
c0 106 99 175 218 175c56 0 111 -8 153 -30zM402 908l-112 -156h-76l-111 156h77l72 -104l73 104h77z" />
    <glyph glyph-name="scaron" unicode="&#x161;" horiz-adv-x="426" 
d="M348 495v-77c-29 16 -73 26 -122 26c-60 0 -94 -23 -94 -62c0 -37 28 -59 99 -86c100 -36 145 -80 145 -158c0 -89 -67 -146 -180 -146c-59 0 -111 14 -145 31v78c39 -23 93 -38 146 -38c66 0 98 29 98 68c0 50 -39 76 -109 102c-92 34 -134 73 -134 145
c0 86 74 137 175 137c56 0 96 -9 121 -20zM360 741l-112 -156h-76l-111 156h77l72 -104l73 104h77z" />
    <glyph glyph-name="uni0162" unicode="&#x162;" horiz-adv-x="526" 
d="M231 -51h71c12 -17 18 -48 18 -71c0 -68 -48 -127 -150 -130v58c55 4 84 29 84 71c0 27 -8 47 -23 72zM24 674h478v-72h-199v-602h-80v602h-199v72z" />
    <glyph glyph-name="uni0163" unicode="&#x163;" horiz-adv-x="355" 
d="M178 -51h71c12 -17 18 -48 18 -71c0 -68 -48 -127 -150 -130v58c55 4 84 29 84 71c0 27 -8 47 -23 72zM331 444h-145v-294c0 -57 24 -87 76 -87c28 0 52 7 69 20v-74c-18 -11 -44 -17 -77 -17c-103 0 -147 58 -147 155v297h-73v63h73v108h79v-108h145v-63z" />
    <glyph glyph-name="Tcaron" unicode="&#x164;" horiz-adv-x="526" 
d="M300 752h-76l-111 156h77l72 -104l73 104h77zM502 674v-72h-199v-602h-80v602h-199v72h478z" />
    <glyph glyph-name="tcaron" unicode="&#x165;" horiz-adv-x="355" 
d="M390 753l-112 -192h-65l85 192h92zM186 615v-108h145v-63h-145v-294c0 -57 24 -87 76 -87c28 0 52 7 69 20v-74c-18 -11 -44 -17 -77 -17c-103 0 -147 58 -147 155v297h-73v63h73v108h79z" />
    <glyph glyph-name="Tbar" unicode="&#x166;" horiz-adv-x="526" 
d="M502 602h-199v-238h98v-59h-98v-305h-80v305h-98v59h98v238h-199v72h478v-72z" />
    <glyph glyph-name="tbar" unicode="&#x167;" horiz-adv-x="355" 
d="M331 444h-145v-141h140v-60h-140v-93c0 -57 24 -87 76 -87c28 0 52 7 69 20v-74c-18 -11 -44 -17 -77 -17c-103 0 -147 58 -147 155v96h-73v60h73v141h-73v63h73v108h79v-108h145v-63z" />
    <glyph glyph-name="Utilde" unicode="&#x168;" horiz-adv-x="671" 
d="M500 259v415h81v-412c0 -175 -93 -270 -247 -270c-153 0 -244 94 -244 262v420h80v-419c0 -130 69 -190 164 -190c100 0 166 60 166 194zM454 871l47 -34c-22 -44 -56 -68 -99 -68c-53 0 -84 41 -124 41c-30 0 -50 -17 -67 -46l-40 36c22 46 57 72 101 72
c57 0 85 -42 128 -42c28 0 43 19 54 41z" />
    <glyph glyph-name="utilde" unicode="&#x169;" horiz-adv-x="573" 
d="M405 704l47 -34c-22 -44 -56 -68 -99 -68c-53 0 -84 41 -124 41c-30 0 -50 -17 -67 -46l-40 36c22 46 57 72 101 72c57 0 85 -42 128 -42c28 0 43 19 54 41zM404 507h79v-507h-79v89c-31 -63 -86 -97 -155 -97c-101 0 -164 67 -164 170v345h79v-324
c0 -80 40 -120 105 -120c69 0 135 59 135 169v275z" />
    <glyph glyph-name="Umacron" unicode="&#x16a;" horiz-adv-x="671" 
d="M500 259v415h81v-412c0 -175 -93 -270 -247 -270c-153 0 -244 94 -244 262v420h80v-419c0 -130 69 -190 164 -190c100 0 166 60 166 194zM473 801h-276v59h276v-59z" />
    <glyph glyph-name="umacron" unicode="&#x16b;" horiz-adv-x="573" 
d="M424 693v-59h-276v59h276zM404 507h79v-507h-79v89c-31 -63 -86 -97 -155 -97c-101 0 -164 67 -164 170v345h79v-324c0 -80 40 -120 105 -120c69 0 135 59 135 169v275z" />
    <glyph glyph-name="Ubreve" unicode="&#x16c;" horiz-adv-x="671" 
d="M193 908h61c0 -66 28 -102 82 -102c53 0 81 36 81 102h61c0 -101 -54 -159 -142 -159c-89 0 -143 58 -143 159zM500 259v415h81v-412c0 -175 -93 -270 -247 -270c-153 0 -244 94 -244 262v420h80v-419c0 -130 69 -190 164 -190c100 0 166 60 166 194z" />
    <glyph glyph-name="ubreve" unicode="&#x16d;" horiz-adv-x="573" 
d="M368 741h61c0 -101 -54 -159 -142 -159c-89 0 -143 58 -143 159h61c0 -66 28 -102 82 -102c53 0 81 36 81 102zM404 507h79v-507h-79v89c-31 -63 -86 -97 -155 -97c-101 0 -164 67 -164 170v345h79v-324c0 -80 40 -120 105 -120c69 0 135 59 135 169v275z" />
    <glyph glyph-name="Uring" unicode="&#x16e;" horiz-adv-x="671" 
d="M335 730c-59 0 -106 48 -106 106c0 59 47 107 106 107s106 -48 106 -107c0 -58 -47 -106 -106 -106zM335 891c-30 0 -53 -24 -53 -54c0 -29 23 -54 53 -54s54 25 54 54c0 30 -24 54 -54 54zM500 259v415h81v-412c0 -175 -93 -270 -247 -270c-153 0 -244 94 -244 262v420
h80v-419c0 -130 69 -190 164 -190c100 0 166 60 166 194z" />
    <glyph glyph-name="uring" unicode="&#x16f;" horiz-adv-x="573" 
d="M286 724c-30 0 -53 -24 -53 -54c0 -29 23 -54 53 -54s54 25 54 54c0 30 -24 54 -54 54zM286 563c-59 0 -106 48 -106 106c0 59 47 107 106 107s106 -48 106 -107c0 -58 -47 -106 -106 -106zM404 507h79v-507h-79v89c-31 -63 -86 -97 -155 -97c-101 0 -164 67 -164 170
v345h79v-324c0 -80 40 -120 105 -120c69 0 135 59 135 169v275z" />
    <glyph glyph-name="Uhungarumlaut" unicode="&#x170;" horiz-adv-x="671" 
d="M500 259v415h81v-412c0 -175 -93 -270 -247 -270c-153 0 -244 94 -244 262v420h80v-419c0 -130 69 -190 164 -190c100 0 166 60 166 194zM219 752l95 156h92l-127 -156h-60zM379 752l96 156h92l-128 -156h-60z" />
    <glyph glyph-name="uhungarumlaut" unicode="&#x171;" horiz-adv-x="573" 
d="M390 585h-60l96 156h92zM357 741l-127 -156h-60l95 156h92zM404 232v275h79v-507h-79v89c-31 -63 -86 -97 -155 -97c-101 0 -164 67 -164 170v345h79v-324c0 -80 40 -120 105 -120c69 0 135 59 135 169z" />
    <glyph glyph-name="Uogonek" unicode="&#x172;" horiz-adv-x="671" 
d="M500 674h81v-412c0 -140 -59 -228 -162 -259c-54 -29 -98 -70 -98 -117c0 -39 26 -59 66 -59c23 0 50 9 67 22v-61c-22 -13 -51 -19 -78 -19c-80 0 -123 48 -123 110c0 45 24 84 56 114c-138 10 -219 102 -219 261v420h80v-419c0 -130 69 -190 164 -190
c100 0 166 60 166 194v415z" />
    <glyph glyph-name="uogonek" unicode="&#x173;" horiz-adv-x="573" 
d="M483 0h-24c-51 -29 -91 -69 -91 -114c0 -39 26 -59 65 -59c23 0 51 9 68 22v-61c-22 -13 -51 -19 -78 -19c-81 0 -124 48 -124 110c0 65 50 118 105 149v61c-31 -63 -86 -97 -155 -97c-101 0 -164 67 -164 170v345h79v-324c0 -80 40 -120 105 -120c69 0 135 59 135 169
v275h79v-507z" />
    <glyph glyph-name="Wcircumflex" unicode="&#x174;" horiz-adv-x="971" 
d="M444 663h93l71 -239c57 -190 90 -313 99 -348c8 35 33 161 76 347l58 251h82l-164 -674h-110l-60 212c-64 220 -97 332 -104 359c-7 -27 -38 -142 -101 -357l-63 -214h-106l-167 674h85l61 -250c32 -131 73 -316 81 -348c9 31 60 216 98 348zM447 908h76l112 -156h-77
l-73 104l-72 -104h-77z" />
    <glyph glyph-name="wcircumflex" unicode="&#x175;" horiz-adv-x="809" 
d="M190 0l-155 507h83l50 -168c57 -196 68 -245 74 -268c6 23 16 72 73 269l48 167h90l48 -167c60 -204 67 -247 74 -271c7 24 15 70 74 271l48 167h77l-154 -507h-97l-46 165c-53 186 -67 243 -74 267c-7 -24 -19 -81 -70 -266l-47 -166h-96zM366 741h76l112 -156h-77
l-73 104l-72 -104h-77z" />
    <glyph glyph-name="Ycircumflex" unicode="&#x176;" horiz-adv-x="609" 
d="M304 856l-72 -104h-77l111 156h76l112 -156h-77zM573 674l-229 -426v-248h-81v248l-227 426h93l53 -99c94 -178 116 -226 125 -247c9 21 32 71 125 247l51 99h90z" />
    <glyph glyph-name="ycircumflex" unicode="&#x177;" horiz-adv-x="522" 
d="M224 741h76l112 -156h-77l-73 104l-72 -104h-77zM228 13l-195 494h89l63 -167c64 -167 76 -208 84 -226c7 18 19 55 79 226l60 167h85l-190 -511c-56 -152 -120 -204 -206 -204c-19 0 -40 4 -53 9v70c11 -3 28 -7 51 -7c51 0 89 38 121 117z" />
    <glyph glyph-name="Ydieresis" unicode="&#x178;" horiz-adv-x="609" 
d="M397 781c-29 0 -51 23 -51 52s22 52 51 52c30 0 53 -23 53 -52s-23 -52 -53 -52zM211 781c-30 0 -52 23 -52 52s22 52 52 52c29 0 52 -23 52 -52s-23 -52 -52 -52zM573 674l-229 -426v-248h-81v248l-227 426h93l53 -99c94 -178 116 -226 125 -247c9 21 32 71 125 247
l51 99h90z" />
    <glyph glyph-name="Zacute" unicode="&#x179;" horiz-adv-x="550" 
d="M220 752l99 156h94l-124 -156h-69zM498 674v-63l-358 -539h368v-72h-465v64l357 538h-343v72h441z" />
    <glyph glyph-name="zacute" unicode="&#x17a;" horiz-adv-x="463" 
d="M176 585l99 156h94l-124 -156h-69zM413 507v-50l-279 -394h289v-63h-383v54l276 390h-262v63h359z" />
    <glyph glyph-name="Zdotaccent" unicode="&#x17b;" horiz-adv-x="550" 
d="M498 674v-63l-358 -539h368v-72h-465v64l357 538h-343v72h441zM276 782c-31 0 -54 23 -54 54c0 30 23 53 54 53c30 0 53 -23 53 -53c0 -31 -23 -54 -53 -54z" />
    <glyph glyph-name="zdotaccent" unicode="&#x17c;" horiz-adv-x="463" 
d="M413 507v-50l-279 -394h289v-63h-383v54l276 390h-262v63h359zM232 615c-31 0 -54 23 -54 54c0 30 23 53 54 53c30 0 53 -23 53 -53c0 -31 -23 -54 -53 -54z" />
    <glyph glyph-name="Zcaron" unicode="&#x17d;" horiz-adv-x="550" 
d="M498 674v-63l-358 -539h368v-72h-465v64l357 538h-343v72h441zM425 908l-112 -156h-76l-111 156h77l72 -104l73 104h77z" />
    <glyph glyph-name="zcaron" unicode="&#x17e;" horiz-adv-x="463" 
d="M413 507v-50l-279 -394h289v-63h-383v54l276 390h-262v63h359zM381 741l-112 -156h-76l-111 156h77l72 -104l73 104h77z" />
    <glyph glyph-name="florin" unicode="&#x192;" horiz-adv-x="392" 
d="M162 371l22 126c21 122 70 184 163 184c19 0 49 -2 66 -8v-72c-16 6 -35 10 -57 10c-51 0 -80 -39 -94 -122l-21 -118h99v-64h-110l-66 -377c-21 -121 -65 -177 -161 -177c-21 0 -52 4 -68 10v72c17 -7 36 -11 60 -11c51 0 77 30 92 114l64 369h-97v64h108z" />
    <glyph glyph-name="uni0218" unicode="&#x218;" horiz-adv-x="506" 
d="M131 -243l85 192h91l-111 -192h-65zM422 652v-83c-36 23 -96 40 -158 40c-76 0 -130 -36 -130 -96c0 -54 37 -91 132 -126c117 -44 194 -94 194 -205c0 -121 -98 -190 -221 -190c-72 0 -137 14 -185 44v85c44 -33 111 -56 177 -56c90 0 146 43 146 115
c0 63 -50 98 -155 138c-118 45 -171 104 -171 189c0 106 99 175 218 175c56 0 111 -8 153 -30z" />
    <glyph glyph-name="uni0219" unicode="&#x219;" horiz-adv-x="426" 
d="M89 -243l85 192h91l-111 -192h-65zM348 495v-77c-29 16 -73 26 -122 26c-60 0 -94 -23 -94 -62c0 -37 28 -59 99 -86c100 -36 145 -80 145 -158c0 -89 -67 -146 -180 -146c-59 0 -111 14 -145 31v78c39 -23 93 -38 146 -38c66 0 98 29 98 68c0 50 -39 76 -109 102
c-92 34 -134 73 -134 145c0 86 74 137 175 137c56 0 96 -9 121 -20z" />
    <glyph glyph-name="uni021A" unicode="&#x21a;" horiz-adv-x="526" 
d="M137 -243l85 192h91l-111 -192h-65zM24 674h478v-72h-199v-602h-80v602h-199v72z" />
    <glyph glyph-name="uni021B" unicode="&#x21b;" horiz-adv-x="355" 
d="M84 -243l85 192h91l-111 -192h-65zM331 444h-145v-294c0 -57 24 -87 76 -87c28 0 52 7 69 20v-74c-18 -11 -44 -17 -77 -17c-103 0 -147 58 -147 155v297h-73v63h73v108h79v-108h145v-63z" />
    <glyph glyph-name="uni0237" unicode="&#x237;" 
d="M90 -63v570h79v-575c0 -86 -48 -137 -131 -137c-26 0 -47 4 -71 14v72c23 -12 46 -16 67 -16c34 0 56 19 56 72z" />
    <glyph glyph-name="circumflex" unicode="&#x2c6;" horiz-adv-x="421" 
d="M172 741h76l112 -156h-77l-73 104l-72 -104h-77z" />
    <glyph glyph-name="caron" unicode="&#x2c7;" horiz-adv-x="421" 
d="M360 741l-112 -156h-76l-111 156h77l72 -104l73 104h77z" />
    <glyph glyph-name="breve" unicode="&#x2d8;" horiz-adv-x="421" 
d="M68 741h61c0 -66 28 -102 82 -102c53 0 81 36 81 102h61c0 -101 -54 -159 -142 -159c-89 0 -143 58 -143 159z" />
    <glyph glyph-name="dotaccent" unicode="&#x2d9;" horiz-adv-x="421" 
d="M211 615c-31 0 -54 23 -54 54c0 30 23 53 54 53c30 0 53 -23 53 -53c0 -31 -23 -54 -53 -54z" />
    <glyph glyph-name="ring" unicode="&#x2da;" horiz-adv-x="421" 
d="M210 563c-59 0 -106 48 -106 106c0 59 47 107 106 107s106 -48 106 -107c0 -58 -47 -106 -106 -106zM210 724c-30 0 -53 -24 -53 -54c0 -29 23 -54 53 -54s54 25 54 54c0 30 -24 54 -54 54z" />
    <glyph glyph-name="ogonek" unicode="&#x2db;" horiz-adv-x="421" 
d="M311 -151v-61c-22 -13 -51 -19 -78 -19c-80 0 -123 48 -123 110c0 83 81 146 150 170l31 -38c-61 -30 -113 -74 -113 -125c0 -39 26 -59 66 -59c23 0 50 9 67 22z" />
    <glyph glyph-name="tilde" unicode="&#x2dc;" horiz-adv-x="421" 
d="M329 704l47 -34c-22 -44 -56 -68 -99 -68c-53 0 -84 41 -124 41c-30 0 -50 -17 -67 -46l-40 36c22 46 57 72 101 72c57 0 85 -42 128 -42c28 0 43 19 54 41z" />
    <glyph glyph-name="hungarumlaut" unicode="&#x2dd;" horiz-adv-x="421" 
d="M94 585l95 156h92l-127 -156h-60zM254 585l96 156h92l-128 -156h-60z" />
    <glyph glyph-name="uni0326" unicode="&#x326;" horiz-adv-x="417" 
d="M115 -243l85 192h91l-111 -192h-65z" />
    <glyph glyph-name="pi" unicode="&#x3c0;" horiz-adv-x="582" 
d="M564 507v-64h-95v-443h-79v443h-191v-278c0 -129 -64 -165 -158 -165v69c57 0 79 17 79 93v281h-96v64h540z" />
    <glyph glyph-name="Wgrave" unicode="&#x1e80;" horiz-adv-x="971" 
d="M445 908l98 -156h-69l-124 156h95zM444 663h93l71 -239c57 -190 90 -313 99 -348c8 35 33 161 76 347l58 251h82l-164 -674h-110l-60 212c-64 220 -97 332 -104 359c-7 -27 -38 -142 -101 -357l-63 -214h-106l-167 674h85l61 -250c32 -131 73 -316 81 -348
c9 31 60 216 98 348z" />
    <glyph glyph-name="wgrave" unicode="&#x1e81;" horiz-adv-x="809" 
d="M364 741l98 -156h-69l-124 156h95zM190 0l-155 507h83l50 -168c57 -196 68 -245 74 -268c6 23 16 72 73 269l48 167h90l48 -167c60 -204 67 -247 74 -271c7 24 15 70 74 271l48 167h77l-154 -507h-97l-46 165c-53 186 -67 243 -74 267c-7 -24 -19 -81 -70 -266l-47 -166
h-96z" />
    <glyph glyph-name="Wacute" unicode="&#x1e82;" horiz-adv-x="971" 
d="M444 663h93l71 -239c57 -190 90 -313 99 -348c8 35 33 161 76 347l58 251h82l-164 -674h-110l-60 212c-64 220 -97 332 -104 359c-7 -27 -38 -142 -101 -357l-63 -214h-106l-167 674h85l61 -250c32 -131 73 -316 81 -348c9 31 60 216 98 348zM430 752l99 156h94
l-124 -156h-69z" />
    <glyph glyph-name="wacute" unicode="&#x1e83;" horiz-adv-x="809" 
d="M190 0l-155 507h83l50 -168c57 -196 68 -245 74 -268c6 23 16 72 73 269l48 167h90l48 -167c60 -204 67 -247 74 -271c7 24 15 70 74 271l48 167h77l-154 -507h-97l-46 165c-53 186 -67 243 -74 267c-7 -24 -19 -81 -70 -266l-47 -166h-96zM349 585l99 156h94l-124 -156
h-69z" />
    <glyph glyph-name="Wdieresis" unicode="&#x1e84;" horiz-adv-x="971" 
d="M444 663h93l71 -239c57 -190 90 -313 99 -348c8 35 33 161 76 347l58 251h82l-164 -674h-110l-60 212c-64 220 -97 332 -104 359c-7 -27 -38 -142 -101 -357l-63 -214h-106l-167 674h85l61 -250c32 -131 73 -316 81 -348c9 31 60 216 98 348zM578 781
c-29 0 -51 23 -51 52s22 52 51 52c30 0 53 -23 53 -52s-23 -52 -53 -52zM392 781c-30 0 -52 23 -52 52s22 52 52 52c29 0 52 -23 52 -52s-23 -52 -52 -52z" />
    <glyph glyph-name="wdieresis" unicode="&#x1e85;" horiz-adv-x="809" 
d="M190 0l-155 507h83l50 -168c57 -196 68 -245 74 -268c6 23 16 72 73 269l48 167h90l48 -167c60 -204 67 -247 74 -271c7 24 15 70 74 271l48 167h77l-154 -507h-97l-46 165c-53 186 -67 243 -74 267c-7 -24 -19 -81 -70 -266l-47 -166h-96zM497 614c-29 0 -51 23 -51 52
s22 52 51 52c30 0 53 -23 53 -52s-23 -52 -53 -52zM311 614c-30 0 -52 23 -52 52s22 52 52 52c29 0 52 -23 52 -52s-23 -52 -52 -52z" />
    <glyph glyph-name="Ygrave" unicode="&#x1ef2;" horiz-adv-x="609" 
d="M362 752h-69l-124 156h95zM573 674l-229 -426v-248h-81v248l-227 426h93l53 -99c94 -178 116 -226 125 -247c9 21 32 71 125 247l51 99h90z" />
    <glyph glyph-name="ygrave" unicode="&#x1ef3;" horiz-adv-x="522" 
d="M222 741l98 -156h-69l-124 156h95zM228 13l-195 494h89l63 -167c64 -167 76 -208 84 -226c7 18 19 55 79 226l60 167h85l-190 -511c-56 -152 -120 -204 -206 -204c-19 0 -40 4 -53 9v70c11 -3 28 -7 51 -7c51 0 89 38 121 117z" />
    <glyph glyph-name="endash" unicode="&#x2013;" horiz-adv-x="500" 
d="M57 240v63h386v-63h-386z" />
    <glyph glyph-name="emdash" unicode="&#x2014;" horiz-adv-x="1000" 
d="M57 240v63h886v-63h-886z" />
    <glyph glyph-name="quoteleft" unicode="&#x2018;" horiz-adv-x="206" 
d="M196 674l-93 -224h-93l131 224h55z" />
    <glyph glyph-name="quoteright" unicode="&#x2019;" horiz-adv-x="206" 
d="M10 450l93 224h93l-131 -224h-55z" />
    <glyph glyph-name="quotesinglbase" unicode="&#x201a;" horiz-adv-x="206" 
d="M10 -150l93 224h93l-131 -224h-55z" />
    <glyph glyph-name="quotedblleft" unicode="&#x201c;" horiz-adv-x="363" 
d="M196 674l-93 -224h-93l131 224h55zM353 674l-93 -224h-93l131 224h55z" />
    <glyph glyph-name="quotedblright" unicode="&#x201d;" horiz-adv-x="363" 
d="M10 450l93 224h93l-131 -224h-55zM167 450l93 224h93l-131 -224h-55z" />
    <glyph glyph-name="quotedblbase" unicode="&#x201e;" horiz-adv-x="363" 
d="M10 -150l93 224h93l-131 -224h-55zM167 -150l93 224h93l-131 -224h-55z" />
    <glyph glyph-name="dagger" unicode="&#x2020;" horiz-adv-x="506" 
d="M452 503v-69h-163v-434h-72v434h-163v69h163v171h72v-171h163z" />
    <glyph glyph-name="daggerdbl" unicode="&#x2021;" horiz-adv-x="506" 
d="M452 434h-163v-195h163v-70h-163v-169h-72v169h-163v70h163v195h-163v69h163v171h72v-171h163v-69z" />
    <glyph glyph-name="bullet" unicode="&#x2022;" horiz-adv-x="449" 
d="M225 123c-77 0 -133 58 -133 133s56 133 132 133c75 0 133 -58 133 -133s-58 -133 -132 -133z" />
    <glyph glyph-name="ellipsis" unicode="&#x2026;" horiz-adv-x="707" 
d="M117 110c33 0 59 -26 59 -59s-26 -59 -59 -59s-59 26 -59 59s26 59 59 59zM354 110c33 0 59 -26 59 -59s-26 -59 -59 -59c-34 0 -59 26 -59 59s25 59 59 59zM590 110c34 0 59 -26 59 -59s-25 -59 -59 -59c-33 0 -58 26 -58 59s25 59 58 59z" />
    <glyph glyph-name="perthousand" unicode="&#x2030;" horiz-adv-x="1212" 
d="M202 -1l357 666h77l-359 -666h-75zM636 -7c-88 0 -158 71 -158 158s70 159 158 159c87 0 158 -72 158 -159s-71 -158 -158 -158zM203 356c-87 0 -158 71 -158 159c0 86 71 158 158 158s159 -72 159 -158c0 -88 -72 -159 -159 -159zM203 604c-49 0 -89 -40 -89 -89
c0 -50 40 -90 89 -90c50 0 90 40 90 90c0 49 -40 89 -90 89zM636 241c-49 0 -89 -40 -89 -90c0 -49 40 -89 89 -89c50 0 90 40 90 89c0 50 -40 90 -90 90zM1025 -7c-88 0 -159 71 -159 158s71 159 159 159c87 0 158 -72 158 -159s-71 -158 -158 -158zM1025 241
c-50 0 -90 -40 -90 -90c0 -49 40 -89 90 -89c49 0 89 40 89 89c0 50 -40 90 -89 90z" />
    <glyph glyph-name="guilsinglleft" unicode="&#x2039;" horiz-adv-x="339" 
d="M264 419l-109 -166l109 -166h-76l-112 166l112 166h76z" />
    <glyph glyph-name="guilsinglright" unicode="&#x203a;" horiz-adv-x="339" 
d="M151 419l113 -166l-113 -166h-75l109 166l-109 166h75z" />
    <glyph glyph-name="fraction" unicode="&#x2044;" horiz-adv-x="311" 
d="M-92 0l450 712h72l-451 -712h-71z" />
    <glyph glyph-name="Euro" unicode="&#x20ac;" horiz-adv-x="590" 
d="M440 222h-198c31 -102 108 -155 197 -155c45 0 81 6 112 24v-76c-34 -19 -72 -23 -118 -23c-133 0 -240 86 -276 230h-105v57h95c-2 17 -3 35 -3 53c0 17 1 33 2 48h-94v57h103c33 153 140 239 275 239c46 0 88 -7 120 -24v-77c-29 17 -68 25 -111 25
c-98 0 -171 -56 -199 -163h200v-57h-211c-1 -16 -2 -32 -2 -49c0 -18 1 -36 3 -52h210v-57z" />
    <glyph glyph-name="uni20B9" unicode="&#x20b9;" horiz-adv-x="541" 
d="M493 674v-68h-162c34 -26 54 -61 63 -104h99v-67h-96c-9 -108 -94 -180 -230 -180h-9l204 -255h-100l-198 255v67h98c96 0 147 41 155 113h-253v67h249c-15 63 -63 104 -152 104h-97v68h429z" />
    <glyph glyph-name="trademark" unicode="&#x2122;" horiz-adv-x="694" 
d="M274 331l27 343h77l58 -162c23 -63 33 -99 35 -109c2 10 13 49 36 109l61 162h78l26 -343h-60l-11 155c-5 77 -4 110 -4 122c-3 -12 -9 -39 -40 -122l-56 -148h-61l-53 148c-30 87 -37 110 -40 122c1 -12 1 -39 -4 -122l-9 -155h-60zM2 620v54h232v-54h-85v-290h-60v290
h-87z" />
    <glyph glyph-name="uni2126" unicode="&#x2126;" horiz-adv-x="781" 
d="M569 71h159v-71h-293v71c117 21 167 134 167 274c0 160 -76 266 -215 266c-136 0 -215 -106 -215 -266c0 -140 63 -253 173 -274v-71h-292v71h157c-80 54 -123 151 -123 274c0 203 115 342 300 342c190 0 300 -139 300 -342c0 -123 -39 -220 -118 -274z" />
    <glyph glyph-name="partialdiff" unicode="&#x2202;" horiz-adv-x="516" 
d="M246 65c98 0 145 93 147 214c-33 43 -80 72 -143 72c-75 0 -129 -55 -129 -144c0 -80 46 -142 125 -142zM141 674h112c103 -67 217 -233 217 -388c0 -171 -77 -294 -230 -294c-132 0 -201 104 -201 217c0 135 103 212 207 212c55 0 102 -20 137 -56
c-35 134 -150 254 -242 309z" />
    <glyph glyph-name="uni2206" unicode="&#x2206;" horiz-adv-x="618" 
d="M118 69h382l-67 193c-97 282 -122 350 -122 350s-26 -69 -125 -350zM367 674l220 -608v-66h-556v66l224 608h112z" />
    <glyph glyph-name="product" unicode="&#x220f;" horiz-adv-x="594" 
d="M520 674v-854h-81v781h-261v-605c0 -131 -64 -180 -153 -180c-19 0 -49 5 -64 11v75c15 -7 35 -12 54 -12c56 0 82 32 82 97v687h423z" />
    <glyph glyph-name="summation" unicode="&#x2211;" horiz-adv-x="441" 
d="M479 674v-71h-358l178 -359l-178 -373h358v-71h-449v71l179 373l-179 359v71h449z" />
    <glyph glyph-name="minus" unicode="&#x2212;" horiz-adv-x="553" 
d="M57 304v72h440v-72h-440z" />
    <glyph glyph-name="uni2215" unicode="&#x2215;" horiz-adv-x="431" 
d="M-29 0l450 712h72l-451 -712h-71z" />
    <glyph glyph-name="radical" unicode="&#x221a;" horiz-adv-x="755" 
d="M219 422l107 -299c51 -140 87 -253 87 -255c0 1 26 116 70 261l235 769h83l-332 -1096h-111l-202 552h-123l15 68h171z" />
    <glyph glyph-name="infinity" unicode="&#x221e;" horiz-adv-x="835" 
d="M226 446c-67 0 -103 -42 -103 -98c0 -55 37 -102 104 -102c61 0 110 55 142 100c-36 47 -81 100 -143 100zM610 181c-89 0 -143 52 -194 116c-49 -60 -108 -116 -197 -116c-110 0 -170 66 -170 163c0 96 66 167 176 167c86 0 142 -53 193 -118c49 64 108 119 196 119
c110 0 172 -66 172 -161c0 -97 -67 -170 -176 -170zM609 248c67 0 102 41 102 99c0 53 -37 100 -104 100c-64 0 -110 -56 -141 -102c40 -51 80 -97 143 -97z" />
    <glyph glyph-name="approxequal" unicode="&#x2248;" horiz-adv-x="617" 
d="M509 297l57 -41c-34 -53 -76 -88 -140 -88c-86 0 -151 73 -211 73c-43 0 -80 -19 -114 -68l-51 45c43 59 96 93 153 93c98 0 148 -73 217 -73c39 0 69 23 89 59zM509 497l57 -41c-34 -53 -76 -88 -140 -88c-86 0 -151 73 -211 73c-43 0 -80 -19 -114 -68l-51 45
c43 59 96 93 153 93c98 0 148 -73 217 -73c39 0 69 24 89 59z" />
    <glyph glyph-name="notequal" unicode="&#x2260;" horiz-adv-x="553" 
d="M497 407h-163l-59 -134h222v-68h-253l-39 -88h-56l39 88h-131v68h162l59 134h-221v68h252l39 88h56l-39 -88h132v-68z" />
    <glyph glyph-name="lessequal" unicode="&#x2264;" horiz-adv-x="548" 
d="M52 120v68h440v-68h-440zM492 559v-74l-407 -81l407 -82v-73l-440 97v115z" />
    <glyph glyph-name="greaterequal" unicode="&#x2265;" horiz-adv-x="548" 
d="M57 120v68h440v-68h-440zM57 559l440 -98v-115l-440 -97v73l408 82l-408 81v74z" />
    <glyph glyph-name="lozenge" unicode="&#x25ca;" horiz-adv-x="564" 
d="M380 253l44 84l-44 84c-68 124 -99 187 -99 187s-31 -62 -97 -187l-44 -84l44 -84c66 -125 97 -187 97 -187s31 63 99 187zM328 674l184 -337l-184 -337h-96l-180 337l180 337h96z" />
    <glyph glyph-name="itfLogo" horiz-adv-x="1663" 
d="M100 0v674h208v-674h-208zM351 478v196h208v-196h-208zM602 0v674h208v-674h-208zM853 478v196h208v-196h-208zM1104 0v674h209v-674h-209zM1355 478v196h208v-196h-208zM1355 238v197h208v-197h-208z" />
    <glyph glyph-name="i.loclTRK" 
d="M90 0v507h79v-507h-79zM129 615c-29 0 -51 22 -51 51s22 52 51 52s52 -23 52 -52s-23 -51 -52 -51z" />
    <glyph glyph-name="caron.alt" horiz-adv-x="417" 
d="M202 515l85 192h92l-112 -192h-65z" />
    <glyph glyph-name="commaaccent.alt" horiz-adv-x="417" 
d="M322 777l-84 -192h-92l111 192h65z" />
    </font>
</defs>
</svg>
